<?xml version="1.0" standalone="no"?>
 <!DOCTYPE svg PUBLIC "-//W3C//DTD SVG 1.1//EN" 
 "http://www.w3.org/Graphics/SVG/1.1/DTD/svg11.dtd"> 
<svg
  xmlns:svg="http://www.w3.org/2000/svg"
  xmlns="http://www.w3.org/2000/svg"
  xmlns:xlink="http://www.w3.org/1999/xlink"
  version="1.1"
  width="29.700220cm" height="21.000720cm" viewBox="0 0 116930 82680">
<title>SVG Picture created as africube4-F_Mask.svg date 2022/01/28 09:11:17 </title>
  <desc>Picture generated by PCBNEW </desc>
<g style="fill:#000000; fill-opacity:1;stroke:#000000; stroke-opacity:1;
stroke-linecap:round; stroke-linejoin:round;"
 transform="translate(0 0) scale(1 1)">
</g>
<g style="fill:#000000; fill-opacity:0.0; 
stroke:#000000; stroke-width:-0.000393701; stroke-opacity:1; 
stroke-linecap:round; stroke-linejoin:round;">
<g >
</g>
<g style="fill:#000000; fill-opacity:0.0; 
stroke:#000000; stroke-width:0; stroke-opacity:1; 
stroke-linecap:round; stroke-linejoin:round;">
</g>
<g style="fill:#000000; fill-opacity:1.0; 
stroke:#000000; stroke-width:0; stroke-opacity:1; 
stroke-linecap:round; stroke-linejoin:round;">
<path style="fill:#000000; fill-opacity:1.0; 
stroke:#000000; stroke-width:0; stroke-opacity:1; 
stroke-linecap:round; stroke-linejoin:round;fill-rule:evenodd;"
d="M 28523.5,23835.7
28531.1,23836.9
28538.6,23838.7
28545.9,23841.3
28552.9,23844.7
28559.5,23848.6
28565.7,23853.2
28571.4,23858.4
28576.6,23864.1
28581.2,23870.3
28585.2,23877
28588.5,23884
28591.1,23891.2
28593,23898.7
28594.1,23906.4
28594.5,23914.1
28594.5,24425.9
28594.1,24433.6
28593,24441.3
28591.1,24448.8
28588.5,24456
28585.2,24463
28581.2,24469.7
28576.6,24475.9
28571.4,24481.6
28565.7,24486.8
28559.5,24491.4
28552.9,24495.3
28545.9,24498.7
28538.6,24501.3
28531.1,24503.1
28523.5,24504.3
28515.8,24504.6
27925.2,24504.6
27917.5,24504.3
27909.9,24503.1
27902.4,24501.3
27895.1,24498.7
27888.1,24495.3
27881.5,24491.4
27875.3,24486.8
27869.5,24481.6
27864.4,24475.9
27859.8,24469.7
27855.8,24463
27852.5,24456
27849.9,24448.8
27848,24441.3
27846.9,24433.6
27846.5,24425.9
27846.5,23914.1
27846.9,23906.4
27848,23898.7
27849.9,23891.2
27852.5,23884
27855.8,23877
27859.8,23870.3
27864.4,23864.1
27869.5,23858.4
27875.3,23853.2
27881.5,23848.6
27888.1,23844.7
27895.1,23841.3
27902.4,23838.7
27909.9,23836.9
27917.5,23835.7
27925.2,23835.4
28515.8,23835.4
Z" /> 
<path style="fill:#000000; fill-opacity:1.0; 
stroke:#000000; stroke-width:0; stroke-opacity:1; 
stroke-linecap:round; stroke-linejoin:round;fill-rule:evenodd;"
d="M 27460.5,23835.7
27468.1,23836.9
27475.6,23838.7
27482.9,23841.3
27489.9,23844.7
27496.5,23848.6
27502.7,23853.2
27508.5,23858.4
27513.6,23864.1
27518.2,23870.3
27522.2,23877
27525.5,23884
27528.1,23891.2
27530,23898.7
27531.1,23906.4
27531.5,23914.1
27531.5,24425.9
27531.1,24433.6
27530,24441.3
27528.1,24448.8
27525.5,24456
27522.2,24463
27518.2,24469.7
27513.6,24475.9
27508.5,24481.6
27502.7,24486.8
27496.5,24491.4
27489.9,24495.3
27482.9,24498.7
27475.6,24501.3
27468.1,24503.1
27460.5,24504.3
27452.8,24504.6
26862.2,24504.6
26854.5,24504.3
26846.9,24503.1
26839.4,24501.3
26832.1,24498.7
26825.1,24495.3
26818.5,24491.4
26812.3,24486.8
26806.6,24481.6
26801.4,24475.9
26796.8,24469.7
26792.8,24463
26789.5,24456
26786.9,24448.8
26785,24441.3
26783.9,24433.6
26783.5,24425.9
26783.5,23914.1
26783.9,23906.4
26785,23898.7
26786.9,23891.2
26789.5,23884
26792.8,23877
26796.8,23870.3
26801.4,23864.1
26806.6,23858.4
26812.3,23853.2
26818.5,23848.6
26825.1,23844.7
26832.1,23841.3
26839.4,23838.7
26846.9,23836.9
26854.5,23835.7
26862.2,23835.4
27452.8,23835.4
Z" /> 
</g>
<g >
</g>
<g style="fill:#000000; fill-opacity:1.0; 
stroke:#000000; stroke-width:0; stroke-opacity:1; 
stroke-linecap:round; stroke-linejoin:round;">
<path style="fill:#000000; fill-opacity:1.0; 
stroke:#000000; stroke-width:0; stroke-opacity:1; 
stroke-linecap:round; stroke-linejoin:round;fill-rule:evenodd;"
d="M 27350.6,21706.9
27358.3,21708
27365.8,21709.9
27373,21712.5
27380,21715.8
27386.7,21719.8
27392.9,21724.4
27398.6,21729.6
27403.8,21735.3
27408.4,21741.5
27412.3,21748.1
27415.7,21755.1
27418.3,21762.4
27420.1,21769.9
27421.3,21777.5
27421.6,21785.2
27421.6,22375.8
27421.3,22383.5
27420.1,22391.1
27418.3,22398.6
27415.7,22405.9
27412.3,22412.9
27408.4,22419.5
27403.8,22425.7
27398.6,22431.5
27392.9,22436.6
27386.7,22441.2
27380,22445.2
27373,22448.5
27365.8,22451.1
27358.3,22453
27350.6,22454.1
27342.9,22454.5
26831.1,22454.5
26823.4,22454.1
26815.7,22453
26808.2,22451.1
26801,22448.5
26794,22445.2
26787.3,22441.2
26781.1,22436.6
26775.4,22431.5
26770.2,22425.7
26765.6,22419.5
26761.7,22412.9
26758.3,22405.9
26755.7,22398.6
26753.9,22391.1
26752.7,22383.5
26752.4,22375.8
26752.4,21785.2
26752.7,21777.5
26753.9,21769.9
26755.7,21762.4
26758.3,21755.1
26761.7,21748.1
26765.6,21741.5
26770.2,21735.3
26775.4,21729.6
26781.1,21724.4
26787.3,21719.8
26794,21715.8
26801,21712.5
26808.2,21709.9
26815.7,21708
26823.4,21706.9
26831.1,21706.5
27342.9,21706.5
Z" /> 
<path style="fill:#000000; fill-opacity:1.0; 
stroke:#000000; stroke-width:0; stroke-opacity:1; 
stroke-linecap:round; stroke-linejoin:round;fill-rule:evenodd;"
d="M 27350.6,22769.9
27358.3,22771
27365.8,22772.9
27373,22775.5
27380,22778.8
27386.7,22782.8
27392.9,22787.4
27398.6,22792.5
27403.8,22798.3
27408.4,22804.5
27412.3,22811.1
27415.7,22818.1
27418.3,22825.4
27420.1,22832.9
27421.3,22840.5
27421.6,22848.2
27421.6,23438.8
27421.3,23446.5
27420.1,23454.1
27418.3,23461.6
27415.7,23468.9
27412.3,23475.9
27408.4,23482.5
27403.8,23488.7
27398.6,23494.4
27392.9,23499.6
27386.7,23504.2
27380,23508.2
27373,23511.5
27365.8,23514.1
27358.3,23516
27350.6,23517.1
27342.9,23517.5
26831.1,23517.5
26823.4,23517.1
26815.7,23516
26808.2,23514.1
26801,23511.5
26794,23508.2
26787.3,23504.2
26781.1,23499.6
26775.4,23494.4
26770.2,23488.7
26765.6,23482.5
26761.7,23475.9
26758.3,23468.9
26755.7,23461.6
26753.9,23454.1
26752.7,23446.5
26752.4,23438.8
26752.4,22848.2
26752.7,22840.5
26753.9,22832.9
26755.7,22825.4
26758.3,22818.1
26761.7,22811.1
26765.6,22804.5
26770.2,22798.3
26775.4,22792.5
26781.1,22787.4
26787.3,22782.8
26794,22778.8
26801,22775.5
26808.2,22772.9
26815.7,22771
26823.4,22769.9
26831.1,22769.5
27342.9,22769.5
Z" /> 
</g>
<g >
</g>
<g style="fill:#000000; fill-opacity:1.0; 
stroke:#000000; stroke-width:0; stroke-opacity:1; 
stroke-linecap:round; stroke-linejoin:round;">
<path style="fill:#000000; fill-opacity:1.0; 
stroke:#000000; stroke-width:0; stroke-opacity:1; 
stroke-linecap:round; stroke-linejoin:round;fill-rule:evenodd;"
d="M 28587.6,21650.9
28595.3,21652
28602.8,21653.9
28610,21656.5
28617,21659.8
28623.7,21663.8
28629.9,21668.4
28635.6,21673.6
28640.8,21679.3
28645.4,21685.5
28649.3,21692.1
28652.7,21699.1
28655.3,21706.4
28657.1,21713.9
28658.3,21721.5
28658.6,21729.2
28658.6,22319.8
28658.3,22327.5
28657.1,22335.1
28655.3,22342.6
28652.7,22349.9
28649.3,22356.9
28645.4,22363.5
28640.8,22369.7
28635.6,22375.5
28629.9,22380.6
28623.7,22385.2
28617,22389.2
28610,22392.5
28602.8,22395.1
28595.3,22397
28587.6,22398.1
28579.9,22398.5
28068.1,22398.5
28060.4,22398.1
28052.7,22397
28045.2,22395.1
28038,22392.5
28031,22389.2
28024.3,22385.2
28018.1,22380.6
28012.4,22375.5
28007.2,22369.7
28002.6,22363.5
27998.7,22356.9
27995.3,22349.9
27992.7,22342.6
27990.9,22335.1
27989.7,22327.5
27989.4,22319.8
27989.4,21729.2
27989.7,21721.5
27990.9,21713.9
27992.7,21706.4
27995.3,21699.1
27998.7,21692.1
28002.6,21685.5
28007.2,21679.3
28012.4,21673.6
28018.1,21668.4
28024.3,21663.8
28031,21659.8
28038,21656.5
28045.2,21653.9
28052.7,21652
28060.4,21650.9
28068.1,21650.5
28579.9,21650.5
Z" /> 
<path style="fill:#000000; fill-opacity:1.0; 
stroke:#000000; stroke-width:0; stroke-opacity:1; 
stroke-linecap:round; stroke-linejoin:round;fill-rule:evenodd;"
d="M 28587.6,22713.9
28595.3,22715
28602.8,22716.9
28610,22719.5
28617,22722.8
28623.7,22726.8
28629.9,22731.4
28635.6,22736.5
28640.8,22742.3
28645.4,22748.5
28649.3,22755.1
28652.7,22762.1
28655.3,22769.4
28657.1,22776.9
28658.3,22784.5
28658.6,22792.2
28658.6,23382.8
28658.3,23390.5
28657.1,23398.1
28655.3,23405.6
28652.7,23412.9
28649.3,23419.9
28645.4,23426.5
28640.8,23432.7
28635.6,23438.4
28629.9,23443.6
28623.7,23448.2
28617,23452.2
28610,23455.5
28602.8,23458.1
28595.3,23460
28587.6,23461.1
28579.9,23461.5
28068.1,23461.5
28060.4,23461.1
28052.7,23460
28045.2,23458.1
28038,23455.5
28031,23452.2
28024.3,23448.2
28018.1,23443.6
28012.4,23438.4
28007.2,23432.7
28002.6,23426.5
27998.7,23419.9
27995.3,23412.9
27992.7,23405.6
27990.9,23398.1
27989.7,23390.5
27989.4,23382.8
27989.4,22792.2
27989.7,22784.5
27990.9,22776.9
27992.7,22769.4
27995.3,22762.1
27998.7,22755.1
28002.6,22748.5
28007.2,22742.3
28012.4,22736.5
28018.1,22731.4
28024.3,22726.8
28031,22722.8
28038,22719.5
28045.2,22716.9
28052.7,22715
28060.4,22713.9
28068.1,22713.5
28579.9,22713.5
Z" /> 
</g>
<g >
</g>
<g style="fill:#000000; fill-opacity:1.0; 
stroke:#000000; stroke-width:0; stroke-opacity:1; 
stroke-linecap:round; stroke-linejoin:round;">
<path style="fill:#000000; fill-opacity:1.0; 
stroke:#000000; stroke-width:0; stroke-opacity:1; 
stroke-linecap:round; stroke-linejoin:round;fill-rule:evenodd;"
d="M 12962.4,10915
12970,10916.1
12977.5,10918
12984.8,10920.6
12991.8,10923.9
12998.4,10927.9
13004.6,10932.5
13010.3,10937.7
13015.5,10943.4
13020.1,10949.6
13024.1,10956.2
13027.4,10963.2
13030,10970.5
13031.9,10978
13033,10985.6
13033.4,10993.4
13033.4,11662.6
13033,11670.4
13031.9,11678
13030,11685.5
13027.4,11692.8
13024.1,11699.8
13020.1,11706.4
13015.5,11712.6
13010.3,11718.3
13004.6,11723.5
12998.4,11728.1
12991.8,11732.1
12984.8,11735.4
12977.5,11738
12970,11739.9
12962.4,11741
12954.6,11741.4
12285.4,11741.4
12277.6,11741
12270,11739.9
12262.5,11738
12255.2,11735.4
12248.2,11732.1
12241.6,11728.1
12235.4,11723.5
12229.7,11718.3
12224.5,11712.6
12219.9,11706.4
12215.9,11699.8
12212.6,11692.8
12210,11685.5
12208.1,11678
12207,11670.4
12206.6,11662.6
12206.6,10993.4
12207,10985.6
12208.1,10978
12210,10970.5
12212.6,10963.2
12215.9,10956.2
12219.9,10949.6
12224.5,10943.4
12229.7,10937.7
12235.4,10932.5
12241.6,10927.9
12248.2,10923.9
12255.2,10920.6
12262.5,10918
12270,10916.1
12277.6,10915
12285.4,10914.6
12954.6,10914.6
Z" /> 
<circle cx="12620" cy="10328" r="413.386" /> 
<circle cx="13620" cy="11328" r="413.386" /> 
<circle cx="13620" cy="10328" r="413.386" /> 
<circle cx="14620" cy="11328" r="413.386" /> 
<circle cx="14620" cy="10328" r="413.386" /> 
<circle cx="15620" cy="11328" r="413.386" /> 
<circle cx="15620" cy="10328" r="413.386" /> 
<circle cx="16620" cy="11328" r="413.386" /> 
<circle cx="16620" cy="10328" r="413.386" /> 
<circle cx="17620" cy="11328" r="413.386" /> 
<circle cx="17620" cy="10328" r="413.386" /> 
<circle cx="18620" cy="11328" r="413.386" /> 
<circle cx="18620" cy="10328" r="413.386" /> 
<circle cx="19620" cy="11328" r="413.386" /> 
<circle cx="19620" cy="10328" r="413.386" /> 
<circle cx="20620" cy="11328" r="413.386" /> 
<circle cx="20620" cy="10328" r="413.386" /> 
<circle cx="21620" cy="11328" r="413.386" /> 
<circle cx="21620" cy="10328" r="413.386" /> 
<circle cx="22620" cy="11328" r="413.386" /> 
<circle cx="22620" cy="10328" r="413.386" /> 
<circle cx="23620" cy="11328" r="413.386" /> 
<circle cx="23620" cy="10328" r="413.386" /> 
<circle cx="24620" cy="11328" r="413.386" /> 
<circle cx="24620" cy="10328" r="413.386" /> 
<circle cx="25620" cy="11328" r="413.386" /> 
<circle cx="25620" cy="10328" r="413.386" /> 
<circle cx="26620" cy="11328" r="413.386" /> 
<circle cx="26620" cy="10328" r="413.386" /> 
<circle cx="27620" cy="11328" r="413.386" /> 
<circle cx="27620" cy="10328" r="413.386" /> 
<circle cx="28620" cy="11328" r="413.386" /> 
<circle cx="28620" cy="10328" r="413.386" /> 
<circle cx="29620" cy="11328" r="413.386" /> 
<circle cx="29620" cy="10328" r="413.386" /> 
<circle cx="30620" cy="11328" r="413.386" /> 
<circle cx="30620" cy="10328" r="413.386" /> 
<circle cx="31620" cy="11328" r="413.386" /> 
<circle cx="31620" cy="10328" r="413.386" /> 
</g>
<g >
</g>
<g style="fill:#000000; fill-opacity:1.0; 
stroke:#000000; stroke-width:0; stroke-opacity:1; 
stroke-linecap:round; stroke-linejoin:round;">
<circle cx="33483.9" cy="30119.2" r="669.291" /> 
</g>
<g style="fill:#000000; fill-opacity:1.0; 
stroke:#000000; stroke-width:39.3701; stroke-opacity:1; 
stroke-linecap:round; stroke-linejoin:round;">
</g>
<g >
</g>
<g style="fill:#000000; fill-opacity:1.0; 
stroke:#000000; stroke-width:39.3701; stroke-opacity:1; 
stroke-linecap:round; stroke-linejoin:round;">
</g>
<g style="fill:#000000; fill-opacity:1.0; 
stroke:#000000; stroke-width:0; stroke-opacity:1; 
stroke-linecap:round; stroke-linejoin:round;">
<circle cx="10893.2" cy="30543.2" r="669.291" /> 
</g>
<g style="fill:#000000; fill-opacity:1.0; 
stroke:#000000; stroke-width:39.3701; stroke-opacity:1; 
stroke-linecap:round; stroke-linejoin:round;">
</g>
<g >
</g>
<g style="fill:#000000; fill-opacity:1.0; 
stroke:#000000; stroke-width:39.3701; stroke-opacity:1; 
stroke-linecap:round; stroke-linejoin:round;">
</g>
<g style="fill:#000000; fill-opacity:1.0; 
stroke:#000000; stroke-width:0; stroke-opacity:1; 
stroke-linecap:round; stroke-linejoin:round;">
<circle cx="10893.2" cy="30543.2" r="669.291" /> 
</g>
<g style="fill:#000000; fill-opacity:1.0; 
stroke:#000000; stroke-width:39.3701; stroke-opacity:1; 
stroke-linecap:round; stroke-linejoin:round;">
</g>
<g >
</g>
<g style="fill:#000000; fill-opacity:1.0; 
stroke:#000000; stroke-width:39.3701; stroke-opacity:1; 
stroke-linecap:round; stroke-linejoin:round;">
</g>
<g style="fill:#000000; fill-opacity:1.0; 
stroke:#000000; stroke-width:0; stroke-opacity:1; 
stroke-linecap:round; stroke-linejoin:round;">
<circle cx="10893.2" cy="30543.2" r="669.291" /> 
</g>
<g style="fill:#000000; fill-opacity:1.0; 
stroke:#000000; stroke-width:39.3701; stroke-opacity:1; 
stroke-linecap:round; stroke-linejoin:round;">
</g>
<g >
</g>
<g style="fill:#000000; fill-opacity:1.0; 
stroke:#000000; stroke-width:39.3701; stroke-opacity:1; 
stroke-linecap:round; stroke-linejoin:round;">
</g>
<g style="fill:#000000; fill-opacity:1.0; 
stroke:#000000; stroke-width:0; stroke-opacity:1; 
stroke-linecap:round; stroke-linejoin:round;">
<circle cx="10893.2" cy="30543.2" r="669.291" /> 
</g>
<g style="fill:#000000; fill-opacity:1.0; 
stroke:#000000; stroke-width:39.3701; stroke-opacity:1; 
stroke-linecap:round; stroke-linejoin:round;">
</g>
<g >
</g>
<g style="fill:#000000; fill-opacity:1.0; 
stroke:#000000; stroke-width:39.3701; stroke-opacity:1; 
stroke-linecap:round; stroke-linejoin:round;">
</g>
<g style="fill:#000000; fill-opacity:1.0; 
stroke:#000000; stroke-width:0; stroke-opacity:1; 
stroke-linecap:round; stroke-linejoin:round;">
<circle cx="33493.9" cy="10829.2" r="669.291" /> 
</g>
<g style="fill:#000000; fill-opacity:1.0; 
stroke:#000000; stroke-width:39.3701; stroke-opacity:1; 
stroke-linecap:round; stroke-linejoin:round;">
</g>
<g >
</g>
<g style="fill:#000000; fill-opacity:1.0; 
stroke:#000000; stroke-width:39.3701; stroke-opacity:1; 
stroke-linecap:round; stroke-linejoin:round;">
</g>
<g style="fill:#000000; fill-opacity:1.0; 
stroke:#000000; stroke-width:0; stroke-opacity:1; 
stroke-linecap:round; stroke-linejoin:round;">
<circle cx="10653.2" cy="10833.2" r="669.291" /> 
</g>
<g style="fill:#000000; fill-opacity:1.0; 
stroke:#000000; stroke-width:39.3701; stroke-opacity:1; 
stroke-linecap:round; stroke-linejoin:round;">
</g>
<g >
</g>
<g style="fill:#000000; fill-opacity:1.0; 
stroke:#000000; stroke-width:39.3701; stroke-opacity:1; 
stroke-linecap:round; stroke-linejoin:round;">
</g>
<g style="fill:#000000; fill-opacity:1.0; 
stroke:#000000; stroke-width:0; stroke-opacity:1; 
stroke-linecap:round; stroke-linejoin:round;">
<path style="fill:#000000; fill-opacity:1.0; 
stroke:#000000; stroke-width:0; stroke-opacity:1; 
stroke-linecap:round; stroke-linejoin:round;fill-rule:evenodd;"
d="M 21157.8,33787.5
21165.4,33788.6
21172.9,33790.5
21180.2,33793.1
21187.2,33796.4
21193.8,33800.4
21200,33805
21205.7,33810.2
21210.9,33815.9
21215.5,33822.1
21219.5,33828.7
21222.8,33835.7
21225.4,33843
21227.3,33850.5
21228.4,33858.1
21228.8,33865.9
21228.8,34456.4
21228.4,34464.1
21227.3,34471.8
21225.4,34479.3
21222.8,34486.5
21219.5,34493.5
21215.5,34500.1
21210.9,34506.4
21205.7,34512.1
21200,34517.3
21193.8,34521.9
21187.2,34525.8
21180.2,34529.1
21172.9,34531.8
21165.4,34533.6
21157.8,34534.8
21150.1,34535.1
20657.9,34535.1
20650.2,34534.8
20642.6,34533.6
20635.1,34531.8
20627.8,34529.1
20620.8,34525.8
20614.2,34521.9
20608,34517.3
20602.3,34512.1
20597.1,34506.4
20592.5,34500.1
20588.5,34493.5
20585.2,34486.5
20582.6,34479.3
20580.7,34471.8
20579.6,34464.1
20579.2,34456.4
20579.2,33865.9
20579.6,33858.1
20580.7,33850.5
20582.6,33843
20585.2,33835.7
20588.5,33828.7
20592.5,33822.1
20597.1,33815.9
20602.3,33810.2
20608,33805
20614.2,33800.4
20620.8,33796.4
20627.8,33793.1
20635.1,33790.5
20642.6,33788.6
20650.2,33787.5
20657.9,33787.1
21150.1,33787.1
Z" /> 
<path style="fill:#000000; fill-opacity:1.0; 
stroke:#000000; stroke-width:0; stroke-opacity:1; 
stroke-linecap:round; stroke-linejoin:round;fill-rule:evenodd;"
d="M 21157.8,32803.2
21165.4,32804.4
21172.9,32806.2
21180.2,32808.9
21187.2,32812.2
21193.8,32816.1
21200,32820.7
21205.7,32825.9
21210.9,32831.6
21215.5,32837.9
21219.5,32844.5
21222.8,32851.5
21225.4,32858.7
21227.3,32866.2
21228.4,32873.9
21228.8,32881.6
21228.8,33472.1
21228.4,33479.9
21227.3,33487.5
21225.4,33495
21222.8,33502.3
21219.5,33509.3
21215.5,33515.9
21210.9,33522.1
21205.7,33527.8
21200,33533
21193.8,33537.6
21187.2,33541.6
21180.2,33544.9
21172.9,33547.5
21165.4,33549.4
21157.8,33550.5
21150.1,33550.9
20657.9,33550.9
20650.2,33550.5
20642.6,33549.4
20635.1,33547.5
20627.8,33544.9
20620.8,33541.6
20614.2,33537.6
20608,33533
20602.3,33527.8
20597.1,33522.1
20592.5,33515.9
20588.5,33509.3
20585.2,33502.3
20582.6,33495
20580.7,33487.5
20579.6,33479.9
20579.2,33472.1
20579.2,32881.6
20579.6,32873.9
20580.7,32866.2
20582.6,32858.7
20585.2,32851.5
20588.5,32844.5
20592.5,32837.9
20597.1,32831.6
20602.3,32825.9
20608,32820.7
20614.2,32816.1
20620.8,32812.2
20627.8,32808.9
20635.1,32806.2
20642.6,32804.4
20650.2,32803.2
20657.9,32802.9
21150.1,32802.9
Z" /> 
</g>
<g >
</g>
<g style="fill:#000000; fill-opacity:1.0; 
stroke:#000000; stroke-width:0; stroke-opacity:1; 
stroke-linecap:round; stroke-linejoin:round;">
<path style="fill:#000000; fill-opacity:1.0; 
stroke:#000000; stroke-width:0; stroke-opacity:1; 
stroke-linecap:round; stroke-linejoin:round;fill-rule:evenodd;"
d="M 22607.8,33787.5
22615.4,33788.6
22622.9,33790.5
22630.2,33793.1
22637.2,33796.4
22643.8,33800.4
22650,33805
22655.7,33810.2
22660.9,33815.9
22665.5,33822.1
22669.5,33828.7
22672.8,33835.7
22675.4,33843
22677.3,33850.5
22678.4,33858.1
22678.8,33865.9
22678.8,34456.4
22678.4,34464.1
22677.3,34471.8
22675.4,34479.3
22672.8,34486.5
22669.5,34493.5
22665.5,34500.1
22660.9,34506.4
22655.7,34512.1
22650,34517.3
22643.8,34521.9
22637.2,34525.8
22630.2,34529.1
22622.9,34531.8
22615.4,34533.6
22607.8,34534.8
22600.1,34535.1
22107.9,34535.1
22100.2,34534.8
22092.6,34533.6
22085.1,34531.8
22077.8,34529.1
22070.8,34525.8
22064.2,34521.9
22058,34517.3
22052.3,34512.1
22047.1,34506.4
22042.5,34500.1
22038.5,34493.5
22035.2,34486.5
22032.6,34479.3
22030.7,34471.8
22029.6,34464.1
22029.2,34456.4
22029.2,33865.9
22029.6,33858.1
22030.7,33850.5
22032.6,33843
22035.2,33835.7
22038.5,33828.7
22042.5,33822.1
22047.1,33815.9
22052.3,33810.2
22058,33805
22064.2,33800.4
22070.8,33796.4
22077.8,33793.1
22085.1,33790.5
22092.6,33788.6
22100.2,33787.5
22107.9,33787.1
22600.1,33787.1
Z" /> 
<path style="fill:#000000; fill-opacity:1.0; 
stroke:#000000; stroke-width:0; stroke-opacity:1; 
stroke-linecap:round; stroke-linejoin:round;fill-rule:evenodd;"
d="M 22607.8,32803.2
22615.4,32804.4
22622.9,32806.2
22630.2,32808.9
22637.2,32812.2
22643.8,32816.1
22650,32820.7
22655.7,32825.9
22660.9,32831.6
22665.5,32837.9
22669.5,32844.5
22672.8,32851.5
22675.4,32858.7
22677.3,32866.2
22678.4,32873.9
22678.8,32881.6
22678.8,33472.1
22678.4,33479.9
22677.3,33487.5
22675.4,33495
22672.8,33502.3
22669.5,33509.3
22665.5,33515.9
22660.9,33522.1
22655.7,33527.8
22650,33533
22643.8,33537.6
22637.2,33541.6
22630.2,33544.9
22622.9,33547.5
22615.4,33549.4
22607.8,33550.5
22600.1,33550.9
22107.9,33550.9
22100.2,33550.5
22092.6,33549.4
22085.1,33547.5
22077.8,33544.9
22070.8,33541.6
22064.2,33537.6
22058,33533
22052.3,33527.8
22047.1,33522.1
22042.5,33515.9
22038.5,33509.3
22035.2,33502.3
22032.6,33495
22030.7,33487.5
22029.6,33479.9
22029.2,33472.1
22029.2,32881.6
22029.6,32873.9
22030.7,32866.2
22032.6,32858.7
22035.2,32851.5
22038.5,32844.5
22042.5,32837.9
22047.1,32831.6
22052.3,32825.9
22058,32820.7
22064.2,32816.1
22070.8,32812.2
22077.8,32808.9
22085.1,32806.2
22092.6,32804.4
22100.2,32803.2
22107.9,32802.9
22600.1,32802.9
Z" /> 
</g>
<g >
</g>
<g style="fill:#000000; fill-opacity:1.0; 
stroke:#000000; stroke-width:0; stroke-opacity:1; 
stroke-linecap:round; stroke-linejoin:round;">
<path style="fill:#000000; fill-opacity:1.0; 
stroke:#000000; stroke-width:0; stroke-opacity:1; 
stroke-linecap:round; stroke-linejoin:round;fill-rule:evenodd;"
d="M 16387.8,24807.5
16395.4,24808.6
16402.9,24810.5
16410.2,24813.1
16417.2,24816.4
16423.8,24820.4
16430,24825
16435.7,24830.2
16440.9,24835.9
16445.5,24842.1
16449.5,24848.7
16452.8,24855.7
16455.4,24863
16457.3,24870.5
16458.4,24878.1
16458.8,24885.9
16458.8,25476.4
16458.4,25484.1
16457.3,25491.8
16455.4,25499.3
16452.8,25506.5
16449.5,25513.5
16445.5,25520.1
16440.9,25526.4
16435.7,25532.1
16430,25537.3
16423.8,25541.9
16417.2,25545.8
16410.2,25549.1
16402.9,25551.8
16395.4,25553.6
16387.8,25554.8
16380.1,25555.1
15887.9,25555.1
15880.2,25554.8
15872.6,25553.6
15865.1,25551.8
15857.8,25549.1
15850.8,25545.8
15844.2,25541.9
15838,25537.3
15832.3,25532.1
15827.1,25526.4
15822.5,25520.1
15818.5,25513.5
15815.2,25506.5
15812.6,25499.3
15810.7,25491.8
15809.6,25484.1
15809.2,25476.4
15809.2,24885.9
15809.6,24878.1
15810.7,24870.5
15812.6,24863
15815.2,24855.7
15818.5,24848.7
15822.5,24842.1
15827.1,24835.9
15832.3,24830.2
15838,24825
15844.2,24820.4
15850.8,24816.4
15857.8,24813.1
15865.1,24810.5
15872.6,24808.6
15880.2,24807.5
15887.9,24807.1
16380.1,24807.1
Z" /> 
<path style="fill:#000000; fill-opacity:1.0; 
stroke:#000000; stroke-width:0; stroke-opacity:1; 
stroke-linecap:round; stroke-linejoin:round;fill-rule:evenodd;"
d="M 16387.8,23823.2
16395.4,23824.4
16402.9,23826.2
16410.2,23828.9
16417.2,23832.2
16423.8,23836.1
16430,23840.7
16435.7,23845.9
16440.9,23851.6
16445.5,23857.9
16449.5,23864.5
16452.8,23871.5
16455.4,23878.7
16457.3,23886.2
16458.4,23893.9
16458.8,23901.6
16458.8,24492.1
16458.4,24499.9
16457.3,24507.5
16455.4,24515
16452.8,24522.3
16449.5,24529.3
16445.5,24535.9
16440.9,24542.1
16435.7,24547.8
16430,24553
16423.8,24557.6
16417.2,24561.6
16410.2,24564.9
16402.9,24567.5
16395.4,24569.4
16387.8,24570.5
16380.1,24570.9
15887.9,24570.9
15880.2,24570.5
15872.6,24569.4
15865.1,24567.5
15857.8,24564.9
15850.8,24561.6
15844.2,24557.6
15838,24553
15832.3,24547.8
15827.1,24542.1
15822.5,24535.9
15818.5,24529.3
15815.2,24522.3
15812.6,24515
15810.7,24507.5
15809.6,24499.9
15809.2,24492.1
15809.2,23901.6
15809.6,23893.9
15810.7,23886.2
15812.6,23878.7
15815.2,23871.5
15818.5,23864.5
15822.5,23857.9
15827.1,23851.6
15832.3,23845.9
15838,23840.7
15844.2,23836.1
15850.8,23832.2
15857.8,23828.9
15865.1,23826.2
15872.6,23824.4
15880.2,23823.2
15887.9,23822.9
16380.1,23822.9
Z" /> 
</g>
<g >
</g>
<g style="fill:#000000; fill-opacity:1.0; 
stroke:#000000; stroke-width:0; stroke-opacity:1; 
stroke-linecap:round; stroke-linejoin:round;">
<path style="fill:#000000; fill-opacity:1.0; 
stroke:#000000; stroke-width:0; stroke-opacity:1; 
stroke-linecap:round; stroke-linejoin:round;fill-rule:evenodd;"
d="M 16387.8,39637.5
16395.4,39638.6
16402.9,39640.5
16410.2,39643.1
16417.2,39646.4
16423.8,39650.4
16430,39655
16435.7,39660.2
16440.9,39665.9
16445.5,39672.1
16449.5,39678.7
16452.8,39685.7
16455.4,39693
16457.3,39700.5
16458.4,39708.1
16458.8,39715.9
16458.8,40306.4
16458.4,40314.1
16457.3,40321.8
16455.4,40329.3
16452.8,40336.5
16449.5,40343.5
16445.5,40350.1
16440.9,40356.4
16435.7,40362.1
16430,40367.3
16423.8,40371.9
16417.2,40375.8
16410.2,40379.1
16402.9,40381.8
16395.4,40383.6
16387.8,40384.8
16380.1,40385.1
15887.9,40385.1
15880.2,40384.8
15872.6,40383.6
15865.1,40381.8
15857.8,40379.1
15850.8,40375.8
15844.2,40371.9
15838,40367.3
15832.3,40362.1
15827.1,40356.4
15822.5,40350.1
15818.5,40343.5
15815.2,40336.5
15812.6,40329.3
15810.7,40321.8
15809.6,40314.1
15809.2,40306.4
15809.2,39715.9
15809.6,39708.1
15810.7,39700.5
15812.6,39693
15815.2,39685.7
15818.5,39678.7
15822.5,39672.1
15827.1,39665.9
15832.3,39660.2
15838,39655
15844.2,39650.4
15850.8,39646.4
15857.8,39643.1
15865.1,39640.5
15872.6,39638.6
15880.2,39637.5
15887.9,39637.1
16380.1,39637.1
Z" /> 
<path style="fill:#000000; fill-opacity:1.0; 
stroke:#000000; stroke-width:0; stroke-opacity:1; 
stroke-linecap:round; stroke-linejoin:round;fill-rule:evenodd;"
d="M 16387.8,38653.2
16395.4,38654.4
16402.9,38656.2
16410.2,38658.9
16417.2,38662.2
16423.8,38666.1
16430,38670.7
16435.7,38675.9
16440.9,38681.6
16445.5,38687.9
16449.5,38694.5
16452.8,38701.5
16455.4,38708.7
16457.3,38716.2
16458.4,38723.9
16458.8,38731.6
16458.8,39322.1
16458.4,39329.9
16457.3,39337.5
16455.4,39345
16452.8,39352.3
16449.5,39359.3
16445.5,39365.9
16440.9,39372.1
16435.7,39377.8
16430,39383
16423.8,39387.6
16417.2,39391.6
16410.2,39394.9
16402.9,39397.5
16395.4,39399.4
16387.8,39400.5
16380.1,39400.9
15887.9,39400.9
15880.2,39400.5
15872.6,39399.4
15865.1,39397.5
15857.8,39394.9
15850.8,39391.6
15844.2,39387.6
15838,39383
15832.3,39377.8
15827.1,39372.1
15822.5,39365.9
15818.5,39359.3
15815.2,39352.3
15812.6,39345
15810.7,39337.5
15809.6,39329.9
15809.2,39322.1
15809.2,38731.6
15809.6,38723.9
15810.7,38716.2
15812.6,38708.7
15815.2,38701.5
15818.5,38694.5
15822.5,38687.9
15827.1,38681.6
15832.3,38675.9
15838,38670.7
15844.2,38666.1
15850.8,38662.2
15857.8,38658.9
15865.1,38656.2
15872.6,38654.4
15880.2,38653.2
15887.9,38652.9
16380.1,38652.9
Z" /> 
</g>
<g >
</g>
<g style="fill:#000000; fill-opacity:1.0; 
stroke:#000000; stroke-width:0; stroke-opacity:1; 
stroke-linecap:round; stroke-linejoin:round;">
<path style="fill:#000000; fill-opacity:1.0; 
stroke:#000000; stroke-width:0; stroke-opacity:1; 
stroke-linecap:round; stroke-linejoin:round;fill-rule:evenodd;"
d="M 17419.1,26134.6
17426.8,26135.7
17434.3,26137.6
17441.5,26140.2
17448.5,26143.5
17455.1,26147.5
17461.4,26152.1
17467.1,26157.3
17472.3,26163
17476.9,26169.2
17480.8,26175.8
17484.1,26182.8
17486.8,26190.1
17488.6,26197.6
17489.8,26205.2
17490.1,26212.9
17490.1,26705.1
17489.8,26712.8
17488.6,26720.4
17486.8,26727.9
17484.1,26735.2
17480.8,26742.2
17476.9,26748.8
17472.3,26755
17467.1,26760.7
17461.4,26765.9
17455.1,26770.5
17448.5,26774.5
17441.5,26777.8
17434.3,26780.4
17426.8,26782.3
17419.1,26783.4
17411.4,26783.8
16820.9,26783.8
16813.1,26783.4
16805.5,26782.3
16798,26780.4
16790.7,26777.8
16783.7,26774.5
16777.1,26770.5
16770.9,26765.9
16765.2,26760.7
16760,26755
16755.4,26748.8
16751.4,26742.2
16748.1,26735.2
16745.5,26727.9
16743.6,26720.4
16742.5,26712.8
16742.1,26705.1
16742.1,26212.9
16742.5,26205.2
16743.6,26197.6
16745.5,26190.1
16748.1,26182.8
16751.4,26175.8
16755.4,26169.2
16760,26163
16765.2,26157.3
16770.9,26152.1
16777.1,26147.5
16783.7,26143.5
16790.7,26140.2
16798,26137.6
16805.5,26135.7
16813.1,26134.6
16820.9,26134.2
17411.4,26134.2
Z" /> 
<path style="fill:#000000; fill-opacity:1.0; 
stroke:#000000; stroke-width:0; stroke-opacity:1; 
stroke-linecap:round; stroke-linejoin:round;fill-rule:evenodd;"
d="M 16434.9,26134.6
16442.5,26135.7
16450,26137.6
16457.3,26140.2
16464.3,26143.5
16470.9,26147.5
16477.1,26152.1
16482.8,26157.3
16488,26163
16492.6,26169.2
16496.6,26175.8
16499.9,26182.8
16502.5,26190.1
16504.4,26197.6
16505.5,26205.2
16505.9,26212.9
16505.9,26705.1
16505.5,26712.8
16504.4,26720.4
16502.5,26727.9
16499.9,26735.2
16496.6,26742.2
16492.6,26748.8
16488,26755
16482.8,26760.7
16477.1,26765.9
16470.9,26770.5
16464.3,26774.5
16457.3,26777.8
16450,26780.4
16442.5,26782.3
16434.9,26783.4
16427.1,26783.8
15836.6,26783.8
15828.9,26783.4
15821.2,26782.3
15813.7,26780.4
15806.5,26777.8
15799.5,26774.5
15792.9,26770.5
15786.6,26765.9
15780.9,26760.7
15775.7,26755
15771.1,26748.8
15767.2,26742.2
15763.9,26735.2
15761.2,26727.9
15759.4,26720.4
15758.2,26712.8
15757.9,26705.1
15757.9,26212.9
15758.2,26205.2
15759.4,26197.6
15761.2,26190.1
15763.9,26182.8
15767.2,26175.8
15771.1,26169.2
15775.7,26163
15780.9,26157.3
15786.6,26152.1
15792.9,26147.5
15799.5,26143.5
15806.5,26140.2
15813.7,26137.6
15821.2,26135.7
15828.9,26134.6
15836.6,26134.2
16427.1,26134.2
Z" /> 
</g>
<g >
</g>
<g style="fill:#000000; fill-opacity:1.0; 
stroke:#000000; stroke-width:0; stroke-opacity:1; 
stroke-linecap:round; stroke-linejoin:round;">
<path style="fill:#000000; fill-opacity:1.0; 
stroke:#000000; stroke-width:0; stroke-opacity:1; 
stroke-linecap:round; stroke-linejoin:round;fill-rule:evenodd;"
d="M 17419.1,37094.6
17426.8,37095.7
17434.3,37097.6
17441.5,37100.2
17448.5,37103.5
17455.1,37107.5
17461.4,37112.1
17467.1,37117.3
17472.3,37123
17476.9,37129.2
17480.8,37135.8
17484.1,37142.8
17486.8,37150.1
17488.6,37157.6
17489.8,37165.2
17490.1,37172.9
17490.1,37665.1
17489.8,37672.8
17488.6,37680.4
17486.8,37687.9
17484.1,37695.2
17480.8,37702.2
17476.9,37708.8
17472.3,37715
17467.1,37720.7
17461.4,37725.9
17455.1,37730.5
17448.5,37734.5
17441.5,37737.8
17434.3,37740.4
17426.8,37742.3
17419.1,37743.4
17411.4,37743.8
16820.9,37743.8
16813.1,37743.4
16805.5,37742.3
16798,37740.4
16790.7,37737.8
16783.7,37734.5
16777.1,37730.5
16770.9,37725.9
16765.2,37720.7
16760,37715
16755.4,37708.8
16751.4,37702.2
16748.1,37695.2
16745.5,37687.9
16743.6,37680.4
16742.5,37672.8
16742.1,37665.1
16742.1,37172.9
16742.5,37165.2
16743.6,37157.6
16745.5,37150.1
16748.1,37142.8
16751.4,37135.8
16755.4,37129.2
16760,37123
16765.2,37117.3
16770.9,37112.1
16777.1,37107.5
16783.7,37103.5
16790.7,37100.2
16798,37097.6
16805.5,37095.7
16813.1,37094.6
16820.9,37094.2
17411.4,37094.2
Z" /> 
<path style="fill:#000000; fill-opacity:1.0; 
stroke:#000000; stroke-width:0; stroke-opacity:1; 
stroke-linecap:round; stroke-linejoin:round;fill-rule:evenodd;"
d="M 16434.9,37094.6
16442.5,37095.7
16450,37097.6
16457.3,37100.2
16464.3,37103.5
16470.9,37107.5
16477.1,37112.1
16482.8,37117.3
16488,37123
16492.6,37129.2
16496.6,37135.8
16499.9,37142.8
16502.5,37150.1
16504.4,37157.6
16505.5,37165.2
16505.9,37172.9
16505.9,37665.1
16505.5,37672.8
16504.4,37680.4
16502.5,37687.9
16499.9,37695.2
16496.6,37702.2
16492.6,37708.8
16488,37715
16482.8,37720.7
16477.1,37725.9
16470.9,37730.5
16464.3,37734.5
16457.3,37737.8
16450,37740.4
16442.5,37742.3
16434.9,37743.4
16427.1,37743.8
15836.6,37743.8
15828.9,37743.4
15821.2,37742.3
15813.7,37740.4
15806.5,37737.8
15799.5,37734.5
15792.9,37730.5
15786.6,37725.9
15780.9,37720.7
15775.7,37715
15771.1,37708.8
15767.2,37702.2
15763.9,37695.2
15761.2,37687.9
15759.4,37680.4
15758.2,37672.8
15757.9,37665.1
15757.9,37172.9
15758.2,37165.2
15759.4,37157.6
15761.2,37150.1
15763.9,37142.8
15767.2,37135.8
15771.1,37129.2
15775.7,37123
15780.9,37117.3
15786.6,37112.1
15792.9,37107.5
15799.5,37103.5
15806.5,37100.2
15813.7,37097.6
15821.2,37095.7
15828.9,37094.6
15836.6,37094.2
16427.1,37094.2
Z" /> 
</g>
<g >
</g>
<g style="fill:#000000; fill-opacity:1.0; 
stroke:#000000; stroke-width:0; stroke-opacity:1; 
stroke-linecap:round; stroke-linejoin:round;">
<path style="fill:#000000; fill-opacity:1.0; 
stroke:#000000; stroke-width:0; stroke-opacity:1; 
stroke-linecap:round; stroke-linejoin:round;fill-rule:evenodd;"
d="M 17409.1,16514.6
17416.8,16515.7
17424.3,16517.6
17431.5,16520.2
17438.5,16523.5
17445.1,16527.5
17451.4,16532.1
17457.1,16537.3
17462.3,16543
17466.9,16549.2
17470.8,16555.8
17474.1,16562.8
17476.8,16570.1
17478.6,16577.6
17479.8,16585.2
17480.1,16592.9
17480.1,17085.1
17479.8,17092.8
17478.6,17100.4
17476.8,17107.9
17474.1,17115.2
17470.8,17122.2
17466.9,17128.8
17462.3,17135
17457.1,17140.7
17451.4,17145.9
17445.1,17150.5
17438.5,17154.5
17431.5,17157.8
17424.3,17160.4
17416.8,17162.3
17409.1,17163.4
17401.4,17163.8
16810.9,17163.8
16803.1,17163.4
16795.5,17162.3
16788,17160.4
16780.7,17157.8
16773.7,17154.5
16767.1,17150.5
16760.9,17145.9
16755.2,17140.7
16750,17135
16745.4,17128.8
16741.4,17122.2
16738.1,17115.2
16735.5,17107.9
16733.6,17100.4
16732.5,17092.8
16732.1,17085.1
16732.1,16592.9
16732.5,16585.2
16733.6,16577.6
16735.5,16570.1
16738.1,16562.8
16741.4,16555.8
16745.4,16549.2
16750,16543
16755.2,16537.3
16760.9,16532.1
16767.1,16527.5
16773.7,16523.5
16780.7,16520.2
16788,16517.6
16795.5,16515.7
16803.1,16514.6
16810.9,16514.2
17401.4,16514.2
Z" /> 
<path style="fill:#000000; fill-opacity:1.0; 
stroke:#000000; stroke-width:0; stroke-opacity:1; 
stroke-linecap:round; stroke-linejoin:round;fill-rule:evenodd;"
d="M 16424.9,16514.6
16432.5,16515.7
16440,16517.6
16447.3,16520.2
16454.3,16523.5
16460.9,16527.5
16467.1,16532.1
16472.8,16537.3
16478,16543
16482.6,16549.2
16486.6,16555.8
16489.9,16562.8
16492.5,16570.1
16494.4,16577.6
16495.5,16585.2
16495.9,16592.9
16495.9,17085.1
16495.5,17092.8
16494.4,17100.4
16492.5,17107.9
16489.9,17115.2
16486.6,17122.2
16482.6,17128.8
16478,17135
16472.8,17140.7
16467.1,17145.9
16460.9,17150.5
16454.3,17154.5
16447.3,17157.8
16440,17160.4
16432.5,17162.3
16424.9,17163.4
16417.1,17163.8
15826.6,17163.8
15818.9,17163.4
15811.2,17162.3
15803.7,17160.4
15796.5,17157.8
15789.5,17154.5
15782.9,17150.5
15776.6,17145.9
15770.9,17140.7
15765.7,17135
15761.1,17128.8
15757.2,17122.2
15753.9,17115.2
15751.2,17107.9
15749.4,17100.4
15748.2,17092.8
15747.9,17085.1
15747.9,16592.9
15748.2,16585.2
15749.4,16577.6
15751.2,16570.1
15753.9,16562.8
15757.2,16555.8
15761.1,16549.2
15765.7,16543
15770.9,16537.3
15776.6,16532.1
15782.9,16527.5
15789.5,16523.5
15796.5,16520.2
15803.7,16517.6
15811.2,16515.7
15818.9,16514.6
15826.6,16514.2
16417.1,16514.2
Z" /> 
</g>
<g >
</g>
<g style="fill:#000000; fill-opacity:1.0; 
stroke:#000000; stroke-width:0; stroke-opacity:1; 
stroke-linecap:round; stroke-linejoin:round;">
<path style="fill:#000000; fill-opacity:1.0; 
stroke:#000000; stroke-width:0; stroke-opacity:1; 
stroke-linecap:round; stroke-linejoin:round;fill-rule:evenodd;"
d="M 32520.8,20859.2
32528.4,20860.4
32535.9,20862.2
32543.2,20864.9
32550.2,20868.2
32556.8,20872.1
32563,20876.7
32568.7,20881.9
32573.9,20887.6
32578.5,20893.9
32582.5,20900.5
32585.8,20907.5
32588.4,20914.7
32590.3,20922.2
32591.4,20929.9
32591.8,20937.6
32591.8,21528.1
32591.4,21535.9
32590.3,21543.5
32588.4,21551
32585.8,21558.3
32582.5,21565.3
32578.5,21571.9
32573.9,21578.1
32568.7,21583.8
32563,21589
32556.8,21593.6
32550.2,21597.6
32543.2,21600.9
32535.9,21603.5
32528.4,21605.4
32520.8,21606.5
32513.1,21606.9
32020.9,21606.9
32013.2,21606.5
32005.6,21605.4
31998.1,21603.5
31990.8,21600.9
31983.8,21597.6
31977.2,21593.6
31971,21589
31965.3,21583.8
31960.1,21578.1
31955.5,21571.9
31951.5,21565.3
31948.2,21558.3
31945.6,21551
31943.7,21543.5
31942.6,21535.9
31942.2,21528.1
31942.2,20937.6
31942.6,20929.9
31943.7,20922.2
31945.6,20914.7
31948.2,20907.5
31951.5,20900.5
31955.5,20893.9
31960.1,20887.6
31965.3,20881.9
31971,20876.7
31977.2,20872.1
31983.8,20868.2
31990.8,20864.9
31998.1,20862.2
32005.6,20860.4
32013.2,20859.2
32020.9,20858.9
32513.1,20858.9
Z" /> 
<path style="fill:#000000; fill-opacity:1.0; 
stroke:#000000; stroke-width:0; stroke-opacity:1; 
stroke-linecap:round; stroke-linejoin:round;fill-rule:evenodd;"
d="M 32520.8,21843.5
32528.4,21844.6
32535.9,21846.5
32543.2,21849.1
32550.2,21852.4
32556.8,21856.4
32563,21861
32568.7,21866.2
32573.9,21871.9
32578.5,21878.1
32582.5,21884.7
32585.8,21891.7
32588.4,21899
32590.3,21906.5
32591.4,21914.1
32591.8,21921.9
32591.8,22512.4
32591.4,22520.1
32590.3,22527.8
32588.4,22535.3
32585.8,22542.5
32582.5,22549.5
32578.5,22556.1
32573.9,22562.4
32568.7,22568.1
32563,22573.3
32556.8,22577.9
32550.2,22581.8
32543.2,22585.1
32535.9,22587.8
32528.4,22589.6
32520.8,22590.8
32513.1,22591.1
32020.9,22591.1
32013.2,22590.8
32005.6,22589.6
31998.1,22587.8
31990.8,22585.1
31983.8,22581.8
31977.2,22577.9
31971,22573.3
31965.3,22568.1
31960.1,22562.4
31955.5,22556.1
31951.5,22549.5
31948.2,22542.5
31945.6,22535.3
31943.7,22527.8
31942.6,22520.1
31942.2,22512.4
31942.2,21921.9
31942.6,21914.1
31943.7,21906.5
31945.6,21899
31948.2,21891.7
31951.5,21884.7
31955.5,21878.1
31960.1,21871.9
31965.3,21866.2
31971,21861
31977.2,21856.4
31983.8,21852.4
31990.8,21849.1
31998.1,21846.5
32005.6,21844.6
32013.2,21843.5
32020.9,21843.1
32513.1,21843.1
Z" /> 
</g>
<g >
</g>
<g style="fill:#000000; fill-opacity:1.0; 
stroke:#000000; stroke-width:0; stroke-opacity:1; 
stroke-linecap:round; stroke-linejoin:round;">
<path style="fill:#000000; fill-opacity:1.0; 
stroke:#000000; stroke-width:0; stroke-opacity:1; 
stroke-linecap:round; stroke-linejoin:round;fill-rule:evenodd;"
d="M 16387.8,13037.5
16395.4,13038.6
16402.9,13040.5
16410.2,13043.1
16417.2,13046.4
16423.8,13050.4
16430,13055
16435.7,13060.2
16440.9,13065.9
16445.5,13072.1
16449.5,13078.7
16452.8,13085.7
16455.4,13093
16457.3,13100.5
16458.4,13108.1
16458.8,13115.9
16458.8,13706.4
16458.4,13714.1
16457.3,13721.8
16455.4,13729.3
16452.8,13736.5
16449.5,13743.5
16445.5,13750.1
16440.9,13756.4
16435.7,13762.1
16430,13767.3
16423.8,13771.9
16417.2,13775.8
16410.2,13779.1
16402.9,13781.8
16395.4,13783.6
16387.8,13784.8
16380.1,13785.1
15887.9,13785.1
15880.2,13784.8
15872.6,13783.6
15865.1,13781.8
15857.8,13779.1
15850.8,13775.8
15844.2,13771.9
15838,13767.3
15832.3,13762.1
15827.1,13756.4
15822.5,13750.1
15818.5,13743.5
15815.2,13736.5
15812.6,13729.3
15810.7,13721.8
15809.6,13714.1
15809.2,13706.4
15809.2,13115.9
15809.6,13108.1
15810.7,13100.5
15812.6,13093
15815.2,13085.7
15818.5,13078.7
15822.5,13072.1
15827.1,13065.9
15832.3,13060.2
15838,13055
15844.2,13050.4
15850.8,13046.4
15857.8,13043.1
15865.1,13040.5
15872.6,13038.6
15880.2,13037.5
15887.9,13037.1
16380.1,13037.1
Z" /> 
<path style="fill:#000000; fill-opacity:1.0; 
stroke:#000000; stroke-width:0; stroke-opacity:1; 
stroke-linecap:round; stroke-linejoin:round;fill-rule:evenodd;"
d="M 16387.8,12053.2
16395.4,12054.4
16402.9,12056.2
16410.2,12058.9
16417.2,12062.2
16423.8,12066.1
16430,12070.7
16435.7,12075.9
16440.9,12081.6
16445.5,12087.9
16449.5,12094.5
16452.8,12101.5
16455.4,12108.7
16457.3,12116.2
16458.4,12123.9
16458.8,12131.6
16458.8,12722.1
16458.4,12729.9
16457.3,12737.5
16455.4,12745
16452.8,12752.3
16449.5,12759.3
16445.5,12765.9
16440.9,12772.1
16435.7,12777.8
16430,12783
16423.8,12787.6
16417.2,12791.6
16410.2,12794.9
16402.9,12797.5
16395.4,12799.4
16387.8,12800.5
16380.1,12800.9
15887.9,12800.9
15880.2,12800.5
15872.6,12799.4
15865.1,12797.5
15857.8,12794.9
15850.8,12791.6
15844.2,12787.6
15838,12783
15832.3,12777.8
15827.1,12772.1
15822.5,12765.9
15818.5,12759.3
15815.2,12752.3
15812.6,12745
15810.7,12737.5
15809.6,12729.9
15809.2,12722.1
15809.2,12131.6
15809.6,12123.9
15810.7,12116.2
15812.6,12108.7
15815.2,12101.5
15818.5,12094.5
15822.5,12087.9
15827.1,12081.6
15832.3,12075.9
15838,12070.7
15844.2,12066.1
15850.8,12062.2
15857.8,12058.9
15865.1,12056.2
15872.6,12054.4
15880.2,12053.2
15887.9,12052.9
16380.1,12052.9
Z" /> 
</g>
<g >
</g>
<g style="fill:#000000; fill-opacity:1.0; 
stroke:#000000; stroke-width:0; stroke-opacity:1; 
stroke-linecap:round; stroke-linejoin:round;">
<path style="fill:#000000; fill-opacity:1.0; 
stroke:#000000; stroke-width:0; stroke-opacity:1; 
stroke-linecap:round; stroke-linejoin:round;fill-rule:evenodd;"
d="M 34638.9,35179.9
34646.5,35181
34654,35182.9
34661.3,35185.5
34668.3,35188.8
34674.9,35192.7
34681.1,35197.3
34686.8,35202.5
34692,35208.3
34696.6,35214.5
34700.6,35221.1
34703.9,35228.1
34706.5,35235.4
34708.4,35242.9
34709.5,35250.5
34709.9,35258.2
34709.9,36159.8
34709.5,36167.5
34708.4,36175.1
34706.5,36182.6
34703.9,36189.9
34700.6,36196.9
34696.6,36203.5
34692,36209.7
34686.8,36215.5
34681.1,36220.7
34674.9,36225.3
34668.3,36229.2
34661.3,36232.5
34654,36235.1
34646.5,36237
34638.9,36238.1
34631.2,36238.5
32631.2,36238.5
32623.4,36238.1
32615.8,36237
32608.3,36235.1
32601,36232.5
32594,36229.2
32587.4,36225.3
32581.2,36220.7
32575.5,36215.5
32570.3,36209.7
32565.7,36203.5
32561.7,36196.9
32558.4,36189.9
32555.8,36182.6
32553.9,36175.1
32552.8,36167.5
32552.4,36159.8
32552.4,35258.2
32552.8,35250.5
32553.9,35242.9
32555.8,35235.4
32558.4,35228.1
32561.7,35221.1
32565.7,35214.5
32570.3,35208.3
32575.5,35202.5
32581.2,35197.3
32587.4,35192.7
32594,35188.8
32601,35185.5
32608.3,35182.9
32615.8,35181
32623.4,35179.9
32631.2,35179.5
34631.2,35179.5
Z" /> 
<path style="fill:#000000; fill-opacity:1.0; 
stroke:#000000; stroke-width:0; stroke-opacity:1; 
stroke-linecap:round; stroke-linejoin:round;fill-rule:evenodd;"
d="M 34638.9,36878.7
34646.5,36879.8
34654,36881.7
34661.3,36884.3
34668.3,36887.6
34674.9,36891.6
34681.1,36896.2
34686.8,36901.4
34692,36907.1
34696.6,36913.3
34700.6,36919.9
34703.9,36926.9
34706.5,36934.2
34708.4,36941.7
34709.5,36949.3
34709.9,36957
34709.9,37909.8
34709.5,37917.5
34708.4,37925.1
34706.5,37932.6
34703.9,37939.9
34700.6,37946.9
34696.6,37953.5
34692,37959.7
34686.8,37965.5
34681.1,37970.7
34674.9,37975.3
34668.3,37979.2
34661.3,37982.5
34654,37985.1
34646.5,37987
34638.9,37988.1
34631.2,37988.5
32631.2,37988.5
32623.4,37988.1
32615.8,37987
32608.3,37985.1
32601,37982.5
32594,37979.2
32587.4,37975.3
32581.2,37970.7
32575.5,37965.5
32570.3,37959.7
32565.7,37953.5
32561.7,37946.9
32558.4,37939.9
32555.8,37932.6
32553.9,37925.1
32552.8,37917.5
32552.4,37909.8
32552.4,36957
32552.8,36949.3
32553.9,36941.7
32555.8,36934.2
32558.4,36926.9
32561.7,36919.9
32565.7,36913.3
32570.3,36907.1
32575.5,36901.4
32581.2,36896.2
32587.4,36891.6
32594,36887.6
32601,36884.3
32608.3,36881.7
32615.8,36879.8
32623.4,36878.7
32631.2,36878.3
34631.2,36878.3
Z" /> 
<path style="fill:#000000; fill-opacity:1.0; 
stroke:#000000; stroke-width:0; stroke-opacity:1; 
stroke-linecap:round; stroke-linejoin:round;fill-rule:evenodd;"
d="M 34638.9,33429.9
34646.5,33431
34654,33432.9
34661.3,33435.5
34668.3,33438.8
34674.9,33442.7
34681.1,33447.3
34686.8,33452.5
34692,33458.3
34696.6,33464.5
34700.6,33471.1
34703.9,33478.1
34706.5,33485.4
34708.4,33492.9
34709.5,33500.5
34709.9,33508.2
34709.9,34461
34709.5,34468.7
34708.4,34476.3
34706.5,34483.8
34703.9,34491.1
34700.6,34498.1
34696.6,34504.7
34692,34510.9
34686.8,34516.6
34681.1,34521.8
34674.9,34526.4
34668.3,34530.4
34661.3,34533.7
34654,34536.3
34646.5,34538.2
34638.9,34539.3
34631.2,34539.7
32631.2,34539.7
32623.4,34539.3
32615.8,34538.2
32608.3,34536.3
32601,34533.7
32594,34530.4
32587.4,34526.4
32581.2,34521.8
32575.5,34516.6
32570.3,34510.9
32565.7,34504.7
32561.7,34498.1
32558.4,34491.1
32555.8,34483.8
32553.9,34476.3
32552.8,34468.7
32552.4,34461
32552.4,33508.2
32552.8,33500.5
32553.9,33492.9
32555.8,33485.4
32558.4,33478.1
32561.7,33471.1
32565.7,33464.5
32570.3,33458.3
32575.5,33452.5
32581.2,33447.3
32587.4,33442.7
32594,33438.8
32601,33435.5
32608.3,33432.9
32615.8,33431
32623.4,33429.9
32631.2,33429.5
34631.2,33429.5
Z" /> 
</g>
<g >
</g>
<g style="fill:#000000; fill-opacity:1.0; 
stroke:#000000; stroke-width:0; stroke-opacity:1; 
stroke-linecap:round; stroke-linejoin:round;">
<path style="fill:#000000; fill-opacity:1.0; 
stroke:#000000; stroke-width:0; stroke-opacity:1; 
stroke-linecap:round; stroke-linejoin:round;fill-rule:evenodd;"
d="M 34197.4,21724
34205,21725.1
34212.5,21727
34219.8,21729.6
34226.8,21732.9
34233.4,21736.9
34239.6,21741.5
34245.3,21746.7
34250.5,21752.4
34255.1,21758.6
34259.1,21765.2
34262.4,21772.2
34265,21779.5
34266.9,21787
34268,21794.6
34268.4,21802.4
34268.4,22471.6
34268,22479.4
34266.9,22487
34265,22494.5
34262.4,22501.8
34259.1,22508.8
34255.1,22515.4
34250.5,22521.6
34245.3,22527.3
34239.6,22532.5
34233.4,22537.1
34226.8,22541.1
34219.8,22544.4
34212.5,22547
34205,22548.9
34197.4,22550
34189.6,22550.4
33520.4,22550.4
33512.6,22550
33505,22548.9
33497.5,22547
33490.2,22544.4
33483.2,22541.1
33476.6,22537.1
33470.4,22532.5
33464.7,22527.3
33459.5,22521.6
33454.9,22515.4
33450.9,22508.8
33447.6,22501.8
33445,22494.5
33443.1,22487
33442,22479.4
33441.6,22471.6
33441.6,21802.4
33442,21794.6
33443.1,21787
33445,21779.5
33447.6,21772.2
33450.9,21765.2
33454.9,21758.6
33459.5,21752.4
33464.7,21746.7
33470.4,21741.5
33476.6,21736.9
33483.2,21732.9
33490.2,21729.6
33497.5,21727
33505,21725.1
33512.6,21724
33520.4,21723.6
34189.6,21723.6
Z" /> 
<circle cx="33855" cy="21137" r="413.386" /> 
<circle cx="33855" cy="20137" r="413.386" /> 
<circle cx="33855" cy="19137" r="413.386" /> 
</g>
<g >
</g>
<g style="fill:#000000; fill-opacity:1.0; 
stroke:#000000; stroke-width:0; stroke-opacity:1; 
stroke-linecap:round; stroke-linejoin:round;">
<path style="fill:#000000; fill-opacity:1.0; 
stroke:#000000; stroke-width:0; stroke-opacity:1; 
stroke-linecap:round; stroke-linejoin:round;fill-rule:evenodd;"
d="M 17498.5,32844.7
17506.1,32845.9
17513.6,32847.7
17520.9,32850.3
17527.9,32853.7
17534.5,32857.6
17540.7,32862.2
17546.4,32867.4
17551.6,32873.1
17556.2,32879.3
17560.2,32886
17563.5,32893
17566.1,32900.2
17568,32907.7
17569.1,32915.4
17569.5,32923.1
17569.5,33434.9
17569.1,33442.6
17568,33450.3
17566.1,33457.8
17563.5,33465
17560.2,33472
17556.2,33478.7
17551.6,33484.9
17546.4,33490.6
17540.7,33495.8
17534.5,33500.4
17527.9,33504.3
17520.9,33507.7
17513.6,33510.3
17506.1,33512.1
17498.5,33513.3
17490.8,33513.6
16900.2,33513.6
16892.5,33513.3
16884.9,33512.1
16877.4,33510.3
16870.1,33507.7
16863.1,33504.3
16856.5,33500.4
16850.3,33495.8
16844.5,33490.6
16839.4,33484.9
16834.8,33478.7
16830.8,33472
16827.5,33465
16824.9,33457.8
16823,33450.3
16821.9,33442.6
16821.5,33434.9
16821.5,32923.1
16821.9,32915.4
16823,32907.7
16824.9,32900.2
16827.5,32893
16830.8,32886
16834.8,32879.3
16839.4,32873.1
16844.5,32867.4
16850.3,32862.2
16856.5,32857.6
16863.1,32853.7
16870.1,32850.3
16877.4,32847.7
16884.9,32845.9
16892.5,32844.7
16900.2,32844.4
17490.8,32844.4
Z" /> 
<path style="fill:#000000; fill-opacity:1.0; 
stroke:#000000; stroke-width:0; stroke-opacity:1; 
stroke-linecap:round; stroke-linejoin:round;fill-rule:evenodd;"
d="M 16435.5,32844.7
16443.1,32845.9
16450.6,32847.7
16457.9,32850.3
16464.9,32853.7
16471.5,32857.6
16477.7,32862.2
16483.5,32867.4
16488.6,32873.1
16493.2,32879.3
16497.2,32886
16500.5,32893
16503.1,32900.2
16505,32907.7
16506.1,32915.4
16506.5,32923.1
16506.5,33434.9
16506.1,33442.6
16505,33450.3
16503.1,33457.8
16500.5,33465
16497.2,33472
16493.2,33478.7
16488.6,33484.9
16483.5,33490.6
16477.7,33495.8
16471.5,33500.4
16464.9,33504.3
16457.9,33507.7
16450.6,33510.3
16443.1,33512.1
16435.5,33513.3
16427.8,33513.6
15837.2,33513.6
15829.5,33513.3
15821.9,33512.1
15814.4,33510.3
15807.1,33507.7
15800.1,33504.3
15793.5,33500.4
15787.3,33495.8
15781.6,33490.6
15776.4,33484.9
15771.8,33478.7
15767.8,33472
15764.5,33465
15761.9,33457.8
15760,33450.3
15758.9,33442.6
15758.5,33434.9
15758.5,32923.1
15758.9,32915.4
15760,32907.7
15761.9,32900.2
15764.5,32893
15767.8,32886
15771.8,32879.3
15776.4,32873.1
15781.6,32867.4
15787.3,32862.2
15793.5,32857.6
15800.1,32853.7
15807.1,32850.3
15814.4,32847.7
15821.9,32845.9
15829.5,32844.7
15837.2,32844.4
16427.8,32844.4
Z" /> 
</g>
<g >
</g>
<g style="fill:#000000; fill-opacity:1.0; 
stroke:#000000; stroke-width:0; stroke-opacity:1; 
stroke-linecap:round; stroke-linejoin:round;">
<path style="fill:#000000; fill-opacity:1.0; 
stroke:#000000; stroke-width:0; stroke-opacity:1; 
stroke-linecap:round; stroke-linejoin:round;fill-rule:evenodd;"
d="M 16397.6,28506.9
16405.3,28508
16412.8,28509.9
16420,28512.5
16427,28515.8
16433.7,28519.8
16439.9,28524.4
16445.6,28529.5
16450.8,28535.3
16455.4,28541.5
16459.3,28548.1
16462.7,28555.1
16465.3,28562.4
16467.1,28569.9
16468.3,28577.5
16468.6,28585.2
16468.6,29175.8
16468.3,29183.5
16467.1,29191.1
16465.3,29198.6
16462.7,29205.9
16459.3,29212.9
16455.4,29219.5
16450.8,29225.7
16445.6,29231.4
16439.9,29236.6
16433.7,29241.2
16427,29245.2
16420,29248.5
16412.8,29251.1
16405.3,29253
16397.6,29254.1
16389.9,29254.5
15878.1,29254.5
15870.4,29254.1
15862.7,29253
15855.2,29251.1
15848,29248.5
15841,29245.2
15834.3,29241.2
15828.1,29236.6
15822.4,29231.4
15817.2,29225.7
15812.6,29219.5
15808.7,29212.9
15805.3,29205.9
15802.7,29198.6
15800.9,29191.1
15799.7,29183.5
15799.4,29175.8
15799.4,28585.2
15799.7,28577.5
15800.9,28569.9
15802.7,28562.4
15805.3,28555.1
15808.7,28548.1
15812.6,28541.5
15817.2,28535.3
15822.4,28529.5
15828.1,28524.4
15834.3,28519.8
15841,28515.8
15848,28512.5
15855.2,28509.9
15862.7,28508
15870.4,28506.9
15878.1,28506.5
16389.9,28506.5
Z" /> 
<path style="fill:#000000; fill-opacity:1.0; 
stroke:#000000; stroke-width:0; stroke-opacity:1; 
stroke-linecap:round; stroke-linejoin:round;fill-rule:evenodd;"
d="M 16397.6,27443.9
16405.3,27445
16412.8,27446.9
16420,27449.5
16427,27452.8
16433.7,27456.8
16439.9,27461.4
16445.6,27466.6
16450.8,27472.3
16455.4,27478.5
16459.3,27485.1
16462.7,27492.1
16465.3,27499.4
16467.1,27506.9
16468.3,27514.5
16468.6,27522.2
16468.6,28112.8
16468.3,28120.5
16467.1,28128.1
16465.3,28135.6
16462.7,28142.9
16459.3,28149.9
16455.4,28156.5
16450.8,28162.7
16445.6,28168.5
16439.9,28173.6
16433.7,28178.2
16427,28182.2
16420,28185.5
16412.8,28188.1
16405.3,28190
16397.6,28191.1
16389.9,28191.5
15878.1,28191.5
15870.4,28191.1
15862.7,28190
15855.2,28188.1
15848,28185.5
15841,28182.2
15834.3,28178.2
15828.1,28173.6
15822.4,28168.5
15817.2,28162.7
15812.6,28156.5
15808.7,28149.9
15805.3,28142.9
15802.7,28135.6
15800.9,28128.1
15799.7,28120.5
15799.4,28112.8
15799.4,27522.2
15799.7,27514.5
15800.9,27506.9
15802.7,27499.4
15805.3,27492.1
15808.7,27485.1
15812.6,27478.5
15817.2,27472.3
15822.4,27466.6
15828.1,27461.4
15834.3,27456.8
15841,27452.8
15848,27449.5
15855.2,27446.9
15862.7,27445
15870.4,27443.9
15878.1,27443.5
16389.9,27443.5
Z" /> 
</g>
<g >
</g>
<g style="fill:#000000; fill-opacity:1.0; 
stroke:#000000; stroke-width:0; stroke-opacity:1; 
stroke-linecap:round; stroke-linejoin:round;">
<path style="fill:#000000; fill-opacity:1.0; 
stroke:#000000; stroke-width:0; stroke-opacity:1; 
stroke-linecap:round; stroke-linejoin:round;fill-rule:evenodd;"
d="M 16397.6,35476.9
16405.3,35478
16412.8,35479.9
16420,35482.5
16427,35485.8
16433.7,35489.8
16439.9,35494.4
16445.6,35499.5
16450.8,35505.3
16455.4,35511.5
16459.3,35518.1
16462.7,35525.1
16465.3,35532.4
16467.1,35539.9
16468.3,35547.5
16468.6,35555.2
16468.6,36145.8
16468.3,36153.5
16467.1,36161.1
16465.3,36168.6
16462.7,36175.9
16459.3,36182.9
16455.4,36189.5
16450.8,36195.7
16445.6,36201.4
16439.9,36206.6
16433.7,36211.2
16427,36215.2
16420,36218.5
16412.8,36221.1
16405.3,36223
16397.6,36224.1
16389.9,36224.5
15878.1,36224.5
15870.4,36224.1
15862.7,36223
15855.2,36221.1
15848,36218.5
15841,36215.2
15834.3,36211.2
15828.1,36206.6
15822.4,36201.4
15817.2,36195.7
15812.6,36189.5
15808.7,36182.9
15805.3,36175.9
15802.7,36168.6
15800.9,36161.1
15799.7,36153.5
15799.4,36145.8
15799.4,35555.2
15799.7,35547.5
15800.9,35539.9
15802.7,35532.4
15805.3,35525.1
15808.7,35518.1
15812.6,35511.5
15817.2,35505.3
15822.4,35499.5
15828.1,35494.4
15834.3,35489.8
15841,35485.8
15848,35482.5
15855.2,35479.9
15862.7,35478
15870.4,35476.9
15878.1,35476.5
16389.9,35476.5
Z" /> 
<path style="fill:#000000; fill-opacity:1.0; 
stroke:#000000; stroke-width:0; stroke-opacity:1; 
stroke-linecap:round; stroke-linejoin:round;fill-rule:evenodd;"
d="M 16397.6,34413.9
16405.3,34415
16412.8,34416.9
16420,34419.5
16427,34422.8
16433.7,34426.8
16439.9,34431.4
16445.6,34436.6
16450.8,34442.3
16455.4,34448.5
16459.3,34455.1
16462.7,34462.1
16465.3,34469.4
16467.1,34476.9
16468.3,34484.5
16468.6,34492.2
16468.6,35082.8
16468.3,35090.5
16467.1,35098.1
16465.3,35105.6
16462.7,35112.9
16459.3,35119.9
16455.4,35126.5
16450.8,35132.7
16445.6,35138.5
16439.9,35143.6
16433.7,35148.2
16427,35152.2
16420,35155.5
16412.8,35158.1
16405.3,35160
16397.6,35161.1
16389.9,35161.5
15878.1,35161.5
15870.4,35161.1
15862.7,35160
15855.2,35158.1
15848,35155.5
15841,35152.2
15834.3,35148.2
15828.1,35143.6
15822.4,35138.5
15817.2,35132.7
15812.6,35126.5
15808.7,35119.9
15805.3,35112.9
15802.7,35105.6
15800.9,35098.1
15799.7,35090.5
15799.4,35082.8
15799.4,34492.2
15799.7,34484.5
15800.9,34476.9
15802.7,34469.4
15805.3,34462.1
15808.7,34455.1
15812.6,34448.5
15817.2,34442.3
15822.4,34436.6
15828.1,34431.4
15834.3,34426.8
15841,34422.8
15848,34419.5
15855.2,34416.9
15862.7,34415
15870.4,34413.9
15878.1,34413.5
16389.9,34413.5
Z" /> 
</g>
<g >
</g>
<g style="fill:#000000; fill-opacity:1.0; 
stroke:#000000; stroke-width:0; stroke-opacity:1; 
stroke-linecap:round; stroke-linejoin:round;">
<path style="fill:#000000; fill-opacity:1.0; 
stroke:#000000; stroke-width:0; stroke-opacity:1; 
stroke-linecap:round; stroke-linejoin:round;fill-rule:evenodd;"
d="M 16397.6,14203.9
16405.3,14205
16412.8,14206.9
16420,14209.5
16427,14212.8
16433.7,14216.8
16439.9,14221.4
16445.6,14226.6
16450.8,14232.3
16455.4,14238.5
16459.3,14245.1
16462.7,14252.1
16465.3,14259.4
16467.1,14266.9
16468.3,14274.5
16468.6,14282.2
16468.6,14872.8
16468.3,14880.5
16467.1,14888.1
16465.3,14895.6
16462.7,14902.9
16459.3,14909.9
16455.4,14916.5
16450.8,14922.7
16445.6,14928.5
16439.9,14933.6
16433.7,14938.2
16427,14942.2
16420,14945.5
16412.8,14948.1
16405.3,14950
16397.6,14951.1
16389.9,14951.5
15878.1,14951.5
15870.4,14951.1
15862.7,14950
15855.2,14948.1
15848,14945.5
15841,14942.2
15834.3,14938.2
15828.1,14933.6
15822.4,14928.5
15817.2,14922.7
15812.6,14916.5
15808.7,14909.9
15805.3,14902.9
15802.7,14895.6
15800.9,14888.1
15799.7,14880.5
15799.4,14872.8
15799.4,14282.2
15799.7,14274.5
15800.9,14266.9
15802.7,14259.4
15805.3,14252.1
15808.7,14245.1
15812.6,14238.5
15817.2,14232.3
15822.4,14226.6
15828.1,14221.4
15834.3,14216.8
15841,14212.8
15848,14209.5
15855.2,14206.9
15862.7,14205
15870.4,14203.9
15878.1,14203.5
16389.9,14203.5
Z" /> 
<path style="fill:#000000; fill-opacity:1.0; 
stroke:#000000; stroke-width:0; stroke-opacity:1; 
stroke-linecap:round; stroke-linejoin:round;fill-rule:evenodd;"
d="M 16397.6,15266.9
16405.3,15268
16412.8,15269.9
16420,15272.5
16427,15275.8
16433.7,15279.8
16439.9,15284.4
16445.6,15289.5
16450.8,15295.3
16455.4,15301.5
16459.3,15308.1
16462.7,15315.1
16465.3,15322.4
16467.1,15329.9
16468.3,15337.5
16468.6,15345.2
16468.6,15935.8
16468.3,15943.5
16467.1,15951.1
16465.3,15958.6
16462.7,15965.9
16459.3,15972.9
16455.4,15979.5
16450.8,15985.7
16445.6,15991.4
16439.9,15996.6
16433.7,16001.2
16427,16005.2
16420,16008.5
16412.8,16011.1
16405.3,16013
16397.6,16014.1
16389.9,16014.5
15878.1,16014.5
15870.4,16014.1
15862.7,16013
15855.2,16011.1
15848,16008.5
15841,16005.2
15834.3,16001.2
15828.1,15996.6
15822.4,15991.4
15817.2,15985.7
15812.6,15979.5
15808.7,15972.9
15805.3,15965.9
15802.7,15958.6
15800.9,15951.1
15799.7,15943.5
15799.4,15935.8
15799.4,15345.2
15799.7,15337.5
15800.9,15329.9
15802.7,15322.4
15805.3,15315.1
15808.7,15308.1
15812.6,15301.5
15817.2,15295.3
15822.4,15289.5
15828.1,15284.4
15834.3,15279.8
15841,15275.8
15848,15272.5
15855.2,15269.9
15862.7,15268
15870.4,15266.9
15878.1,15266.5
16389.9,15266.5
Z" /> 
</g>
<g >
</g>
<g style="fill:#000000; fill-opacity:1.0; 
stroke:#000000; stroke-width:0; stroke-opacity:1; 
stroke-linecap:round; stroke-linejoin:round;">
<path style="fill:#000000; fill-opacity:1.0; 
stroke:#000000; stroke-width:0; stroke-opacity:1; 
stroke-linecap:round; stroke-linejoin:round;fill-rule:evenodd;"
d="M 16397.6,21383.9
16405.3,21385
16412.8,21386.9
16420,21389.5
16427,21392.8
16433.7,21396.8
16439.9,21401.4
16445.6,21406.6
16450.8,21412.3
16455.4,21418.5
16459.3,21425.1
16462.7,21432.1
16465.3,21439.4
16467.1,21446.9
16468.3,21454.5
16468.6,21462.2
16468.6,22052.8
16468.3,22060.5
16467.1,22068.1
16465.3,22075.6
16462.7,22082.9
16459.3,22089.9
16455.4,22096.5
16450.8,22102.7
16445.6,22108.5
16439.9,22113.6
16433.7,22118.2
16427,22122.2
16420,22125.5
16412.8,22128.1
16405.3,22130
16397.6,22131.1
16389.9,22131.5
15878.1,22131.5
15870.4,22131.1
15862.7,22130
15855.2,22128.1
15848,22125.5
15841,22122.2
15834.3,22118.2
15828.1,22113.6
15822.4,22108.5
15817.2,22102.7
15812.6,22096.5
15808.7,22089.9
15805.3,22082.9
15802.7,22075.6
15800.9,22068.1
15799.7,22060.5
15799.4,22052.8
15799.4,21462.2
15799.7,21454.5
15800.9,21446.9
15802.7,21439.4
15805.3,21432.1
15808.7,21425.1
15812.6,21418.5
15817.2,21412.3
15822.4,21406.6
15828.1,21401.4
15834.3,21396.8
15841,21392.8
15848,21389.5
15855.2,21386.9
15862.7,21385
15870.4,21383.9
15878.1,21383.5
16389.9,21383.5
Z" /> 
<path style="fill:#000000; fill-opacity:1.0; 
stroke:#000000; stroke-width:0; stroke-opacity:1; 
stroke-linecap:round; stroke-linejoin:round;fill-rule:evenodd;"
d="M 16397.6,22446.9
16405.3,22448
16412.8,22449.9
16420,22452.5
16427,22455.8
16433.7,22459.8
16439.9,22464.4
16445.6,22469.5
16450.8,22475.3
16455.4,22481.5
16459.3,22488.1
16462.7,22495.1
16465.3,22502.4
16467.1,22509.9
16468.3,22517.5
16468.6,22525.2
16468.6,23115.8
16468.3,23123.5
16467.1,23131.1
16465.3,23138.6
16462.7,23145.9
16459.3,23152.9
16455.4,23159.5
16450.8,23165.7
16445.6,23171.4
16439.9,23176.6
16433.7,23181.2
16427,23185.2
16420,23188.5
16412.8,23191.1
16405.3,23193
16397.6,23194.1
16389.9,23194.5
15878.1,23194.5
15870.4,23194.1
15862.7,23193
15855.2,23191.1
15848,23188.5
15841,23185.2
15834.3,23181.2
15828.1,23176.6
15822.4,23171.4
15817.2,23165.7
15812.6,23159.5
15808.7,23152.9
15805.3,23145.9
15802.7,23138.6
15800.9,23131.1
15799.7,23123.5
15799.4,23115.8
15799.4,22525.2
15799.7,22517.5
15800.9,22509.9
15802.7,22502.4
15805.3,22495.1
15808.7,22488.1
15812.6,22481.5
15817.2,22475.3
15822.4,22469.5
15828.1,22464.4
15834.3,22459.8
15841,22455.8
15848,22452.5
15855.2,22449.9
15862.7,22448
15870.4,22446.9
15878.1,22446.5
16389.9,22446.5
Z" /> 
</g>
<g >
</g>
<g style="fill:#000000; fill-opacity:1.0; 
stroke:#000000; stroke-width:0; stroke-opacity:1; 
stroke-linecap:round; stroke-linejoin:round;">
<path style="fill:#000000; fill-opacity:1.0; 
stroke:#000000; stroke-width:0; stroke-opacity:1; 
stroke-linecap:round; stroke-linejoin:round;fill-rule:evenodd;"
d="M 16435.5,20084.7
16443.1,20085.9
16450.6,20087.7
16457.9,20090.3
16464.9,20093.7
16471.5,20097.6
16477.7,20102.2
16483.5,20107.4
16488.6,20113.1
16493.2,20119.3
16497.2,20126
16500.5,20133
16503.1,20140.2
16505,20147.7
16506.1,20155.4
16506.5,20163.1
16506.5,20674.9
16506.1,20682.6
16505,20690.3
16503.1,20697.8
16500.5,20705
16497.2,20712
16493.2,20718.7
16488.6,20724.9
16483.5,20730.6
16477.7,20735.8
16471.5,20740.4
16464.9,20744.3
16457.9,20747.7
16450.6,20750.3
16443.1,20752.1
16435.5,20753.3
16427.8,20753.6
15837.2,20753.6
15829.5,20753.3
15821.9,20752.1
15814.4,20750.3
15807.1,20747.7
15800.1,20744.3
15793.5,20740.4
15787.3,20735.8
15781.6,20730.6
15776.4,20724.9
15771.8,20718.7
15767.8,20712
15764.5,20705
15761.9,20697.8
15760,20690.3
15758.9,20682.6
15758.5,20674.9
15758.5,20163.1
15758.9,20155.4
15760,20147.7
15761.9,20140.2
15764.5,20133
15767.8,20126
15771.8,20119.3
15776.4,20113.1
15781.6,20107.4
15787.3,20102.2
15793.5,20097.6
15800.1,20093.7
15807.1,20090.3
15814.4,20087.7
15821.9,20085.9
15829.5,20084.7
15837.2,20084.4
16427.8,20084.4
Z" /> 
<path style="fill:#000000; fill-opacity:1.0; 
stroke:#000000; stroke-width:0; stroke-opacity:1; 
stroke-linecap:round; stroke-linejoin:round;fill-rule:evenodd;"
d="M 17498.5,20084.7
17506.1,20085.9
17513.6,20087.7
17520.9,20090.3
17527.9,20093.7
17534.5,20097.6
17540.7,20102.2
17546.4,20107.4
17551.6,20113.1
17556.2,20119.3
17560.2,20126
17563.5,20133
17566.1,20140.2
17568,20147.7
17569.1,20155.4
17569.5,20163.1
17569.5,20674.9
17569.1,20682.6
17568,20690.3
17566.1,20697.8
17563.5,20705
17560.2,20712
17556.2,20718.7
17551.6,20724.9
17546.4,20730.6
17540.7,20735.8
17534.5,20740.4
17527.9,20744.3
17520.9,20747.7
17513.6,20750.3
17506.1,20752.1
17498.5,20753.3
17490.8,20753.6
16900.2,20753.6
16892.5,20753.3
16884.9,20752.1
16877.4,20750.3
16870.1,20747.7
16863.1,20744.3
16856.5,20740.4
16850.3,20735.8
16844.5,20730.6
16839.4,20724.9
16834.8,20718.7
16830.8,20712
16827.5,20705
16824.9,20697.8
16823,20690.3
16821.9,20682.6
16821.5,20674.9
16821.5,20163.1
16821.9,20155.4
16823,20147.7
16824.9,20140.2
16827.5,20133
16830.8,20126
16834.8,20119.3
16839.4,20113.1
16844.5,20107.4
16850.3,20102.2
16856.5,20097.6
16863.1,20093.7
16870.1,20090.3
16877.4,20087.7
16884.9,20085.9
16892.5,20084.7
16900.2,20084.4
17490.8,20084.4
Z" /> 
</g>
<g >
</g>
<g style="fill:#000000; fill-opacity:1.0; 
stroke:#000000; stroke-width:0; stroke-opacity:1; 
stroke-linecap:round; stroke-linejoin:round;">
<path style="fill:#000000; fill-opacity:1.0; 
stroke:#000000; stroke-width:0; stroke-opacity:1; 
stroke-linecap:round; stroke-linejoin:round;fill-rule:evenodd;"
d="M 16397.6,17693.9
16405.3,17695
16412.8,17696.9
16420,17699.5
16427,17702.8
16433.7,17706.8
16439.9,17711.4
16445.6,17716.6
16450.8,17722.3
16455.4,17728.5
16459.3,17735.1
16462.7,17742.1
16465.3,17749.4
16467.1,17756.9
16468.3,17764.5
16468.6,17772.2
16468.6,18362.8
16468.3,18370.5
16467.1,18378.1
16465.3,18385.6
16462.7,18392.9
16459.3,18399.9
16455.4,18406.5
16450.8,18412.7
16445.6,18418.5
16439.9,18423.6
16433.7,18428.2
16427,18432.2
16420,18435.5
16412.8,18438.1
16405.3,18440
16397.6,18441.1
16389.9,18441.5
15878.1,18441.5
15870.4,18441.1
15862.7,18440
15855.2,18438.1
15848,18435.5
15841,18432.2
15834.3,18428.2
15828.1,18423.6
15822.4,18418.5
15817.2,18412.7
15812.6,18406.5
15808.7,18399.9
15805.3,18392.9
15802.7,18385.6
15800.9,18378.1
15799.7,18370.5
15799.4,18362.8
15799.4,17772.2
15799.7,17764.5
15800.9,17756.9
15802.7,17749.4
15805.3,17742.1
15808.7,17735.1
15812.6,17728.5
15817.2,17722.3
15822.4,17716.6
15828.1,17711.4
15834.3,17706.8
15841,17702.8
15848,17699.5
15855.2,17696.9
15862.7,17695
15870.4,17693.9
15878.1,17693.5
16389.9,17693.5
Z" /> 
<path style="fill:#000000; fill-opacity:1.0; 
stroke:#000000; stroke-width:0; stroke-opacity:1; 
stroke-linecap:round; stroke-linejoin:round;fill-rule:evenodd;"
d="M 16397.6,18756.9
16405.3,18758
16412.8,18759.9
16420,18762.5
16427,18765.8
16433.7,18769.8
16439.9,18774.4
16445.6,18779.5
16450.8,18785.3
16455.4,18791.5
16459.3,18798.1
16462.7,18805.1
16465.3,18812.4
16467.1,18819.9
16468.3,18827.5
16468.6,18835.2
16468.6,19425.8
16468.3,19433.5
16467.1,19441.1
16465.3,19448.6
16462.7,19455.9
16459.3,19462.9
16455.4,19469.5
16450.8,19475.7
16445.6,19481.4
16439.9,19486.6
16433.7,19491.2
16427,19495.2
16420,19498.5
16412.8,19501.1
16405.3,19503
16397.6,19504.1
16389.9,19504.5
15878.1,19504.5
15870.4,19504.1
15862.7,19503
15855.2,19501.1
15848,19498.5
15841,19495.2
15834.3,19491.2
15828.1,19486.6
15822.4,19481.4
15817.2,19475.7
15812.6,19469.5
15808.7,19462.9
15805.3,19455.9
15802.7,19448.6
15800.9,19441.1
15799.7,19433.5
15799.4,19425.8
15799.4,18835.2
15799.7,18827.5
15800.9,18819.9
15802.7,18812.4
15805.3,18805.1
15808.7,18798.1
15812.6,18791.5
15817.2,18785.3
15822.4,18779.5
15828.1,18774.4
15834.3,18769.8
15841,18765.8
15848,18762.5
15855.2,18759.9
15862.7,18758
15870.4,18756.9
15878.1,18756.5
16389.9,18756.5
Z" /> 
</g>
<g >
</g>
<g style="fill:#000000; fill-opacity:1.0; 
stroke:#000000; stroke-width:0; stroke-opacity:1; 
stroke-linecap:round; stroke-linejoin:round;">
<path style="fill:#000000; fill-opacity:1.0; 
stroke:#000000; stroke-width:0; stroke-opacity:1; 
stroke-linecap:round; stroke-linejoin:round;fill-rule:evenodd;"
d="M 16624.3,30113.2
16632,30114.4
16639.5,30116.2
16646.7,30118.9
16653.7,30122.2
16660.3,30126.1
16666.6,30130.7
16672.3,30135.9
16677.5,30141.6
16682.1,30147.9
16686,30154.5
16689.3,30161.5
16691.9,30168.7
16693.8,30176.2
16695,30183.9
16695.3,30191.6
16695.3,30585.3
16695,30593
16693.8,30600.7
16691.9,30608.2
16689.3,30615.4
16686,30622.4
16682.1,30629
16677.5,30635.3
16672.3,30641
16666.6,30646.2
16660.3,30650.8
16653.7,30654.7
16646.7,30658
16639.5,30660.6
16632,30662.5
16624.3,30663.7
16616.6,30664
15632.3,30664
15624.6,30663.7
15617,30662.5
15609.5,30660.6
15602.2,30658
15595.2,30654.7
15588.6,30650.8
15582.4,30646.2
15576.7,30641
15571.5,30635.3
15566.9,30629
15562.9,30622.4
15559.6,30615.4
15557,30608.2
15555.1,30600.7
15554,30593
15553.6,30585.3
15553.6,30191.6
15554,30183.9
15555.1,30176.2
15557,30168.7
15559.6,30161.5
15562.9,30154.5
15566.9,30147.9
15571.5,30141.6
15576.7,30135.9
15582.4,30130.7
15588.6,30126.1
15595.2,30122.2
15602.2,30118.9
15609.5,30116.2
15617,30114.4
15624.6,30113.2
15632.3,30112.9
16616.6,30112.9
Z" /> 
<path style="fill:#000000; fill-opacity:1.0; 
stroke:#000000; stroke-width:0; stroke-opacity:1; 
stroke-linecap:round; stroke-linejoin:round;fill-rule:evenodd;"
d="M 16624.3,30703.8
16632,30704.9
16639.5,30706.8
16646.7,30709.4
16653.7,30712.7
16660.3,30716.7
16666.6,30721.3
16672.3,30726.5
16677.5,30732.2
16682.1,30738.4
16686,30745
16689.3,30752
16691.9,30759.3
16693.8,30766.8
16695,30774.4
16695.3,30782.1
16695.3,31175.9
16695,31183.6
16693.8,31191.2
16691.9,31198.7
16689.3,31206
16686,31213
16682.1,31219.6
16677.5,31225.8
16672.3,31231.5
16666.6,31236.7
16660.3,31241.3
16653.7,31245.3
16646.7,31248.6
16639.5,31251.2
16632,31253.1
16624.3,31254.2
16616.6,31254.6
15632.3,31254.6
15624.6,31254.2
15617,31253.1
15609.5,31251.2
15602.2,31248.6
15595.2,31245.3
15588.6,31241.3
15582.4,31236.7
15576.7,31231.5
15571.5,31225.8
15566.9,31219.6
15562.9,31213
15559.6,31206
15557,31198.7
15555.1,31191.2
15554,31183.6
15553.6,31175.9
15553.6,30782.1
15554,30774.4
15555.1,30766.8
15557,30759.3
15559.6,30752
15562.9,30745
15566.9,30738.4
15571.5,30732.2
15576.7,30726.5
15582.4,30721.3
15588.6,30716.7
15595.2,30712.7
15602.2,30709.4
15609.5,30706.8
15617,30704.9
15624.6,30703.8
15632.3,30703.4
16616.6,30703.4
Z" /> 
<path style="fill:#000000; fill-opacity:1.0; 
stroke:#000000; stroke-width:0; stroke-opacity:1; 
stroke-linecap:round; stroke-linejoin:round;fill-rule:evenodd;"
d="M 16624.3,31294.3
16632,31295.5
16639.5,31297.4
16646.7,31300
16653.7,31303.3
16660.3,31307.2
16666.6,31311.8
16672.3,31317
16677.5,31322.7
16682.1,31329
16686,31335.6
16689.3,31342.6
16691.9,31349.8
16693.8,31357.3
16695,31365
16695.3,31372.7
16695.3,31766.4
16695,31774.1
16693.8,31781.8
16691.9,31789.3
16689.3,31796.5
16686,31803.5
16682.1,31810.1
16677.5,31816.4
16672.3,31822.1
16666.6,31827.3
16660.3,31831.9
16653.7,31835.8
16646.7,31839.1
16639.5,31841.8
16632,31843.6
16624.3,31844.8
16616.6,31845.1
15632.3,31845.1
15624.6,31844.8
15617,31843.6
15609.5,31841.8
15602.2,31839.1
15595.2,31835.8
15588.6,31831.9
15582.4,31827.3
15576.7,31822.1
15571.5,31816.4
15566.9,31810.1
15562.9,31803.5
15559.6,31796.5
15557,31789.3
15555.1,31781.8
15554,31774.1
15553.6,31766.4
15553.6,31372.7
15554,31365
15555.1,31357.3
15557,31349.8
15559.6,31342.6
15562.9,31335.6
15566.9,31329
15571.5,31322.7
15576.7,31317
15582.4,31311.8
15588.6,31307.2
15595.2,31303.3
15602.2,31300
15609.5,31297.4
15617,31295.5
15624.6,31294.3
15632.3,31294
16616.6,31294
Z" /> 
<path style="fill:#000000; fill-opacity:1.0; 
stroke:#000000; stroke-width:0; stroke-opacity:1; 
stroke-linecap:round; stroke-linejoin:round;fill-rule:evenodd;"
d="M 18478.6,30506.9
18486.3,30508.1
18493.8,30509.9
18501.1,30512.6
18508,30515.9
18514.7,30519.8
18520.9,30524.4
18526.6,30529.6
18531.8,30535.3
18536.4,30541.6
18540.4,30548.2
18543.7,30555.2
18546.3,30562.4
18548.2,30569.9
18549.3,30577.6
18549.7,30585.3
18549.7,31372.7
18549.3,31380.4
18548.2,31388.1
18546.3,31395.6
18543.7,31402.8
18540.4,31409.8
18536.4,31416.4
18531.8,31422.7
18526.6,31428.4
18520.9,31433.6
18514.7,31438.2
18508,31442.1
18501.1,31445.4
18493.8,31448.1
18486.3,31449.9
18478.6,31451.1
18470.9,31451.4
16896.1,31451.4
16888.4,31451.1
16880.8,31449.9
16873.3,31448.1
16866,31445.4
16859,31442.1
16852.4,31438.2
16846.2,31433.6
16840.4,31428.4
16835.3,31422.7
16830.7,31416.4
16826.7,31409.8
16823.4,31402.8
16820.8,31395.6
16818.9,31388.1
16817.8,31380.4
16817.4,31372.7
16817.4,30585.3
16817.8,30577.6
16818.9,30569.9
16820.8,30562.4
16823.4,30555.2
16826.7,30548.2
16830.7,30541.6
16835.3,30535.3
16840.4,30529.6
16846.2,30524.4
16852.4,30519.8
16859,30515.9
16866,30512.6
16873.3,30509.9
16880.8,30508.1
16888.4,30506.9
16896.1,30506.6
18470.9,30506.6
Z" /> 
<path style="fill:#000000; fill-opacity:1.0; 
stroke:#000000; stroke-width:0; stroke-opacity:1; 
stroke-linecap:round; stroke-linejoin:round;fill-rule:evenodd;"
d="M 16984.7,31519.8
16532,31218
16532,30740
16984.7,30438.2
Z" /> 
</g>
<g >
</g>
<g style="fill:#000000; fill-opacity:1.0; 
stroke:#000000; stroke-width:0; stroke-opacity:1; 
stroke-linecap:round; stroke-linejoin:round;">
<path style="fill:#000000; fill-opacity:1.0; 
stroke:#000000; stroke-width:0; stroke-opacity:1; 
stroke-linecap:round; stroke-linejoin:round;fill-rule:evenodd;"
d="M 30241.4,20452
30249,20453.1
30256.5,20455
30263.8,20457.6
30270.8,20460.9
30277.4,20464.9
30283.6,20469.5
30289.3,20474.7
30294.5,20480.4
30299.1,20486.6
30303.1,20493.2
30306.4,20500.2
30309,20507.5
30310.9,20515
30312,20522.6
30312.4,20530.4
30312.4,21199.6
30312,21207.4
30310.9,21215
30309,21222.5
30306.4,21229.8
30303.1,21236.8
30299.1,21243.4
30294.5,21249.6
30289.3,21255.3
30283.6,21260.5
30277.4,21265.1
30270.8,21269.1
30263.8,21272.4
30256.5,21275
30249,21276.9
30241.4,21278
30233.6,21278.4
29564.4,21278.4
29556.6,21278
29549,21276.9
29541.5,21275
29534.2,21272.4
29527.2,21269.1
29520.6,21265.1
29514.4,21260.5
29508.7,21255.3
29503.5,21249.6
29498.9,21243.4
29494.9,21236.8
29491.6,21229.8
29489,21222.5
29487.1,21215
29486,21207.4
29485.6,21199.6
29485.6,20530.4
29486,20522.6
29487.1,20515
29489,20507.5
29491.6,20500.2
29494.9,20493.2
29498.9,20486.6
29503.5,20480.4
29508.7,20474.7
29514.4,20469.5
29520.6,20464.9
29527.2,20460.9
29534.2,20457.6
29541.5,20455
29549,20453.1
29556.6,20452
29564.4,20451.6
30233.6,20451.6
Z" /> 
<circle cx="29899" cy="19865" r="413.386" /> 
</g>
<g >
</g>
<g style="fill:#000000; fill-opacity:1.0; 
stroke:#000000; stroke-width:0; stroke-opacity:1; 
stroke-linecap:round; stroke-linejoin:round;">
<path style="fill:#000000; fill-opacity:1.0; 
stroke:#000000; stroke-width:0; stroke-opacity:1; 
stroke-linecap:round; stroke-linejoin:round;fill-rule:evenodd;"
d="M 21841.7,41730.6
21849.4,41731.8
21856.9,41733.7
21864.1,41736.3
21871.1,41739.6
21877.7,41743.5
21884,41748.1
21889.7,41753.3
21894.9,41759
21899.5,41765.3
21903.4,41771.9
21906.7,41778.9
21909.3,41786.1
21911.2,41793.6
21912.4,41801.3
21912.7,41809
21912.7,42359
21912.4,42366.7
21911.2,42374.4
21909.3,42381.9
21906.7,42389.1
21903.4,42396.1
21899.5,42402.7
21894.9,42409
21889.7,42414.7
21884,42419.9
21877.7,42424.5
21871.1,42428.4
21864.1,42431.7
21856.9,42434.3
21849.4,42436.2
21841.7,42437.4
21834,42437.7
21234,42437.7
21226.3,42437.4
21218.6,42436.2
21211.1,42434.3
21203.9,42431.7
21196.9,42428.4
21190.3,42424.5
21184,42419.9
21178.3,42414.7
21173.1,42409
21168.5,42402.7
21164.6,42396.1
21161.3,42389.1
21158.7,42381.9
21156.8,42374.4
21155.6,42366.7
21155.3,42359
21155.3,41809
21155.6,41801.3
21156.8,41793.6
21158.7,41786.1
21161.3,41778.9
21164.6,41771.9
21168.5,41765.3
21173.1,41759
21178.3,41753.3
21184,41748.1
21190.3,41743.5
21196.9,41739.6
21203.9,41736.3
21211.1,41733.7
21218.6,41731.8
21226.3,41730.6
21234,41730.3
21834,41730.3
Z" /> 
<path style="fill:#000000; fill-opacity:1.0; 
stroke:#000000; stroke-width:0; stroke-opacity:1; 
stroke-linecap:round; stroke-linejoin:round;fill-rule:evenodd;"
d="M 21841.7,37580.6
21849.4,37581.8
21856.9,37583.7
21864.1,37586.3
21871.1,37589.6
21877.7,37593.5
21884,37598.1
21889.7,37603.3
21894.9,37609
21899.5,37615.3
21903.4,37621.9
21906.7,37628.9
21909.3,37636.1
21911.2,37643.6
21912.4,37651.3
21912.7,37659
21912.7,38209
21912.4,38216.7
21911.2,38224.4
21909.3,38231.9
21906.7,38239.1
21903.4,38246.1
21899.5,38252.7
21894.9,38259
21889.7,38264.7
21884,38269.9
21877.7,38274.5
21871.1,38278.4
21864.1,38281.7
21856.9,38284.3
21849.4,38286.2
21841.7,38287.4
21834,38287.7
21234,38287.7
21226.3,38287.4
21218.6,38286.2
21211.1,38284.3
21203.9,38281.7
21196.9,38278.4
21190.3,38274.5
21184,38269.9
21178.3,38264.7
21173.1,38259
21168.5,38252.7
21164.6,38246.1
21161.3,38239.1
21158.7,38231.9
21156.8,38224.4
21155.6,38216.7
21155.3,38209
21155.3,37659
21155.6,37651.3
21156.8,37643.6
21158.7,37636.1
21161.3,37628.9
21164.6,37621.9
21168.5,37615.3
21173.1,37609
21178.3,37603.3
21184,37598.1
21190.3,37593.5
21196.9,37589.6
21203.9,37586.3
21211.1,37583.7
21218.6,37581.8
21226.3,37580.6
21234,37580.3
21834,37580.3
Z" /> 
<path style="fill:#000000; fill-opacity:1.0; 
stroke:#000000; stroke-width:0; stroke-opacity:1; 
stroke-linecap:round; stroke-linejoin:round;fill-rule:evenodd;"
d="M 23841.7,41730.6
23849.4,41731.8
23856.9,41733.7
23864.1,41736.3
23871.1,41739.6
23877.7,41743.5
23884,41748.1
23889.7,41753.3
23894.9,41759
23899.5,41765.3
23903.4,41771.9
23906.7,41778.9
23909.3,41786.1
23911.2,41793.6
23912.4,41801.3
23912.7,41809
23912.7,42359
23912.4,42366.7
23911.2,42374.4
23909.3,42381.9
23906.7,42389.1
23903.4,42396.1
23899.5,42402.7
23894.9,42409
23889.7,42414.7
23884,42419.9
23877.7,42424.5
23871.1,42428.4
23864.1,42431.7
23856.9,42434.3
23849.4,42436.2
23841.7,42437.4
23834,42437.7
23234,42437.7
23226.3,42437.4
23218.6,42436.2
23211.1,42434.3
23203.9,42431.7
23196.9,42428.4
23190.3,42424.5
23184,42419.9
23178.3,42414.7
23173.1,42409
23168.5,42402.7
23164.6,42396.1
23161.3,42389.1
23158.7,42381.9
23156.8,42374.4
23155.6,42366.7
23155.3,42359
23155.3,41809
23155.6,41801.3
23156.8,41793.6
23158.7,41786.1
23161.3,41778.9
23164.6,41771.9
23168.5,41765.3
23173.1,41759
23178.3,41753.3
23184,41748.1
23190.3,41743.5
23196.9,41739.6
23203.9,41736.3
23211.1,41733.7
23218.6,41731.8
23226.3,41730.6
23234,41730.3
23834,41730.3
Z" /> 
<path style="fill:#000000; fill-opacity:1.0; 
stroke:#000000; stroke-width:0; stroke-opacity:1; 
stroke-linecap:round; stroke-linejoin:round;fill-rule:evenodd;"
d="M 23841.7,37580.6
23849.4,37581.8
23856.9,37583.7
23864.1,37586.3
23871.1,37589.6
23877.7,37593.5
23884,37598.1
23889.7,37603.3
23894.9,37609
23899.5,37615.3
23903.4,37621.9
23906.7,37628.9
23909.3,37636.1
23911.2,37643.6
23912.4,37651.3
23912.7,37659
23912.7,38209
23912.4,38216.7
23911.2,38224.4
23909.3,38231.9
23906.7,38239.1
23903.4,38246.1
23899.5,38252.7
23894.9,38259
23889.7,38264.7
23884,38269.9
23877.7,38274.5
23871.1,38278.4
23864.1,38281.7
23856.9,38284.3
23849.4,38286.2
23841.7,38287.4
23834,38287.7
23234,38287.7
23226.3,38287.4
23218.6,38286.2
23211.1,38284.3
23203.9,38281.7
23196.9,38278.4
23190.3,38274.5
23184,38269.9
23178.3,38264.7
23173.1,38259
23168.5,38252.7
23164.6,38246.1
23161.3,38239.1
23158.7,38231.9
23156.8,38224.4
23155.6,38216.7
23155.3,38209
23155.3,37659
23155.6,37651.3
23156.8,37643.6
23158.7,37636.1
23161.3,37628.9
23164.6,37621.9
23168.5,37615.3
23173.1,37609
23178.3,37603.3
23184,37598.1
23190.3,37593.5
23196.9,37589.6
23203.9,37586.3
23211.1,37583.7
23218.6,37581.8
23226.3,37580.6
23234,37580.3
23834,37580.3
Z" /> 
<path style="fill:#000000; fill-opacity:1.0; 
stroke:#000000; stroke-width:0; stroke-opacity:1; 
stroke-linecap:round; stroke-linejoin:round;fill-rule:evenodd;"
d="M 25841.7,41730.6
25849.4,41731.8
25856.9,41733.7
25864.1,41736.3
25871.1,41739.6
25877.7,41743.5
25884,41748.1
25889.7,41753.3
25894.9,41759
25899.5,41765.3
25903.4,41771.9
25906.7,41778.9
25909.3,41786.1
25911.2,41793.6
25912.4,41801.3
25912.7,41809
25912.7,42359
25912.4,42366.7
25911.2,42374.4
25909.3,42381.9
25906.7,42389.1
25903.4,42396.1
25899.5,42402.7
25894.9,42409
25889.7,42414.7
25884,42419.9
25877.7,42424.5
25871.1,42428.4
25864.1,42431.7
25856.9,42434.3
25849.4,42436.2
25841.7,42437.4
25834,42437.7
25234,42437.7
25226.3,42437.4
25218.6,42436.2
25211.1,42434.3
25203.9,42431.7
25196.9,42428.4
25190.3,42424.5
25184,42419.9
25178.3,42414.7
25173.1,42409
25168.5,42402.7
25164.6,42396.1
25161.3,42389.1
25158.7,42381.9
25156.8,42374.4
25155.6,42366.7
25155.3,42359
25155.3,41809
25155.6,41801.3
25156.8,41793.6
25158.7,41786.1
25161.3,41778.9
25164.6,41771.9
25168.5,41765.3
25173.1,41759
25178.3,41753.3
25184,41748.1
25190.3,41743.5
25196.9,41739.6
25203.9,41736.3
25211.1,41733.7
25218.6,41731.8
25226.3,41730.6
25234,41730.3
25834,41730.3
Z" /> 
<path style="fill:#000000; fill-opacity:1.0; 
stroke:#000000; stroke-width:0; stroke-opacity:1; 
stroke-linecap:round; stroke-linejoin:round;fill-rule:evenodd;"
d="M 25841.7,37580.6
25849.4,37581.8
25856.9,37583.7
25864.1,37586.3
25871.1,37589.6
25877.7,37593.5
25884,37598.1
25889.7,37603.3
25894.9,37609
25899.5,37615.3
25903.4,37621.9
25906.7,37628.9
25909.3,37636.1
25911.2,37643.6
25912.4,37651.3
25912.7,37659
25912.7,38209
25912.4,38216.7
25911.2,38224.4
25909.3,38231.9
25906.7,38239.1
25903.4,38246.1
25899.5,38252.7
25894.9,38259
25889.7,38264.7
25884,38269.9
25877.7,38274.5
25871.1,38278.4
25864.1,38281.7
25856.9,38284.3
25849.4,38286.2
25841.7,38287.4
25834,38287.7
25234,38287.7
25226.3,38287.4
25218.6,38286.2
25211.1,38284.3
25203.9,38281.7
25196.9,38278.4
25190.3,38274.5
25184,38269.9
25178.3,38264.7
25173.1,38259
25168.5,38252.7
25164.6,38246.1
25161.3,38239.1
25158.7,38231.9
25156.8,38224.4
25155.6,38216.7
25155.3,38209
25155.3,37659
25155.6,37651.3
25156.8,37643.6
25158.7,37636.1
25161.3,37628.9
25164.6,37621.9
25168.5,37615.3
25173.1,37609
25178.3,37603.3
25184,37598.1
25190.3,37593.5
25196.9,37589.6
25203.9,37586.3
25211.1,37583.7
25218.6,37581.8
25226.3,37580.6
25234,37580.3
25834,37580.3
Z" /> 
<path style="fill:#000000; fill-opacity:1.0; 
stroke:#000000; stroke-width:0; stroke-opacity:1; 
stroke-linecap:round; stroke-linejoin:round;fill-rule:evenodd;"
d="M 27841.7,41730.6
27849.4,41731.8
27856.9,41733.7
27864.1,41736.3
27871.1,41739.6
27877.7,41743.5
27884,41748.1
27889.7,41753.3
27894.9,41759
27899.5,41765.3
27903.4,41771.9
27906.7,41778.9
27909.3,41786.1
27911.2,41793.6
27912.4,41801.3
27912.7,41809
27912.7,42359
27912.4,42366.7
27911.2,42374.4
27909.3,42381.9
27906.7,42389.1
27903.4,42396.1
27899.5,42402.7
27894.9,42409
27889.7,42414.7
27884,42419.9
27877.7,42424.5
27871.1,42428.4
27864.1,42431.7
27856.9,42434.3
27849.4,42436.2
27841.7,42437.4
27834,42437.7
27234,42437.7
27226.3,42437.4
27218.6,42436.2
27211.1,42434.3
27203.9,42431.7
27196.9,42428.4
27190.3,42424.5
27184,42419.9
27178.3,42414.7
27173.1,42409
27168.5,42402.7
27164.6,42396.1
27161.3,42389.1
27158.7,42381.9
27156.8,42374.4
27155.6,42366.7
27155.3,42359
27155.3,41809
27155.6,41801.3
27156.8,41793.6
27158.7,41786.1
27161.3,41778.9
27164.6,41771.9
27168.5,41765.3
27173.1,41759
27178.3,41753.3
27184,41748.1
27190.3,41743.5
27196.9,41739.6
27203.9,41736.3
27211.1,41733.7
27218.6,41731.8
27226.3,41730.6
27234,41730.3
27834,41730.3
Z" /> 
<path style="fill:#000000; fill-opacity:1.0; 
stroke:#000000; stroke-width:0; stroke-opacity:1; 
stroke-linecap:round; stroke-linejoin:round;fill-rule:evenodd;"
d="M 27841.7,37580.6
27849.4,37581.8
27856.9,37583.7
27864.1,37586.3
27871.1,37589.6
27877.7,37593.5
27884,37598.1
27889.7,37603.3
27894.9,37609
27899.5,37615.3
27903.4,37621.9
27906.7,37628.9
27909.3,37636.1
27911.2,37643.6
27912.4,37651.3
27912.7,37659
27912.7,38209
27912.4,38216.7
27911.2,38224.4
27909.3,38231.9
27906.7,38239.1
27903.4,38246.1
27899.5,38252.7
27894.9,38259
27889.7,38264.7
27884,38269.9
27877.7,38274.5
27871.1,38278.4
27864.1,38281.7
27856.9,38284.3
27849.4,38286.2
27841.7,38287.4
27834,38287.7
27234,38287.7
27226.3,38287.4
27218.6,38286.2
27211.1,38284.3
27203.9,38281.7
27196.9,38278.4
27190.3,38274.5
27184,38269.9
27178.3,38264.7
27173.1,38259
27168.5,38252.7
27164.6,38246.1
27161.3,38239.1
27158.7,38231.9
27156.8,38224.4
27155.6,38216.7
27155.3,38209
27155.3,37659
27155.6,37651.3
27156.8,37643.6
27158.7,37636.1
27161.3,37628.9
27164.6,37621.9
27168.5,37615.3
27173.1,37609
27178.3,37603.3
27184,37598.1
27190.3,37593.5
27196.9,37589.6
27203.9,37586.3
27211.1,37583.7
27218.6,37581.8
27226.3,37580.6
27234,37580.3
27834,37580.3
Z" /> 
</g>
<g >
</g>
<g style="fill:#000000; fill-opacity:1.0; 
stroke:#000000; stroke-width:0; stroke-opacity:1; 
stroke-linecap:round; stroke-linejoin:round;">
<path style="fill:#000000; fill-opacity:1.0; 
stroke:#000000; stroke-width:0; stroke-opacity:1; 
stroke-linecap:round; stroke-linejoin:round;fill-rule:evenodd;"
d="M 30359.6,25700
30367.2,25701.2
30374.7,25703
30382,25705.6
30389,25708.9
30395.6,25712.9
30401.8,25717.5
30407.5,25722.7
30412.7,25728.4
30417.3,25734.6
30421.3,25741.3
30424.6,25748.3
30427.2,25755.5
30429.1,25763
30430.2,25770.7
30430.6,25778.4
30430.6,26644.5
30430.2,26652.2
30429.1,26659.9
30427.2,26667.4
30424.6,26674.7
30421.3,26681.6
30417.3,26688.3
30412.7,26694.5
30407.5,26700.2
30401.8,26705.4
30395.6,26710
30389,26714
30382,26717.3
30374.7,26719.9
30367.2,26721.8
30359.6,26722.9
30351.9,26723.3
29879.4,26723.3
29871.7,26722.9
29864.1,26721.8
29856.6,26719.9
29849.3,26717.3
29842.3,26714
29835.7,26710
29829.5,26705.4
29823.7,26700.2
29818.6,26694.5
29813.9,26688.3
29810,26681.6
29806.7,26674.7
29804.1,26667.4
29802.2,26659.9
29801.1,26652.2
29800.7,26644.5
29800.7,25778.4
29801.1,25770.7
29802.2,25763
29804.1,25755.5
29806.7,25748.3
29810,25741.3
29813.9,25734.6
29818.6,25728.4
29823.7,25722.7
29829.5,25717.5
29835.7,25712.9
29842.3,25708.9
29849.3,25705.6
29856.6,25703
29864.1,25701.2
29871.7,25700
29879.4,25699.6
30351.9,25699.6
Z" /> 
<path style="fill:#000000; fill-opacity:1.0; 
stroke:#000000; stroke-width:0; stroke-opacity:1; 
stroke-linecap:round; stroke-linejoin:round;fill-rule:evenodd;"
d="M 29461.9,25700
29469.6,25701.2
29477.1,25703
29484.4,25705.6
29491.3,25708.9
29498,25712.9
29504.2,25717.5
29509.9,25722.7
29515.1,25728.4
29519.7,25734.6
29523.7,25741.3
29527,25748.3
29529.6,25755.5
29531.4,25763
29532.6,25770.7
29533,25778.4
29533,26644.5
29532.6,26652.2
29531.4,26659.9
29529.6,26667.4
29527,26674.7
29523.7,26681.6
29519.7,26688.3
29515.1,26694.5
29509.9,26700.2
29504.2,26705.4
29498,26710
29491.3,26714
29484.4,26717.3
29477.1,26719.9
29469.6,26721.8
29461.9,26722.9
29454.2,26723.3
28981.8,26723.3
28974.1,26722.9
28966.4,26721.8
28958.9,26719.9
28951.6,26717.3
28944.7,26714
28938,26710
28931.8,26705.4
28926.1,26700.2
28920.9,26694.5
28916.3,26688.3
28912.3,26681.6
28909,26674.7
28906.4,26667.4
28904.6,26659.9
28903.4,26652.2
28903,26644.5
28903,25778.4
28903.4,25770.7
28904.6,25763
28906.4,25755.5
28909,25748.3
28912.3,25741.3
28916.3,25734.6
28920.9,25728.4
28926.1,25722.7
28931.8,25717.5
28938,25712.9
28944.7,25708.9
28951.6,25705.6
28958.9,25703
28966.4,25701.2
28974.1,25700
28981.8,25699.6
29454.2,25699.6
Z" /> 
<path style="fill:#000000; fill-opacity:1.0; 
stroke:#000000; stroke-width:0; stroke-opacity:1; 
stroke-linecap:round; stroke-linejoin:round;fill-rule:evenodd;"
d="M 28564.3,25700
28571.9,25701.2
28579.4,25703
28586.7,25705.6
28593.7,25708.9
28600.3,25712.9
28606.5,25717.5
28612.3,25722.7
28617.4,25728.4
28622.1,25734.6
28626,25741.3
28629.3,25748.3
28631.9,25755.5
28633.8,25763
28634.9,25770.7
28635.3,25778.4
28635.3,26644.5
28634.9,26652.2
28633.8,26659.9
28631.9,26667.4
28629.3,26674.7
28626,26681.6
28622.1,26688.3
28617.4,26694.5
28612.3,26700.2
28606.5,26705.4
28600.3,26710
28593.7,26714
28586.7,26717.3
28579.4,26719.9
28571.9,26721.8
28564.3,26722.9
28556.6,26723.3
28084.1,26723.3
28076.4,26722.9
28068.8,26721.8
28061.3,26719.9
28054,26717.3
28047,26714
28040.4,26710
28034.2,26705.4
28028.5,26700.2
28023.3,26694.5
28018.7,26688.3
28014.7,26681.6
28011.4,26674.7
28008.8,26667.4
28006.9,26659.9
28005.8,26652.2
28005.4,26644.5
28005.4,25778.4
28005.8,25770.7
28006.9,25763
28008.8,25755.5
28011.4,25748.3
28014.7,25741.3
28018.7,25734.6
28023.3,25728.4
28028.5,25722.7
28034.2,25717.5
28040.4,25712.9
28047,25708.9
28054,25705.6
28061.3,25703
28068.8,25701.2
28076.4,25700
28084.1,25699.6
28556.6,25699.6
Z" /> 
<path style="fill:#000000; fill-opacity:1.0; 
stroke:#000000; stroke-width:0; stroke-opacity:1; 
stroke-linecap:round; stroke-linejoin:round;fill-rule:evenodd;"
d="M 30367.5,27353.6
30375.1,27354.7
30382.6,27356.6
30389.9,27359.2
30396.8,27362.5
30403.5,27366.5
30409.7,27371.1
30415.4,27376.3
30420.6,27382
30425.2,27388.2
30429.2,27394.8
30432.5,27401.8
30435.1,27409.1
30437,27416.6
30438.1,27424.2
30438.5,27431.9
30438.5,29951.6
30438.1,29959.3
30437,29967
30435.1,29974.5
30432.5,29981.7
30429.2,29988.7
30425.2,29995.4
30420.6,30001.6
30415.4,30007.3
30409.7,30012.5
30403.5,30017.1
30396.8,30021.1
30389.9,30024.4
30382.6,30027
30375.1,30028.8
30367.5,30030
30359.7,30030.4
28076.3,30030.4
28068.5,30030
28060.9,30028.8
28053.4,30027
28046.1,30024.4
28039.1,30021.1
28032.5,30017.1
28026.3,30012.5
28020.6,30007.3
28015.4,30001.6
28010.8,29995.4
28006.8,29988.7
28003.5,29981.7
28000.9,29974.5
27999,29967
27997.9,29959.3
27997.5,29951.6
27997.5,27431.9
27997.9,27424.2
27999,27416.6
28000.9,27409.1
28003.5,27401.8
28006.8,27394.8
28010.8,27388.2
28015.4,27382
28020.6,27376.3
28026.3,27371.1
28032.5,27366.5
28039.1,27362.5
28046.1,27359.2
28053.4,27356.6
28060.9,27354.7
28068.5,27353.6
28076.3,27353.2
30359.7,27353.2
Z" /> 
</g>
<g >
</g>
<g style="fill:#000000; fill-opacity:1.0; 
stroke:#000000; stroke-width:0; stroke-opacity:1; 
stroke-linecap:round; stroke-linejoin:round;">
<path style="fill:#000000; fill-opacity:1.0; 
stroke:#000000; stroke-width:0; stroke-opacity:1; 
stroke-linecap:round; stroke-linejoin:round;fill-rule:evenodd;"
d="M 31057.7,13275
31065.4,13276.1
31072.8,13278
31080.1,13280.6
31087.1,13283.9
31093.7,13287.8
31099.9,13292.4
31105.7,13297.6
31110.9,13303.4
31115.5,13309.6
31119.4,13316.2
31122.7,13323.2
31125.3,13330.5
31127.2,13338
31128.4,13345.6
31128.7,13353.3
31128.7,14495
31128.4,14502.8
31127.2,14510.4
31125.3,14517.9
31122.7,14525.2
31119.4,14532.2
31115.5,14538.8
31110.9,14545
31105.7,14550.7
31099.9,14555.9
31093.7,14560.5
31087.1,14564.5
31080.1,14567.8
31072.8,14570.4
31065.4,14572.3
31057.7,14573.4
31050,14573.8
28924,14573.8
28916.3,14573.4
28908.6,14572.3
28901.2,14570.4
28893.9,14567.8
28886.9,14564.5
28880.3,14560.5
28874.1,14555.9
28868.3,14550.7
28863.1,14545
28858.5,14538.8
28854.6,14532.2
28851.3,14525.2
28848.7,14517.9
28846.8,14510.4
28845.6,14502.8
28845.3,14495
28845.3,13353.3
28845.6,13345.6
28846.8,13338
28848.7,13330.5
28851.3,13323.2
28854.6,13316.2
28858.5,13309.6
28863.1,13303.4
28868.3,13297.6
28874.1,13292.4
28880.3,13287.8
28886.9,13283.9
28893.9,13280.6
28901.2,13278
28908.6,13276.1
28916.3,13275
28924,13274.6
31050,13274.6
Z" /> 
<path style="fill:#000000; fill-opacity:1.0; 
stroke:#000000; stroke-width:0; stroke-opacity:1; 
stroke-linecap:round; stroke-linejoin:round;fill-rule:evenodd;"
d="M 31057.7,17172.6
31065.4,17173.7
31072.8,17175.6
31080.1,17178.2
31087.1,17181.5
31093.7,17185.5
31099.9,17190.1
31105.7,17195.3
31110.9,17201
31115.5,17207.2
31119.4,17213.8
31122.7,17220.8
31125.3,17228.1
31127.2,17235.6
31128.4,17243.2
31128.7,17251
31128.7,18392.7
31128.4,18400.4
31127.2,18408
31125.3,18415.5
31122.7,18422.8
31119.4,18429.8
31115.5,18436.4
31110.9,18442.6
31105.7,18448.4
31099.9,18453.6
31093.7,18458.2
31087.1,18462.1
31080.1,18465.4
31072.8,18468
31065.4,18469.9
31057.7,18471
31050,18471.4
28924,18471.4
28916.3,18471
28908.6,18469.9
28901.2,18468
28893.9,18465.4
28886.9,18462.1
28880.3,18458.2
28874.1,18453.6
28868.3,18448.4
28863.1,18442.6
28858.5,18436.4
28854.6,18429.8
28851.3,18422.8
28848.7,18415.5
28846.8,18408
28845.6,18400.4
28845.3,18392.7
28845.3,17251
28845.6,17243.2
28846.8,17235.6
28848.7,17228.1
28851.3,17220.8
28854.6,17213.8
28858.5,17207.2
28863.1,17201
28868.3,17195.3
28874.1,17190.1
28880.3,17185.5
28886.9,17181.5
28893.9,17178.2
28901.2,17175.6
28908.6,17173.7
28916.3,17172.6
28924,17172.2
31050,17172.2
Z" /> 
</g>
<g >
</g>
<g >
</g>
<g >
</g>
</g> 
</svg>
