<?xml version="1.0" standalone="no"?>
 <!DOCTYPE svg PUBLIC "-//W3C//DTD SVG 1.1//EN" 
 "http://www.w3.org/Graphics/SVG/1.1/DTD/svg11.dtd"> 
<svg
  xmlns:svg="http://www.w3.org/2000/svg"
  xmlns="http://www.w3.org/2000/svg"
  xmlns:xlink="http://www.w3.org/1999/xlink"
  version="1.1"
  width="29.700220cm" height="21.000720cm" viewBox="0 0 116930 82680">
<title>SVG Picture created as africube3-F_Mask.svg date 2022/01/27 12:15:49 </title>
  <desc>Picture generated by PCBNEW </desc>
<g style="fill:#000000; fill-opacity:1;stroke:#000000; stroke-opacity:1;
stroke-linecap:round; stroke-linejoin:round;"
 transform="translate(0 0) scale(1 1)">
</g>
<g style="fill:#000000; fill-opacity:0.0; 
stroke:#000000; stroke-width:-0.000393701; stroke-opacity:1; 
stroke-linecap:round; stroke-linejoin:round;">
<g >
</g>
<g style="fill:#000000; fill-opacity:1.0; 
stroke:#000000; stroke-width:0; stroke-opacity:1; 
stroke-linecap:round; stroke-linejoin:round;">
<circle cx="52834" cy="24818" r="413.386" /> 
<circle cx="52834" cy="25818" r="413.386" /> 
<circle cx="51834" cy="24818" r="413.386" /> 
<circle cx="51834" cy="25818" r="413.386" /> 
<circle cx="50834" cy="24818" r="413.386" /> 
<circle cx="50834" cy="25818" r="413.386" /> 
<circle cx="49834" cy="24818" r="413.386" /> 
<circle cx="49834" cy="25818" r="413.386" /> 
<circle cx="48834" cy="24818" r="413.386" /> 
<circle cx="48834" cy="25818" r="413.386" /> 
<circle cx="47834" cy="24818" r="413.386" /> 
<circle cx="47834" cy="25818" r="413.386" /> 
<circle cx="46834" cy="24818" r="413.386" /> 
<circle cx="46834" cy="25818" r="413.386" /> 
<circle cx="45834" cy="24818" r="413.386" /> 
<circle cx="45834" cy="25818" r="413.386" /> 
<circle cx="44834" cy="24818" r="413.386" /> 
<circle cx="44834" cy="25818" r="413.386" /> 
<circle cx="43834" cy="24818" r="413.386" /> 
<circle cx="43834" cy="25818" r="413.386" /> 
<circle cx="42834" cy="24818" r="413.386" /> 
<circle cx="42834" cy="25818" r="413.386" /> 
<circle cx="41834" cy="24818" r="413.386" /> 
<circle cx="41834" cy="25818" r="413.386" /> 
<circle cx="40834" cy="24818" r="413.386" /> 
<circle cx="40834" cy="25818" r="413.386" /> 
<circle cx="39834" cy="24818" r="413.386" /> 
<circle cx="39834" cy="25818" r="413.386" /> 
<circle cx="38834" cy="24818" r="413.386" /> 
<circle cx="38834" cy="25818" r="413.386" /> 
<circle cx="37834" cy="24818" r="413.386" /> 
<circle cx="37834" cy="25818" r="413.386" /> 
<circle cx="36834" cy="24818" r="413.386" /> 
<circle cx="36834" cy="25818" r="413.386" /> 
<circle cx="35834" cy="24818" r="413.386" /> 
<circle cx="35834" cy="25818" r="413.386" /> 
<circle cx="34834" cy="24818" r="413.386" /> 
<circle cx="34834" cy="25818" r="413.386" /> 
<circle cx="33834" cy="24818" r="413.386" /> 
<path style="fill:#000000; fill-opacity:1.0; 
stroke:#000000; stroke-width:0; stroke-opacity:1; 
stroke-linecap:round; stroke-linejoin:round;fill-rule:evenodd;"
d="M 34176.4,25405
34184,25406.1
34191.5,25408
34198.8,25410.6
34205.8,25413.9
34212.4,25417.9
34218.6,25422.5
34224.3,25427.7
34229.5,25433.4
34234.1,25439.6
34238.1,25446.2
34241.4,25453.2
34244,25460.5
34245.9,25468
34247,25475.6
34247.4,25483.4
34247.4,26152.6
34247,26160.4
34245.9,26168
34244,26175.5
34241.4,26182.8
34238.1,26189.8
34234.1,26196.4
34229.5,26202.6
34224.3,26208.3
34218.6,26213.5
34212.4,26218.1
34205.8,26222.1
34198.8,26225.4
34191.5,26228
34184,26229.9
34176.4,26231
34168.6,26231.4
33499.4,26231.4
33491.6,26231
33484,26229.9
33476.5,26228
33469.2,26225.4
33462.2,26222.1
33455.6,26218.1
33449.4,26213.5
33443.7,26208.3
33438.5,26202.6
33433.9,26196.4
33429.9,26189.8
33426.6,26182.8
33424,26175.5
33422.1,26168
33421,26160.4
33420.6,26152.6
33420.6,25483.4
33421,25475.6
33422.1,25468
33424,25460.5
33426.6,25453.2
33429.9,25446.2
33433.9,25439.6
33438.5,25433.4
33443.7,25427.7
33449.4,25422.5
33455.6,25417.9
33462.2,25413.9
33469.2,25410.6
33476.5,25408
33484,25406.1
33491.6,25405
33499.4,25404.6
34168.6,25404.6
Z" /> 
</g>
<g >
</g>
<g >
</g>
<g style="fill:#000000; fill-opacity:1.0; 
stroke:#000000; stroke-width:0; stroke-opacity:1; 
stroke-linecap:round; stroke-linejoin:round;">
<circle cx="54729.9" cy="44610.2" r="669.291" /> 
</g>
<g style="fill:#000000; fill-opacity:1.0; 
stroke:#000000; stroke-width:39.3701; stroke-opacity:1; 
stroke-linecap:round; stroke-linejoin:round;">
</g>
<g >
</g>
<g style="fill:#000000; fill-opacity:1.0; 
stroke:#000000; stroke-width:39.3701; stroke-opacity:1; 
stroke-linecap:round; stroke-linejoin:round;">
</g>
<g style="fill:#000000; fill-opacity:1.0; 
stroke:#000000; stroke-width:0; stroke-opacity:1; 
stroke-linecap:round; stroke-linejoin:round;">
<circle cx="32139.2" cy="45034.2" r="669.291" /> 
</g>
<g style="fill:#000000; fill-opacity:1.0; 
stroke:#000000; stroke-width:39.3701; stroke-opacity:1; 
stroke-linecap:round; stroke-linejoin:round;">
</g>
<g >
</g>
<g style="fill:#000000; fill-opacity:1.0; 
stroke:#000000; stroke-width:39.3701; stroke-opacity:1; 
stroke-linecap:round; stroke-linejoin:round;">
</g>
<g style="fill:#000000; fill-opacity:1.0; 
stroke:#000000; stroke-width:0; stroke-opacity:1; 
stroke-linecap:round; stroke-linejoin:round;">
<circle cx="32139.2" cy="45034.2" r="669.291" /> 
</g>
<g style="fill:#000000; fill-opacity:1.0; 
stroke:#000000; stroke-width:39.3701; stroke-opacity:1; 
stroke-linecap:round; stroke-linejoin:round;">
</g>
<g >
</g>
<g style="fill:#000000; fill-opacity:1.0; 
stroke:#000000; stroke-width:39.3701; stroke-opacity:1; 
stroke-linecap:round; stroke-linejoin:round;">
</g>
<g style="fill:#000000; fill-opacity:1.0; 
stroke:#000000; stroke-width:0; stroke-opacity:1; 
stroke-linecap:round; stroke-linejoin:round;">
<circle cx="32139.2" cy="45034.2" r="669.291" /> 
</g>
<g style="fill:#000000; fill-opacity:1.0; 
stroke:#000000; stroke-width:39.3701; stroke-opacity:1; 
stroke-linecap:round; stroke-linejoin:round;">
</g>
<g >
</g>
<g style="fill:#000000; fill-opacity:1.0; 
stroke:#000000; stroke-width:39.3701; stroke-opacity:1; 
stroke-linecap:round; stroke-linejoin:round;">
</g>
<g style="fill:#000000; fill-opacity:1.0; 
stroke:#000000; stroke-width:0; stroke-opacity:1; 
stroke-linecap:round; stroke-linejoin:round;">
<circle cx="32139.2" cy="45034.2" r="669.291" /> 
</g>
<g style="fill:#000000; fill-opacity:1.0; 
stroke:#000000; stroke-width:39.3701; stroke-opacity:1; 
stroke-linecap:round; stroke-linejoin:round;">
</g>
<g >
</g>
<g style="fill:#000000; fill-opacity:1.0; 
stroke:#000000; stroke-width:39.3701; stroke-opacity:1; 
stroke-linecap:round; stroke-linejoin:round;">
</g>
<g style="fill:#000000; fill-opacity:1.0; 
stroke:#000000; stroke-width:0; stroke-opacity:1; 
stroke-linecap:round; stroke-linejoin:round;">
<circle cx="54739.9" cy="25320.2" r="669.291" /> 
</g>
<g style="fill:#000000; fill-opacity:1.0; 
stroke:#000000; stroke-width:39.3701; stroke-opacity:1; 
stroke-linecap:round; stroke-linejoin:round;">
</g>
<g >
</g>
<g style="fill:#000000; fill-opacity:1.0; 
stroke:#000000; stroke-width:39.3701; stroke-opacity:1; 
stroke-linecap:round; stroke-linejoin:round;">
</g>
<g style="fill:#000000; fill-opacity:1.0; 
stroke:#000000; stroke-width:0; stroke-opacity:1; 
stroke-linecap:round; stroke-linejoin:round;">
<circle cx="31899.2" cy="25324.2" r="669.291" /> 
</g>
<g style="fill:#000000; fill-opacity:1.0; 
stroke:#000000; stroke-width:39.3701; stroke-opacity:1; 
stroke-linecap:round; stroke-linejoin:round;">
</g>
<g >
</g>
<g style="fill:#000000; fill-opacity:1.0; 
stroke:#000000; stroke-width:39.3701; stroke-opacity:1; 
stroke-linecap:round; stroke-linejoin:round;">
</g>
<g style="fill:#000000; fill-opacity:1.0; 
stroke:#000000; stroke-width:0; stroke-opacity:1; 
stroke-linecap:round; stroke-linejoin:round;">
<path style="fill:#000000; fill-opacity:1.0; 
stroke:#000000; stroke-width:0; stroke-opacity:1; 
stroke-linecap:round; stroke-linejoin:round;fill-rule:evenodd;"
d="M 42403.8,48278.5
42411.4,48279.6
42418.9,48281.5
42426.2,48284.1
42433.2,48287.4
42439.8,48291.4
42446,48296
42451.7,48301.2
42456.9,48306.9
42461.5,48313.1
42465.5,48319.7
42468.8,48326.7
42471.4,48334
42473.3,48341.5
42474.4,48349.1
42474.8,48356.9
42474.8,48947.4
42474.4,48955.1
42473.3,48962.8
42471.4,48970.3
42468.8,48977.5
42465.5,48984.5
42461.5,48991.1
42456.9,48997.4
42451.7,49003.1
42446,49008.3
42439.8,49012.9
42433.2,49016.8
42426.2,49020.1
42418.9,49022.8
42411.4,49024.6
42403.8,49025.8
42396.1,49026.1
41903.9,49026.1
41896.2,49025.8
41888.6,49024.6
41881.1,49022.8
41873.8,49020.1
41866.8,49016.8
41860.2,49012.9
41854,49008.3
41848.3,49003.1
41843.1,48997.4
41838.5,48991.1
41834.5,48984.5
41831.2,48977.5
41828.6,48970.3
41826.7,48962.8
41825.6,48955.1
41825.2,48947.4
41825.2,48356.9
41825.6,48349.1
41826.7,48341.5
41828.6,48334
41831.2,48326.7
41834.5,48319.7
41838.5,48313.1
41843.1,48306.9
41848.3,48301.2
41854,48296
41860.2,48291.4
41866.8,48287.4
41873.8,48284.1
41881.1,48281.5
41888.6,48279.6
41896.2,48278.5
41903.9,48278.1
42396.1,48278.1
Z" /> 
<path style="fill:#000000; fill-opacity:1.0; 
stroke:#000000; stroke-width:0; stroke-opacity:1; 
stroke-linecap:round; stroke-linejoin:round;fill-rule:evenodd;"
d="M 42403.8,47294.2
42411.4,47295.4
42418.9,47297.2
42426.2,47299.9
42433.2,47303.2
42439.8,47307.1
42446,47311.7
42451.7,47316.9
42456.9,47322.6
42461.5,47328.9
42465.5,47335.5
42468.8,47342.5
42471.4,47349.7
42473.3,47357.2
42474.4,47364.9
42474.8,47372.6
42474.8,47963.1
42474.4,47970.9
42473.3,47978.5
42471.4,47986
42468.8,47993.3
42465.5,48000.3
42461.5,48006.9
42456.9,48013.1
42451.7,48018.8
42446,48024
42439.8,48028.6
42433.2,48032.6
42426.2,48035.9
42418.9,48038.5
42411.4,48040.4
42403.8,48041.5
42396.1,48041.9
41903.9,48041.9
41896.2,48041.5
41888.6,48040.4
41881.1,48038.5
41873.8,48035.9
41866.8,48032.6
41860.2,48028.6
41854,48024
41848.3,48018.8
41843.1,48013.1
41838.5,48006.9
41834.5,48000.3
41831.2,47993.3
41828.6,47986
41826.7,47978.5
41825.6,47970.9
41825.2,47963.1
41825.2,47372.6
41825.6,47364.9
41826.7,47357.2
41828.6,47349.7
41831.2,47342.5
41834.5,47335.5
41838.5,47328.9
41843.1,47322.6
41848.3,47316.9
41854,47311.7
41860.2,47307.1
41866.8,47303.2
41873.8,47299.9
41881.1,47297.2
41888.6,47295.4
41896.2,47294.2
41903.9,47293.9
42396.1,47293.9
Z" /> 
</g>
<g >
</g>
<g style="fill:#000000; fill-opacity:1.0; 
stroke:#000000; stroke-width:0; stroke-opacity:1; 
stroke-linecap:round; stroke-linejoin:round;">
<path style="fill:#000000; fill-opacity:1.0; 
stroke:#000000; stroke-width:0; stroke-opacity:1; 
stroke-linecap:round; stroke-linejoin:round;fill-rule:evenodd;"
d="M 43853.8,48278.5
43861.4,48279.6
43868.9,48281.5
43876.2,48284.1
43883.2,48287.4
43889.8,48291.4
43896,48296
43901.7,48301.2
43906.9,48306.9
43911.5,48313.1
43915.5,48319.7
43918.8,48326.7
43921.4,48334
43923.3,48341.5
43924.4,48349.1
43924.8,48356.9
43924.8,48947.4
43924.4,48955.1
43923.3,48962.8
43921.4,48970.3
43918.8,48977.5
43915.5,48984.5
43911.5,48991.1
43906.9,48997.4
43901.7,49003.1
43896,49008.3
43889.8,49012.9
43883.2,49016.8
43876.2,49020.1
43868.9,49022.8
43861.4,49024.6
43853.8,49025.8
43846.1,49026.1
43353.9,49026.1
43346.2,49025.8
43338.6,49024.6
43331.1,49022.8
43323.8,49020.1
43316.8,49016.8
43310.2,49012.9
43304,49008.3
43298.3,49003.1
43293.1,48997.4
43288.5,48991.1
43284.5,48984.5
43281.2,48977.5
43278.6,48970.3
43276.7,48962.8
43275.6,48955.1
43275.2,48947.4
43275.2,48356.9
43275.6,48349.1
43276.7,48341.5
43278.6,48334
43281.2,48326.7
43284.5,48319.7
43288.5,48313.1
43293.1,48306.9
43298.3,48301.2
43304,48296
43310.2,48291.4
43316.8,48287.4
43323.8,48284.1
43331.1,48281.5
43338.6,48279.6
43346.2,48278.5
43353.9,48278.1
43846.1,48278.1
Z" /> 
<path style="fill:#000000; fill-opacity:1.0; 
stroke:#000000; stroke-width:0; stroke-opacity:1; 
stroke-linecap:round; stroke-linejoin:round;fill-rule:evenodd;"
d="M 43853.8,47294.2
43861.4,47295.4
43868.9,47297.2
43876.2,47299.9
43883.2,47303.2
43889.8,47307.1
43896,47311.7
43901.7,47316.9
43906.9,47322.6
43911.5,47328.9
43915.5,47335.5
43918.8,47342.5
43921.4,47349.7
43923.3,47357.2
43924.4,47364.9
43924.8,47372.6
43924.8,47963.1
43924.4,47970.9
43923.3,47978.5
43921.4,47986
43918.8,47993.3
43915.5,48000.3
43911.5,48006.9
43906.9,48013.1
43901.7,48018.8
43896,48024
43889.8,48028.6
43883.2,48032.6
43876.2,48035.9
43868.9,48038.5
43861.4,48040.4
43853.8,48041.5
43846.1,48041.9
43353.9,48041.9
43346.2,48041.5
43338.6,48040.4
43331.1,48038.5
43323.8,48035.9
43316.8,48032.6
43310.2,48028.6
43304,48024
43298.3,48018.8
43293.1,48013.1
43288.5,48006.9
43284.5,48000.3
43281.2,47993.3
43278.6,47986
43276.7,47978.5
43275.6,47970.9
43275.2,47963.1
43275.2,47372.6
43275.6,47364.9
43276.7,47357.2
43278.6,47349.7
43281.2,47342.5
43284.5,47335.5
43288.5,47328.9
43293.1,47322.6
43298.3,47316.9
43304,47311.7
43310.2,47307.1
43316.8,47303.2
43323.8,47299.9
43331.1,47297.2
43338.6,47295.4
43346.2,47294.2
43353.9,47293.9
43846.1,47293.9
Z" /> 
</g>
<g >
</g>
<g style="fill:#000000; fill-opacity:1.0; 
stroke:#000000; stroke-width:0; stroke-opacity:1; 
stroke-linecap:round; stroke-linejoin:round;">
<path style="fill:#000000; fill-opacity:1.0; 
stroke:#000000; stroke-width:0; stroke-opacity:1; 
stroke-linecap:round; stroke-linejoin:round;fill-rule:evenodd;"
d="M 50005.1,33695.6
50012.8,33696.7
50020.3,33698.6
50027.5,33701.2
50034.5,33704.5
50041.1,33708.5
50047.4,33713.1
50053.1,33718.3
50058.3,33724
50062.9,33730.2
50066.8,33736.8
50070.1,33743.8
50072.8,33751.1
50074.6,33758.6
50075.8,33766.2
50076.1,33773.9
50076.1,34266.1
50075.8,34273.8
50074.6,34281.4
50072.8,34288.9
50070.1,34296.2
50066.8,34303.2
50062.9,34309.8
50058.3,34316
50053.1,34321.7
50047.4,34326.9
50041.1,34331.5
50034.5,34335.5
50027.5,34338.8
50020.3,34341.4
50012.8,34343.3
50005.1,34344.4
49997.4,34344.8
49406.9,34344.8
49399.1,34344.4
49391.5,34343.3
49384,34341.4
49376.7,34338.8
49369.7,34335.5
49363.1,34331.5
49356.9,34326.9
49351.2,34321.7
49346,34316
49341.4,34309.8
49337.4,34303.2
49334.1,34296.2
49331.5,34288.9
49329.6,34281.4
49328.5,34273.8
49328.1,34266.1
49328.1,33773.9
49328.5,33766.2
49329.6,33758.6
49331.5,33751.1
49334.1,33743.8
49337.4,33736.8
49341.4,33730.2
49346,33724
49351.2,33718.3
49356.9,33713.1
49363.1,33708.5
49369.7,33704.5
49376.7,33701.2
49384,33698.6
49391.5,33696.7
49399.1,33695.6
49406.9,33695.2
49997.4,33695.2
Z" /> 
<path style="fill:#000000; fill-opacity:1.0; 
stroke:#000000; stroke-width:0; stroke-opacity:1; 
stroke-linecap:round; stroke-linejoin:round;fill-rule:evenodd;"
d="M 49020.9,33695.6
49028.5,33696.7
49036,33698.6
49043.3,33701.2
49050.3,33704.5
49056.9,33708.5
49063.1,33713.1
49068.8,33718.3
49074,33724
49078.6,33730.2
49082.6,33736.8
49085.9,33743.8
49088.5,33751.1
49090.4,33758.6
49091.5,33766.2
49091.9,33773.9
49091.9,34266.1
49091.5,34273.8
49090.4,34281.4
49088.5,34288.9
49085.9,34296.2
49082.6,34303.2
49078.6,34309.8
49074,34316
49068.8,34321.7
49063.1,34326.9
49056.9,34331.5
49050.3,34335.5
49043.3,34338.8
49036,34341.4
49028.5,34343.3
49020.9,34344.4
49013.1,34344.8
48422.6,34344.8
48414.9,34344.4
48407.2,34343.3
48399.7,34341.4
48392.5,34338.8
48385.5,34335.5
48378.9,34331.5
48372.6,34326.9
48366.9,34321.7
48361.7,34316
48357.1,34309.8
48353.2,34303.2
48349.9,34296.2
48347.2,34288.9
48345.4,34281.4
48344.2,34273.8
48343.9,34266.1
48343.9,33773.9
48344.2,33766.2
48345.4,33758.6
48347.2,33751.1
48349.9,33743.8
48353.2,33736.8
48357.1,33730.2
48361.7,33724
48366.9,33718.3
48372.6,33713.1
48378.9,33708.5
48385.5,33704.5
48392.5,33701.2
48399.7,33698.6
48407.2,33696.7
48414.9,33695.6
48422.6,33695.2
49013.1,33695.2
Z" /> 
</g>
<g >
</g>
<g style="fill:#000000; fill-opacity:1.0; 
stroke:#000000; stroke-width:0; stroke-opacity:1; 
stroke-linecap:round; stroke-linejoin:round;">
<path style="fill:#000000; fill-opacity:1.0; 
stroke:#000000; stroke-width:0; stroke-opacity:1; 
stroke-linecap:round; stroke-linejoin:round;fill-rule:evenodd;"
d="M 37633.8,39298.5
37641.4,39299.6
37648.9,39301.5
37656.2,39304.1
37663.2,39307.4
37669.8,39311.4
37676,39316
37681.7,39321.2
37686.9,39326.9
37691.5,39333.1
37695.5,39339.7
37698.8,39346.7
37701.4,39354
37703.3,39361.5
37704.4,39369.1
37704.8,39376.9
37704.8,39967.4
37704.4,39975.1
37703.3,39982.8
37701.4,39990.3
37698.8,39997.5
37695.5,40004.5
37691.5,40011.1
37686.9,40017.4
37681.7,40023.1
37676,40028.3
37669.8,40032.9
37663.2,40036.8
37656.2,40040.1
37648.9,40042.8
37641.4,40044.6
37633.8,40045.8
37626.1,40046.1
37133.9,40046.1
37126.2,40045.8
37118.6,40044.6
37111.1,40042.8
37103.8,40040.1
37096.8,40036.8
37090.2,40032.9
37084,40028.3
37078.3,40023.1
37073.1,40017.4
37068.5,40011.1
37064.5,40004.5
37061.2,39997.5
37058.6,39990.3
37056.7,39982.8
37055.6,39975.1
37055.2,39967.4
37055.2,39376.9
37055.6,39369.1
37056.7,39361.5
37058.6,39354
37061.2,39346.7
37064.5,39339.7
37068.5,39333.1
37073.1,39326.9
37078.3,39321.2
37084,39316
37090.2,39311.4
37096.8,39307.4
37103.8,39304.1
37111.1,39301.5
37118.6,39299.6
37126.2,39298.5
37133.9,39298.1
37626.1,39298.1
Z" /> 
<path style="fill:#000000; fill-opacity:1.0; 
stroke:#000000; stroke-width:0; stroke-opacity:1; 
stroke-linecap:round; stroke-linejoin:round;fill-rule:evenodd;"
d="M 37633.8,38314.2
37641.4,38315.4
37648.9,38317.2
37656.2,38319.9
37663.2,38323.2
37669.8,38327.1
37676,38331.7
37681.7,38336.9
37686.9,38342.6
37691.5,38348.9
37695.5,38355.5
37698.8,38362.5
37701.4,38369.7
37703.3,38377.2
37704.4,38384.9
37704.8,38392.6
37704.8,38983.1
37704.4,38990.9
37703.3,38998.5
37701.4,39006
37698.8,39013.3
37695.5,39020.3
37691.5,39026.9
37686.9,39033.1
37681.7,39038.8
37676,39044
37669.8,39048.6
37663.2,39052.6
37656.2,39055.9
37648.9,39058.5
37641.4,39060.4
37633.8,39061.5
37626.1,39061.9
37133.9,39061.9
37126.2,39061.5
37118.6,39060.4
37111.1,39058.5
37103.8,39055.9
37096.8,39052.6
37090.2,39048.6
37084,39044
37078.3,39038.8
37073.1,39033.1
37068.5,39026.9
37064.5,39020.3
37061.2,39013.3
37058.6,39006
37056.7,38998.5
37055.6,38990.9
37055.2,38983.1
37055.2,38392.6
37055.6,38384.9
37056.7,38377.2
37058.6,38369.7
37061.2,38362.5
37064.5,38355.5
37068.5,38348.9
37073.1,38342.6
37078.3,38336.9
37084,38331.7
37090.2,38327.1
37096.8,38323.2
37103.8,38319.9
37111.1,38317.2
37118.6,38315.4
37126.2,38314.2
37133.9,38313.9
37626.1,38313.9
Z" /> 
</g>
<g >
</g>
<g style="fill:#000000; fill-opacity:1.0; 
stroke:#000000; stroke-width:0; stroke-opacity:1; 
stroke-linecap:round; stroke-linejoin:round;">
<path style="fill:#000000; fill-opacity:1.0; 
stroke:#000000; stroke-width:0; stroke-opacity:1; 
stroke-linecap:round; stroke-linejoin:round;fill-rule:evenodd;"
d="M 37633.8,54128.5
37641.4,54129.6
37648.9,54131.5
37656.2,54134.1
37663.2,54137.4
37669.8,54141.4
37676,54146
37681.7,54151.2
37686.9,54156.9
37691.5,54163.1
37695.5,54169.7
37698.8,54176.7
37701.4,54184
37703.3,54191.5
37704.4,54199.1
37704.8,54206.9
37704.8,54797.4
37704.4,54805.1
37703.3,54812.8
37701.4,54820.3
37698.8,54827.5
37695.5,54834.5
37691.5,54841.1
37686.9,54847.4
37681.7,54853.1
37676,54858.3
37669.8,54862.9
37663.2,54866.8
37656.2,54870.1
37648.9,54872.8
37641.4,54874.6
37633.8,54875.8
37626.1,54876.1
37133.9,54876.1
37126.2,54875.8
37118.6,54874.6
37111.1,54872.8
37103.8,54870.1
37096.8,54866.8
37090.2,54862.9
37084,54858.3
37078.3,54853.1
37073.1,54847.4
37068.5,54841.1
37064.5,54834.5
37061.2,54827.5
37058.6,54820.3
37056.7,54812.8
37055.6,54805.1
37055.2,54797.4
37055.2,54206.9
37055.6,54199.1
37056.7,54191.5
37058.6,54184
37061.2,54176.7
37064.5,54169.7
37068.5,54163.1
37073.1,54156.9
37078.3,54151.2
37084,54146
37090.2,54141.4
37096.8,54137.4
37103.8,54134.1
37111.1,54131.5
37118.6,54129.6
37126.2,54128.5
37133.9,54128.1
37626.1,54128.1
Z" /> 
<path style="fill:#000000; fill-opacity:1.0; 
stroke:#000000; stroke-width:0; stroke-opacity:1; 
stroke-linecap:round; stroke-linejoin:round;fill-rule:evenodd;"
d="M 37633.8,53144.2
37641.4,53145.4
37648.9,53147.2
37656.2,53149.9
37663.2,53153.2
37669.8,53157.1
37676,53161.7
37681.7,53166.9
37686.9,53172.6
37691.5,53178.9
37695.5,53185.5
37698.8,53192.5
37701.4,53199.7
37703.3,53207.2
37704.4,53214.9
37704.8,53222.6
37704.8,53813.1
37704.4,53820.9
37703.3,53828.5
37701.4,53836
37698.8,53843.3
37695.5,53850.3
37691.5,53856.9
37686.9,53863.1
37681.7,53868.8
37676,53874
37669.8,53878.6
37663.2,53882.6
37656.2,53885.9
37648.9,53888.5
37641.4,53890.4
37633.8,53891.5
37626.1,53891.9
37133.9,53891.9
37126.2,53891.5
37118.6,53890.4
37111.1,53888.5
37103.8,53885.9
37096.8,53882.6
37090.2,53878.6
37084,53874
37078.3,53868.8
37073.1,53863.1
37068.5,53856.9
37064.5,53850.3
37061.2,53843.3
37058.6,53836
37056.7,53828.5
37055.6,53820.9
37055.2,53813.1
37055.2,53222.6
37055.6,53214.9
37056.7,53207.2
37058.6,53199.7
37061.2,53192.5
37064.5,53185.5
37068.5,53178.9
37073.1,53172.6
37078.3,53166.9
37084,53161.7
37090.2,53157.1
37096.8,53153.2
37103.8,53149.9
37111.1,53147.2
37118.6,53145.4
37126.2,53144.2
37133.9,53143.9
37626.1,53143.9
Z" /> 
</g>
<g >
</g>
<g style="fill:#000000; fill-opacity:1.0; 
stroke:#000000; stroke-width:0; stroke-opacity:1; 
stroke-linecap:round; stroke-linejoin:round;">
<path style="fill:#000000; fill-opacity:1.0; 
stroke:#000000; stroke-width:0; stroke-opacity:1; 
stroke-linecap:round; stroke-linejoin:round;fill-rule:evenodd;"
d="M 38665.1,40625.6
38672.8,40626.7
38680.3,40628.6
38687.5,40631.2
38694.5,40634.5
38701.1,40638.5
38707.4,40643.1
38713.1,40648.3
38718.3,40654
38722.9,40660.2
38726.8,40666.8
38730.1,40673.8
38732.8,40681.1
38734.6,40688.6
38735.8,40696.2
38736.1,40703.9
38736.1,41196.1
38735.8,41203.8
38734.6,41211.4
38732.8,41218.9
38730.1,41226.2
38726.8,41233.2
38722.9,41239.8
38718.3,41246
38713.1,41251.7
38707.4,41256.9
38701.1,41261.5
38694.5,41265.5
38687.5,41268.8
38680.3,41271.4
38672.8,41273.3
38665.1,41274.4
38657.4,41274.8
38066.9,41274.8
38059.1,41274.4
38051.5,41273.3
38044,41271.4
38036.7,41268.8
38029.7,41265.5
38023.1,41261.5
38016.9,41256.9
38011.2,41251.7
38006,41246
38001.4,41239.8
37997.4,41233.2
37994.1,41226.2
37991.5,41218.9
37989.6,41211.4
37988.5,41203.8
37988.1,41196.1
37988.1,40703.9
37988.5,40696.2
37989.6,40688.6
37991.5,40681.1
37994.1,40673.8
37997.4,40666.8
38001.4,40660.2
38006,40654
38011.2,40648.3
38016.9,40643.1
38023.1,40638.5
38029.7,40634.5
38036.7,40631.2
38044,40628.6
38051.5,40626.7
38059.1,40625.6
38066.9,40625.2
38657.4,40625.2
Z" /> 
<path style="fill:#000000; fill-opacity:1.0; 
stroke:#000000; stroke-width:0; stroke-opacity:1; 
stroke-linecap:round; stroke-linejoin:round;fill-rule:evenodd;"
d="M 37680.9,40625.6
37688.5,40626.7
37696,40628.6
37703.3,40631.2
37710.3,40634.5
37716.9,40638.5
37723.1,40643.1
37728.8,40648.3
37734,40654
37738.6,40660.2
37742.6,40666.8
37745.9,40673.8
37748.5,40681.1
37750.4,40688.6
37751.5,40696.2
37751.9,40703.9
37751.9,41196.1
37751.5,41203.8
37750.4,41211.4
37748.5,41218.9
37745.9,41226.2
37742.6,41233.2
37738.6,41239.8
37734,41246
37728.8,41251.7
37723.1,41256.9
37716.9,41261.5
37710.3,41265.5
37703.3,41268.8
37696,41271.4
37688.5,41273.3
37680.9,41274.4
37673.1,41274.8
37082.6,41274.8
37074.9,41274.4
37067.2,41273.3
37059.7,41271.4
37052.5,41268.8
37045.5,41265.5
37038.9,41261.5
37032.6,41256.9
37026.9,41251.7
37021.7,41246
37017.1,41239.8
37013.2,41233.2
37009.9,41226.2
37007.2,41218.9
37005.4,41211.4
37004.2,41203.8
37003.9,41196.1
37003.9,40703.9
37004.2,40696.2
37005.4,40688.6
37007.2,40681.1
37009.9,40673.8
37013.2,40666.8
37017.1,40660.2
37021.7,40654
37026.9,40648.3
37032.6,40643.1
37038.9,40638.5
37045.5,40634.5
37052.5,40631.2
37059.7,40628.6
37067.2,40626.7
37074.9,40625.6
37082.6,40625.2
37673.1,40625.2
Z" /> 
</g>
<g >
</g>
<g style="fill:#000000; fill-opacity:1.0; 
stroke:#000000; stroke-width:0; stroke-opacity:1; 
stroke-linecap:round; stroke-linejoin:round;">
<path style="fill:#000000; fill-opacity:1.0; 
stroke:#000000; stroke-width:0; stroke-opacity:1; 
stroke-linecap:round; stroke-linejoin:round;fill-rule:evenodd;"
d="M 38665.1,51585.6
38672.8,51586.7
38680.3,51588.6
38687.5,51591.2
38694.5,51594.5
38701.1,51598.5
38707.4,51603.1
38713.1,51608.3
38718.3,51614
38722.9,51620.2
38726.8,51626.8
38730.1,51633.8
38732.8,51641.1
38734.6,51648.6
38735.8,51656.2
38736.1,51663.9
38736.1,52156.1
38735.8,52163.8
38734.6,52171.4
38732.8,52178.9
38730.1,52186.2
38726.8,52193.2
38722.9,52199.8
38718.3,52206
38713.1,52211.7
38707.4,52216.9
38701.1,52221.5
38694.5,52225.5
38687.5,52228.8
38680.3,52231.4
38672.8,52233.3
38665.1,52234.4
38657.4,52234.8
38066.9,52234.8
38059.1,52234.4
38051.5,52233.3
38044,52231.4
38036.7,52228.8
38029.7,52225.5
38023.1,52221.5
38016.9,52216.9
38011.2,52211.7
38006,52206
38001.4,52199.8
37997.4,52193.2
37994.1,52186.2
37991.5,52178.9
37989.6,52171.4
37988.5,52163.8
37988.1,52156.1
37988.1,51663.9
37988.5,51656.2
37989.6,51648.6
37991.5,51641.1
37994.1,51633.8
37997.4,51626.8
38001.4,51620.2
38006,51614
38011.2,51608.3
38016.9,51603.1
38023.1,51598.5
38029.7,51594.5
38036.7,51591.2
38044,51588.6
38051.5,51586.7
38059.1,51585.6
38066.9,51585.2
38657.4,51585.2
Z" /> 
<path style="fill:#000000; fill-opacity:1.0; 
stroke:#000000; stroke-width:0; stroke-opacity:1; 
stroke-linecap:round; stroke-linejoin:round;fill-rule:evenodd;"
d="M 37680.9,51585.6
37688.5,51586.7
37696,51588.6
37703.3,51591.2
37710.3,51594.5
37716.9,51598.5
37723.1,51603.1
37728.8,51608.3
37734,51614
37738.6,51620.2
37742.6,51626.8
37745.9,51633.8
37748.5,51641.1
37750.4,51648.6
37751.5,51656.2
37751.9,51663.9
37751.9,52156.1
37751.5,52163.8
37750.4,52171.4
37748.5,52178.9
37745.9,52186.2
37742.6,52193.2
37738.6,52199.8
37734,52206
37728.8,52211.7
37723.1,52216.9
37716.9,52221.5
37710.3,52225.5
37703.3,52228.8
37696,52231.4
37688.5,52233.3
37680.9,52234.4
37673.1,52234.8
37082.6,52234.8
37074.9,52234.4
37067.2,52233.3
37059.7,52231.4
37052.5,52228.8
37045.5,52225.5
37038.9,52221.5
37032.6,52216.9
37026.9,52211.7
37021.7,52206
37017.1,52199.8
37013.2,52193.2
37009.9,52186.2
37007.2,52178.9
37005.4,52171.4
37004.2,52163.8
37003.9,52156.1
37003.9,51663.9
37004.2,51656.2
37005.4,51648.6
37007.2,51641.1
37009.9,51633.8
37013.2,51626.8
37017.1,51620.2
37021.7,51614
37026.9,51608.3
37032.6,51603.1
37038.9,51598.5
37045.5,51594.5
37052.5,51591.2
37059.7,51588.6
37067.2,51586.7
37074.9,51585.6
37082.6,51585.2
37673.1,51585.2
Z" /> 
</g>
<g >
</g>
<g style="fill:#000000; fill-opacity:1.0; 
stroke:#000000; stroke-width:0; stroke-opacity:1; 
stroke-linecap:round; stroke-linejoin:round;">
<path style="fill:#000000; fill-opacity:1.0; 
stroke:#000000; stroke-width:0; stroke-opacity:1; 
stroke-linecap:round; stroke-linejoin:round;fill-rule:evenodd;"
d="M 38655.1,31005.6
38662.8,31006.7
38670.3,31008.6
38677.5,31011.2
38684.5,31014.5
38691.1,31018.5
38697.4,31023.1
38703.1,31028.3
38708.3,31034
38712.9,31040.2
38716.8,31046.8
38720.1,31053.8
38722.8,31061.1
38724.6,31068.6
38725.8,31076.2
38726.1,31083.9
38726.1,31576.1
38725.8,31583.8
38724.6,31591.4
38722.8,31598.9
38720.1,31606.2
38716.8,31613.2
38712.9,31619.8
38708.3,31626
38703.1,31631.7
38697.4,31636.9
38691.1,31641.5
38684.5,31645.5
38677.5,31648.8
38670.3,31651.4
38662.8,31653.3
38655.1,31654.4
38647.4,31654.8
38056.9,31654.8
38049.1,31654.4
38041.5,31653.3
38034,31651.4
38026.7,31648.8
38019.7,31645.5
38013.1,31641.5
38006.9,31636.9
38001.2,31631.7
37996,31626
37991.4,31619.8
37987.4,31613.2
37984.1,31606.2
37981.5,31598.9
37979.6,31591.4
37978.5,31583.8
37978.1,31576.1
37978.1,31083.9
37978.5,31076.2
37979.6,31068.6
37981.5,31061.1
37984.1,31053.8
37987.4,31046.8
37991.4,31040.2
37996,31034
38001.2,31028.3
38006.9,31023.1
38013.1,31018.5
38019.7,31014.5
38026.7,31011.2
38034,31008.6
38041.5,31006.7
38049.1,31005.6
38056.9,31005.2
38647.4,31005.2
Z" /> 
<path style="fill:#000000; fill-opacity:1.0; 
stroke:#000000; stroke-width:0; stroke-opacity:1; 
stroke-linecap:round; stroke-linejoin:round;fill-rule:evenodd;"
d="M 37670.9,31005.6
37678.5,31006.7
37686,31008.6
37693.3,31011.2
37700.3,31014.5
37706.9,31018.5
37713.1,31023.1
37718.8,31028.3
37724,31034
37728.6,31040.2
37732.6,31046.8
37735.9,31053.8
37738.5,31061.1
37740.4,31068.6
37741.5,31076.2
37741.9,31083.9
37741.9,31576.1
37741.5,31583.8
37740.4,31591.4
37738.5,31598.9
37735.9,31606.2
37732.6,31613.2
37728.6,31619.8
37724,31626
37718.8,31631.7
37713.1,31636.9
37706.9,31641.5
37700.3,31645.5
37693.3,31648.8
37686,31651.4
37678.5,31653.3
37670.9,31654.4
37663.1,31654.8
37072.6,31654.8
37064.9,31654.4
37057.2,31653.3
37049.7,31651.4
37042.5,31648.8
37035.5,31645.5
37028.9,31641.5
37022.6,31636.9
37016.9,31631.7
37011.7,31626
37007.1,31619.8
37003.2,31613.2
36999.9,31606.2
36997.2,31598.9
36995.4,31591.4
36994.2,31583.8
36993.9,31576.1
36993.9,31083.9
36994.2,31076.2
36995.4,31068.6
36997.2,31061.1
36999.9,31053.8
37003.2,31046.8
37007.1,31040.2
37011.7,31034
37016.9,31028.3
37022.6,31023.1
37028.9,31018.5
37035.5,31014.5
37042.5,31011.2
37049.7,31008.6
37057.2,31006.7
37064.9,31005.6
37072.6,31005.2
37663.1,31005.2
Z" /> 
</g>
<g >
</g>
<g style="fill:#000000; fill-opacity:1.0; 
stroke:#000000; stroke-width:0; stroke-opacity:1; 
stroke-linecap:round; stroke-linejoin:round;">
<path style="fill:#000000; fill-opacity:1.0; 
stroke:#000000; stroke-width:0; stroke-opacity:1; 
stroke-linecap:round; stroke-linejoin:round;fill-rule:evenodd;"
d="M 53293.8,30594.2
53301.4,30595.4
53308.9,30597.2
53316.2,30599.9
53323.2,30603.2
53329.8,30607.1
53336,30611.7
53341.7,30616.9
53346.9,30622.6
53351.5,30628.9
53355.5,30635.5
53358.8,30642.5
53361.4,30649.7
53363.3,30657.2
53364.4,30664.9
53364.8,30672.6
53364.8,31263.1
53364.4,31270.9
53363.3,31278.5
53361.4,31286
53358.8,31293.3
53355.5,31300.3
53351.5,31306.9
53346.9,31313.1
53341.7,31318.8
53336,31324
53329.8,31328.6
53323.2,31332.6
53316.2,31335.9
53308.9,31338.5
53301.4,31340.4
53293.8,31341.5
53286.1,31341.9
52793.9,31341.9
52786.2,31341.5
52778.6,31340.4
52771.1,31338.5
52763.8,31335.9
52756.8,31332.6
52750.2,31328.6
52744,31324
52738.3,31318.8
52733.1,31313.1
52728.5,31306.9
52724.5,31300.3
52721.2,31293.3
52718.6,31286
52716.7,31278.5
52715.6,31270.9
52715.2,31263.1
52715.2,30672.6
52715.6,30664.9
52716.7,30657.2
52718.6,30649.7
52721.2,30642.5
52724.5,30635.5
52728.5,30628.9
52733.1,30622.6
52738.3,30616.9
52744,30611.7
52750.2,30607.1
52756.8,30603.2
52763.8,30599.9
52771.1,30597.2
52778.6,30595.4
52786.2,30594.2
52793.9,30593.9
53286.1,30593.9
Z" /> 
<path style="fill:#000000; fill-opacity:1.0; 
stroke:#000000; stroke-width:0; stroke-opacity:1; 
stroke-linecap:round; stroke-linejoin:round;fill-rule:evenodd;"
d="M 53293.8,31578.5
53301.4,31579.6
53308.9,31581.5
53316.2,31584.1
53323.2,31587.4
53329.8,31591.4
53336,31596
53341.7,31601.2
53346.9,31606.9
53351.5,31613.1
53355.5,31619.7
53358.8,31626.7
53361.4,31634
53363.3,31641.5
53364.4,31649.1
53364.8,31656.9
53364.8,32247.4
53364.4,32255.1
53363.3,32262.8
53361.4,32270.3
53358.8,32277.5
53355.5,32284.5
53351.5,32291.1
53346.9,32297.4
53341.7,32303.1
53336,32308.3
53329.8,32312.9
53323.2,32316.8
53316.2,32320.1
53308.9,32322.8
53301.4,32324.6
53293.8,32325.8
53286.1,32326.1
52793.9,32326.1
52786.2,32325.8
52778.6,32324.6
52771.1,32322.8
52763.8,32320.1
52756.8,32316.8
52750.2,32312.9
52744,32308.3
52738.3,32303.1
52733.1,32297.4
52728.5,32291.1
52724.5,32284.5
52721.2,32277.5
52718.6,32270.3
52716.7,32262.8
52715.6,32255.1
52715.2,32247.4
52715.2,31656.9
52715.6,31649.1
52716.7,31641.5
52718.6,31634
52721.2,31626.7
52724.5,31619.7
52728.5,31613.1
52733.1,31606.9
52738.3,31601.2
52744,31596
52750.2,31591.4
52756.8,31587.4
52763.8,31584.1
52771.1,31581.5
52778.6,31579.6
52786.2,31578.5
52793.9,31578.1
53286.1,31578.1
Z" /> 
</g>
<g >
</g>
<g style="fill:#000000; fill-opacity:1.0; 
stroke:#000000; stroke-width:0; stroke-opacity:1; 
stroke-linecap:round; stroke-linejoin:round;">
<path style="fill:#000000; fill-opacity:1.0; 
stroke:#000000; stroke-width:0; stroke-opacity:1; 
stroke-linecap:round; stroke-linejoin:round;fill-rule:evenodd;"
d="M 37633.8,27528.5
37641.4,27529.6
37648.9,27531.5
37656.2,27534.1
37663.2,27537.4
37669.8,27541.4
37676,27546
37681.7,27551.2
37686.9,27556.9
37691.5,27563.1
37695.5,27569.7
37698.8,27576.7
37701.4,27584
37703.3,27591.5
37704.4,27599.1
37704.8,27606.9
37704.8,28197.4
37704.4,28205.1
37703.3,28212.8
37701.4,28220.3
37698.8,28227.5
37695.5,28234.5
37691.5,28241.1
37686.9,28247.4
37681.7,28253.1
37676,28258.3
37669.8,28262.9
37663.2,28266.8
37656.2,28270.1
37648.9,28272.8
37641.4,28274.6
37633.8,28275.8
37626.1,28276.1
37133.9,28276.1
37126.2,28275.8
37118.6,28274.6
37111.1,28272.8
37103.8,28270.1
37096.8,28266.8
37090.2,28262.9
37084,28258.3
37078.3,28253.1
37073.1,28247.4
37068.5,28241.1
37064.5,28234.5
37061.2,28227.5
37058.6,28220.3
37056.7,28212.8
37055.6,28205.1
37055.2,28197.4
37055.2,27606.9
37055.6,27599.1
37056.7,27591.5
37058.6,27584
37061.2,27576.7
37064.5,27569.7
37068.5,27563.1
37073.1,27556.9
37078.3,27551.2
37084,27546
37090.2,27541.4
37096.8,27537.4
37103.8,27534.1
37111.1,27531.5
37118.6,27529.6
37126.2,27528.5
37133.9,27528.1
37626.1,27528.1
Z" /> 
<path style="fill:#000000; fill-opacity:1.0; 
stroke:#000000; stroke-width:0; stroke-opacity:1; 
stroke-linecap:round; stroke-linejoin:round;fill-rule:evenodd;"
d="M 37633.8,26544.2
37641.4,26545.4
37648.9,26547.2
37656.2,26549.9
37663.2,26553.2
37669.8,26557.1
37676,26561.7
37681.7,26566.9
37686.9,26572.6
37691.5,26578.9
37695.5,26585.5
37698.8,26592.5
37701.4,26599.7
37703.3,26607.2
37704.4,26614.9
37704.8,26622.6
37704.8,27213.1
37704.4,27220.9
37703.3,27228.5
37701.4,27236
37698.8,27243.3
37695.5,27250.3
37691.5,27256.9
37686.9,27263.1
37681.7,27268.8
37676,27274
37669.8,27278.6
37663.2,27282.6
37656.2,27285.9
37648.9,27288.5
37641.4,27290.4
37633.8,27291.5
37626.1,27291.9
37133.9,27291.9
37126.2,27291.5
37118.6,27290.4
37111.1,27288.5
37103.8,27285.9
37096.8,27282.6
37090.2,27278.6
37084,27274
37078.3,27268.8
37073.1,27263.1
37068.5,27256.9
37064.5,27250.3
37061.2,27243.3
37058.6,27236
37056.7,27228.5
37055.6,27220.9
37055.2,27213.1
37055.2,26622.6
37055.6,26614.9
37056.7,26607.2
37058.6,26599.7
37061.2,26592.5
37064.5,26585.5
37068.5,26578.9
37073.1,26572.6
37078.3,26566.9
37084,26561.7
37090.2,26557.1
37096.8,26553.2
37103.8,26549.9
37111.1,26547.2
37118.6,26545.4
37126.2,26544.2
37133.9,26543.9
37626.1,26543.9
Z" /> 
</g>
<g >
</g>
<g style="fill:#000000; fill-opacity:1.0; 
stroke:#000000; stroke-width:0; stroke-opacity:1; 
stroke-linecap:round; stroke-linejoin:round;">
<path style="fill:#000000; fill-opacity:1.0; 
stroke:#000000; stroke-width:0; stroke-opacity:1; 
stroke-linecap:round; stroke-linejoin:round;fill-rule:evenodd;"
d="M 48863.6,29707.9
48871.3,29709
48878.8,29710.9
48886,29713.5
48893,29716.8
48899.7,29720.8
48905.9,29725.4
48911.6,29730.5
48916.8,29736.3
48921.4,29742.5
48925.3,29749.1
48928.7,29756.1
48931.3,29763.4
48933.1,29770.9
48934.3,29778.5
48934.6,29786.2
48934.6,30376.8
48934.3,30384.5
48933.1,30392.1
48931.3,30399.6
48928.7,30406.9
48925.3,30413.9
48921.4,30420.5
48916.8,30426.7
48911.6,30432.4
48905.9,30437.6
48899.7,30442.2
48893,30446.2
48886,30449.5
48878.8,30452.1
48871.3,30454
48863.6,30455.1
48855.9,30455.5
48344.1,30455.5
48336.4,30455.1
48328.7,30454
48321.2,30452.1
48314,30449.5
48307,30446.2
48300.3,30442.2
48294.1,30437.6
48288.4,30432.4
48283.2,30426.7
48278.6,30420.5
48274.7,30413.9
48271.3,30406.9
48268.7,30399.6
48266.9,30392.1
48265.7,30384.5
48265.4,30376.8
48265.4,29786.2
48265.7,29778.5
48266.9,29770.9
48268.7,29763.4
48271.3,29756.1
48274.7,29749.1
48278.6,29742.5
48283.2,29736.3
48288.4,29730.5
48294.1,29725.4
48300.3,29720.8
48307,29716.8
48314,29713.5
48321.2,29710.9
48328.7,29709
48336.4,29707.9
48344.1,29707.5
48855.9,29707.5
Z" /> 
<path style="fill:#000000; fill-opacity:1.0; 
stroke:#000000; stroke-width:0; stroke-opacity:1; 
stroke-linecap:round; stroke-linejoin:round;fill-rule:evenodd;"
d="M 48863.6,28644.9
48871.3,28646
48878.8,28647.9
48886,28650.5
48893,28653.8
48899.7,28657.8
48905.9,28662.4
48911.6,28667.6
48916.8,28673.3
48921.4,28679.5
48925.3,28686.1
48928.7,28693.1
48931.3,28700.4
48933.1,28707.9
48934.3,28715.5
48934.6,28723.2
48934.6,29313.8
48934.3,29321.5
48933.1,29329.1
48931.3,29336.6
48928.7,29343.9
48925.3,29350.9
48921.4,29357.5
48916.8,29363.7
48911.6,29369.5
48905.9,29374.6
48899.7,29379.2
48893,29383.2
48886,29386.5
48878.8,29389.1
48871.3,29391
48863.6,29392.1
48855.9,29392.5
48344.1,29392.5
48336.4,29392.1
48328.7,29391
48321.2,29389.1
48314,29386.5
48307,29383.2
48300.3,29379.2
48294.1,29374.6
48288.4,29369.5
48283.2,29363.7
48278.6,29357.5
48274.7,29350.9
48271.3,29343.9
48268.7,29336.6
48266.9,29329.1
48265.7,29321.5
48265.4,29313.8
48265.4,28723.2
48265.7,28715.5
48266.9,28707.9
48268.7,28700.4
48271.3,28693.1
48274.7,28686.1
48278.6,28679.5
48283.2,28673.3
48288.4,28667.6
48294.1,28662.4
48300.3,28657.8
48307,28653.8
48314,28650.5
48321.2,28647.9
48328.7,28646
48336.4,28644.9
48344.1,28644.5
48855.9,28644.5
Z" /> 
</g>
<g >
</g>
<g style="fill:#000000; fill-opacity:1.0; 
stroke:#000000; stroke-width:0; stroke-opacity:1; 
stroke-linecap:round; stroke-linejoin:round;">
<path style="fill:#000000; fill-opacity:1.0; 
stroke:#000000; stroke-width:0; stroke-opacity:1; 
stroke-linecap:round; stroke-linejoin:round;fill-rule:evenodd;"
d="M 55884.9,49670.9
55892.5,49672
55900,49673.9
55907.3,49676.5
55914.3,49679.8
55920.9,49683.7
55927.1,49688.3
55932.8,49693.5
55938,49699.3
55942.6,49705.5
55946.6,49712.1
55949.9,49719.1
55952.5,49726.4
55954.4,49733.9
55955.5,49741.5
55955.9,49749.2
55955.9,50650.8
55955.5,50658.5
55954.4,50666.1
55952.5,50673.6
55949.9,50680.9
55946.6,50687.9
55942.6,50694.5
55938,50700.7
55932.8,50706.5
55927.1,50711.7
55920.9,50716.3
55914.3,50720.2
55907.3,50723.5
55900,50726.1
55892.5,50728
55884.9,50729.1
55877.2,50729.5
53877.2,50729.5
53869.4,50729.1
53861.8,50728
53854.3,50726.1
53847,50723.5
53840,50720.2
53833.4,50716.3
53827.2,50711.7
53821.5,50706.5
53816.3,50700.7
53811.7,50694.5
53807.7,50687.9
53804.4,50680.9
53801.8,50673.6
53799.9,50666.1
53798.8,50658.5
53798.4,50650.8
53798.4,49749.2
53798.8,49741.5
53799.9,49733.9
53801.8,49726.4
53804.4,49719.1
53807.7,49712.1
53811.7,49705.5
53816.3,49699.3
53821.5,49693.5
53827.2,49688.3
53833.4,49683.7
53840,49679.8
53847,49676.5
53854.3,49673.9
53861.8,49672
53869.4,49670.9
53877.2,49670.5
55877.2,49670.5
Z" /> 
<path style="fill:#000000; fill-opacity:1.0; 
stroke:#000000; stroke-width:0; stroke-opacity:1; 
stroke-linecap:round; stroke-linejoin:round;fill-rule:evenodd;"
d="M 55884.9,51369.7
55892.5,51370.8
55900,51372.7
55907.3,51375.3
55914.3,51378.6
55920.9,51382.6
55927.1,51387.2
55932.8,51392.4
55938,51398.1
55942.6,51404.3
55946.6,51410.9
55949.9,51417.9
55952.5,51425.2
55954.4,51432.7
55955.5,51440.3
55955.9,51448
55955.9,52400.8
55955.5,52408.5
55954.4,52416.1
55952.5,52423.6
55949.9,52430.9
55946.6,52437.9
55942.6,52444.5
55938,52450.7
55932.8,52456.5
55927.1,52461.7
55920.9,52466.3
55914.3,52470.2
55907.3,52473.5
55900,52476.1
55892.5,52478
55884.9,52479.1
55877.2,52479.5
53877.2,52479.5
53869.4,52479.1
53861.8,52478
53854.3,52476.1
53847,52473.5
53840,52470.2
53833.4,52466.3
53827.2,52461.7
53821.5,52456.5
53816.3,52450.7
53811.7,52444.5
53807.7,52437.9
53804.4,52430.9
53801.8,52423.6
53799.9,52416.1
53798.8,52408.5
53798.4,52400.8
53798.4,51448
53798.8,51440.3
53799.9,51432.7
53801.8,51425.2
53804.4,51417.9
53807.7,51410.9
53811.7,51404.3
53816.3,51398.1
53821.5,51392.4
53827.2,51387.2
53833.4,51382.6
53840,51378.6
53847,51375.3
53854.3,51372.7
53861.8,51370.8
53869.4,51369.7
53877.2,51369.3
55877.2,51369.3
Z" /> 
<path style="fill:#000000; fill-opacity:1.0; 
stroke:#000000; stroke-width:0; stroke-opacity:1; 
stroke-linecap:round; stroke-linejoin:round;fill-rule:evenodd;"
d="M 55884.9,47920.9
55892.5,47922
55900,47923.9
55907.3,47926.5
55914.3,47929.8
55920.9,47933.7
55927.1,47938.3
55932.8,47943.5
55938,47949.3
55942.6,47955.5
55946.6,47962.1
55949.9,47969.1
55952.5,47976.4
55954.4,47983.9
55955.5,47991.5
55955.9,47999.2
55955.9,48952
55955.5,48959.7
55954.4,48967.3
55952.5,48974.8
55949.9,48982.1
55946.6,48989.1
55942.6,48995.7
55938,49001.9
55932.8,49007.6
55927.1,49012.8
55920.9,49017.4
55914.3,49021.4
55907.3,49024.7
55900,49027.3
55892.5,49029.2
55884.9,49030.3
55877.2,49030.7
53877.2,49030.7
53869.4,49030.3
53861.8,49029.2
53854.3,49027.3
53847,49024.7
53840,49021.4
53833.4,49017.4
53827.2,49012.8
53821.5,49007.6
53816.3,49001.9
53811.7,48995.7
53807.7,48989.1
53804.4,48982.1
53801.8,48974.8
53799.9,48967.3
53798.8,48959.7
53798.4,48952
53798.4,47999.2
53798.8,47991.5
53799.9,47983.9
53801.8,47976.4
53804.4,47969.1
53807.7,47962.1
53811.7,47955.5
53816.3,47949.3
53821.5,47943.5
53827.2,47938.3
53833.4,47933.7
53840,47929.8
53847,47926.5
53854.3,47923.9
53861.8,47922
53869.4,47920.9
53877.2,47920.5
55877.2,47920.5
Z" /> 
</g>
<g >
</g>
<g style="fill:#000000; fill-opacity:1.0; 
stroke:#000000; stroke-width:0; stroke-opacity:1; 
stroke-linecap:round; stroke-linejoin:round;">
<path style="fill:#000000; fill-opacity:1.0; 
stroke:#000000; stroke-width:0; stroke-opacity:1; 
stroke-linecap:round; stroke-linejoin:round;fill-rule:evenodd;"
d="M 55442.4,31537
55450,31538.1
55457.5,31540
55464.8,31542.6
55471.8,31545.9
55478.4,31549.9
55484.6,31554.5
55490.3,31559.7
55495.5,31565.4
55500.1,31571.6
55504.1,31578.2
55507.4,31585.2
55510,31592.5
55511.9,31600
55513,31607.6
55513.4,31615.4
55513.4,32284.6
55513,32292.4
55511.9,32300
55510,32307.5
55507.4,32314.8
55504.1,32321.8
55500.1,32328.4
55495.5,32334.6
55490.3,32340.3
55484.6,32345.5
55478.4,32350.1
55471.8,32354.1
55464.8,32357.4
55457.5,32360
55450,32361.9
55442.4,32363
55434.6,32363.4
54765.4,32363.4
54757.6,32363
54750,32361.9
54742.5,32360
54735.2,32357.4
54728.2,32354.1
54721.6,32350.1
54715.4,32345.5
54709.7,32340.3
54704.5,32334.6
54699.9,32328.4
54695.9,32321.8
54692.6,32314.8
54690,32307.5
54688.1,32300
54687,32292.4
54686.6,32284.6
54686.6,31615.4
54687,31607.6
54688.1,31600
54690,31592.5
54692.6,31585.2
54695.9,31578.2
54699.9,31571.6
54704.5,31565.4
54709.7,31559.7
54715.4,31554.5
54721.6,31549.9
54728.2,31545.9
54735.2,31542.6
54742.5,31540
54750,31538.1
54757.6,31537
54765.4,31536.6
55434.6,31536.6
Z" /> 
<circle cx="55100" cy="30950" r="413.386" /> 
<circle cx="55100" cy="29950" r="413.386" /> 
<circle cx="55100" cy="28950" r="413.386" /> 
</g>
<g >
</g>
<g style="fill:#000000; fill-opacity:1.0; 
stroke:#000000; stroke-width:0; stroke-opacity:1; 
stroke-linecap:round; stroke-linejoin:round;">
<path style="fill:#000000; fill-opacity:1.0; 
stroke:#000000; stroke-width:0; stroke-opacity:1; 
stroke-linecap:round; stroke-linejoin:round;fill-rule:evenodd;"
d="M 38744.5,47335.7
38752.1,47336.9
38759.6,47338.7
38766.9,47341.3
38773.9,47344.7
38780.5,47348.6
38786.7,47353.2
38792.4,47358.4
38797.6,47364.1
38802.2,47370.3
38806.2,47377
38809.5,47384
38812.1,47391.2
38814,47398.7
38815.1,47406.4
38815.5,47414.1
38815.5,47925.9
38815.1,47933.6
38814,47941.3
38812.1,47948.8
38809.5,47956
38806.2,47963
38802.2,47969.7
38797.6,47975.9
38792.4,47981.6
38786.7,47986.8
38780.5,47991.4
38773.9,47995.3
38766.9,47998.7
38759.6,48001.3
38752.1,48003.1
38744.5,48004.3
38736.8,48004.6
38146.2,48004.6
38138.5,48004.3
38130.9,48003.1
38123.4,48001.3
38116.1,47998.7
38109.1,47995.3
38102.5,47991.4
38096.3,47986.8
38090.5,47981.6
38085.4,47975.9
38080.8,47969.7
38076.8,47963
38073.5,47956
38070.9,47948.8
38069,47941.3
38067.9,47933.6
38067.5,47925.9
38067.5,47414.1
38067.9,47406.4
38069,47398.7
38070.9,47391.2
38073.5,47384
38076.8,47377
38080.8,47370.3
38085.4,47364.1
38090.5,47358.4
38096.3,47353.2
38102.5,47348.6
38109.1,47344.7
38116.1,47341.3
38123.4,47338.7
38130.9,47336.9
38138.5,47335.7
38146.2,47335.4
38736.8,47335.4
Z" /> 
<path style="fill:#000000; fill-opacity:1.0; 
stroke:#000000; stroke-width:0; stroke-opacity:1; 
stroke-linecap:round; stroke-linejoin:round;fill-rule:evenodd;"
d="M 37681.5,47335.7
37689.1,47336.9
37696.6,47338.7
37703.9,47341.3
37710.9,47344.7
37717.5,47348.6
37723.7,47353.2
37729.5,47358.4
37734.6,47364.1
37739.2,47370.3
37743.2,47377
37746.5,47384
37749.1,47391.2
37751,47398.7
37752.1,47406.4
37752.5,47414.1
37752.5,47925.9
37752.1,47933.6
37751,47941.3
37749.1,47948.8
37746.5,47956
37743.2,47963
37739.2,47969.7
37734.6,47975.9
37729.5,47981.6
37723.7,47986.8
37717.5,47991.4
37710.9,47995.3
37703.9,47998.7
37696.6,48001.3
37689.1,48003.1
37681.5,48004.3
37673.8,48004.6
37083.2,48004.6
37075.5,48004.3
37067.9,48003.1
37060.4,48001.3
37053.1,47998.7
37046.1,47995.3
37039.5,47991.4
37033.3,47986.8
37027.6,47981.6
37022.4,47975.9
37017.8,47969.7
37013.8,47963
37010.5,47956
37007.9,47948.8
37006,47941.3
37004.9,47933.6
37004.5,47925.9
37004.5,47414.1
37004.9,47406.4
37006,47398.7
37007.9,47391.2
37010.5,47384
37013.8,47377
37017.8,47370.3
37022.4,47364.1
37027.6,47358.4
37033.3,47353.2
37039.5,47348.6
37046.1,47344.7
37053.1,47341.3
37060.4,47338.7
37067.9,47336.9
37075.5,47335.7
37083.2,47335.4
37673.8,47335.4
Z" /> 
</g>
<g >
</g>
<g style="fill:#000000; fill-opacity:1.0; 
stroke:#000000; stroke-width:0; stroke-opacity:1; 
stroke-linecap:round; stroke-linejoin:round;">
<path style="fill:#000000; fill-opacity:1.0; 
stroke:#000000; stroke-width:0; stroke-opacity:1; 
stroke-linecap:round; stroke-linejoin:round;fill-rule:evenodd;"
d="M 37643.6,42997.9
37651.3,42999
37658.8,43000.9
37666,43003.5
37673,43006.8
37679.7,43010.8
37685.9,43015.4
37691.6,43020.5
37696.8,43026.3
37701.4,43032.5
37705.3,43039.1
37708.7,43046.1
37711.3,43053.4
37713.1,43060.9
37714.3,43068.5
37714.6,43076.2
37714.6,43666.8
37714.3,43674.5
37713.1,43682.1
37711.3,43689.6
37708.7,43696.9
37705.3,43703.9
37701.4,43710.5
37696.8,43716.7
37691.6,43722.4
37685.9,43727.6
37679.7,43732.2
37673,43736.2
37666,43739.5
37658.8,43742.1
37651.3,43744
37643.6,43745.1
37635.9,43745.5
37124.1,43745.5
37116.4,43745.1
37108.7,43744
37101.2,43742.1
37094,43739.5
37087,43736.2
37080.3,43732.2
37074.1,43727.6
37068.4,43722.4
37063.2,43716.7
37058.6,43710.5
37054.7,43703.9
37051.3,43696.9
37048.7,43689.6
37046.9,43682.1
37045.7,43674.5
37045.4,43666.8
37045.4,43076.2
37045.7,43068.5
37046.9,43060.9
37048.7,43053.4
37051.3,43046.1
37054.7,43039.1
37058.6,43032.5
37063.2,43026.3
37068.4,43020.5
37074.1,43015.4
37080.3,43010.8
37087,43006.8
37094,43003.5
37101.2,43000.9
37108.7,42999
37116.4,42997.9
37124.1,42997.5
37635.9,42997.5
Z" /> 
<path style="fill:#000000; fill-opacity:1.0; 
stroke:#000000; stroke-width:0; stroke-opacity:1; 
stroke-linecap:round; stroke-linejoin:round;fill-rule:evenodd;"
d="M 37643.6,41934.9
37651.3,41936
37658.8,41937.9
37666,41940.5
37673,41943.8
37679.7,41947.8
37685.9,41952.4
37691.6,41957.6
37696.8,41963.3
37701.4,41969.5
37705.3,41976.1
37708.7,41983.1
37711.3,41990.4
37713.1,41997.9
37714.3,42005.5
37714.6,42013.2
37714.6,42603.8
37714.3,42611.5
37713.1,42619.1
37711.3,42626.6
37708.7,42633.9
37705.3,42640.9
37701.4,42647.5
37696.8,42653.7
37691.6,42659.5
37685.9,42664.6
37679.7,42669.2
37673,42673.2
37666,42676.5
37658.8,42679.1
37651.3,42681
37643.6,42682.1
37635.9,42682.5
37124.1,42682.5
37116.4,42682.1
37108.7,42681
37101.2,42679.1
37094,42676.5
37087,42673.2
37080.3,42669.2
37074.1,42664.6
37068.4,42659.5
37063.2,42653.7
37058.6,42647.5
37054.7,42640.9
37051.3,42633.9
37048.7,42626.6
37046.9,42619.1
37045.7,42611.5
37045.4,42603.8
37045.4,42013.2
37045.7,42005.5
37046.9,41997.9
37048.7,41990.4
37051.3,41983.1
37054.7,41976.1
37058.6,41969.5
37063.2,41963.3
37068.4,41957.6
37074.1,41952.4
37080.3,41947.8
37087,41943.8
37094,41940.5
37101.2,41937.9
37108.7,41936
37116.4,41934.9
37124.1,41934.5
37635.9,41934.5
Z" /> 
</g>
<g >
</g>
<g style="fill:#000000; fill-opacity:1.0; 
stroke:#000000; stroke-width:0; stroke-opacity:1; 
stroke-linecap:round; stroke-linejoin:round;">
<path style="fill:#000000; fill-opacity:1.0; 
stroke:#000000; stroke-width:0; stroke-opacity:1; 
stroke-linecap:round; stroke-linejoin:round;fill-rule:evenodd;"
d="M 37643.6,49967.9
37651.3,49969
37658.8,49970.9
37666,49973.5
37673,49976.8
37679.7,49980.8
37685.9,49985.4
37691.6,49990.5
37696.8,49996.3
37701.4,50002.5
37705.3,50009.1
37708.7,50016.1
37711.3,50023.4
37713.1,50030.9
37714.3,50038.5
37714.6,50046.2
37714.6,50636.8
37714.3,50644.5
37713.1,50652.1
37711.3,50659.6
37708.7,50666.9
37705.3,50673.9
37701.4,50680.5
37696.8,50686.7
37691.6,50692.4
37685.9,50697.6
37679.7,50702.2
37673,50706.2
37666,50709.5
37658.8,50712.1
37651.3,50714
37643.6,50715.1
37635.9,50715.5
37124.1,50715.5
37116.4,50715.1
37108.7,50714
37101.2,50712.1
37094,50709.5
37087,50706.2
37080.3,50702.2
37074.1,50697.6
37068.4,50692.4
37063.2,50686.7
37058.6,50680.5
37054.7,50673.9
37051.3,50666.9
37048.7,50659.6
37046.9,50652.1
37045.7,50644.5
37045.4,50636.8
37045.4,50046.2
37045.7,50038.5
37046.9,50030.9
37048.7,50023.4
37051.3,50016.1
37054.7,50009.1
37058.6,50002.5
37063.2,49996.3
37068.4,49990.5
37074.1,49985.4
37080.3,49980.8
37087,49976.8
37094,49973.5
37101.2,49970.9
37108.7,49969
37116.4,49967.9
37124.1,49967.5
37635.9,49967.5
Z" /> 
<path style="fill:#000000; fill-opacity:1.0; 
stroke:#000000; stroke-width:0; stroke-opacity:1; 
stroke-linecap:round; stroke-linejoin:round;fill-rule:evenodd;"
d="M 37643.6,48904.9
37651.3,48906
37658.8,48907.9
37666,48910.5
37673,48913.8
37679.7,48917.8
37685.9,48922.4
37691.6,48927.6
37696.8,48933.3
37701.4,48939.5
37705.3,48946.1
37708.7,48953.1
37711.3,48960.4
37713.1,48967.9
37714.3,48975.5
37714.6,48983.2
37714.6,49573.8
37714.3,49581.5
37713.1,49589.1
37711.3,49596.6
37708.7,49603.9
37705.3,49610.9
37701.4,49617.5
37696.8,49623.7
37691.6,49629.5
37685.9,49634.6
37679.7,49639.2
37673,49643.2
37666,49646.5
37658.8,49649.1
37651.3,49651
37643.6,49652.1
37635.9,49652.5
37124.1,49652.5
37116.4,49652.1
37108.7,49651
37101.2,49649.1
37094,49646.5
37087,49643.2
37080.3,49639.2
37074.1,49634.6
37068.4,49629.5
37063.2,49623.7
37058.6,49617.5
37054.7,49610.9
37051.3,49603.9
37048.7,49596.6
37046.9,49589.1
37045.7,49581.5
37045.4,49573.8
37045.4,48983.2
37045.7,48975.5
37046.9,48967.9
37048.7,48960.4
37051.3,48953.1
37054.7,48946.1
37058.6,48939.5
37063.2,48933.3
37068.4,48927.6
37074.1,48922.4
37080.3,48917.8
37087,48913.8
37094,48910.5
37101.2,48907.9
37108.7,48906
37116.4,48904.9
37124.1,48904.5
37635.9,48904.5
Z" /> 
</g>
<g >
</g>
<g style="fill:#000000; fill-opacity:1.0; 
stroke:#000000; stroke-width:0; stroke-opacity:1; 
stroke-linecap:round; stroke-linejoin:round;">
<path style="fill:#000000; fill-opacity:1.0; 
stroke:#000000; stroke-width:0; stroke-opacity:1; 
stroke-linecap:round; stroke-linejoin:round;fill-rule:evenodd;"
d="M 37643.6,28694.9
37651.3,28696
37658.8,28697.9
37666,28700.5
37673,28703.8
37679.7,28707.8
37685.9,28712.4
37691.6,28717.6
37696.8,28723.3
37701.4,28729.5
37705.3,28736.1
37708.7,28743.1
37711.3,28750.4
37713.1,28757.9
37714.3,28765.5
37714.6,28773.2
37714.6,29363.8
37714.3,29371.5
37713.1,29379.1
37711.3,29386.6
37708.7,29393.9
37705.3,29400.9
37701.4,29407.5
37696.8,29413.7
37691.6,29419.5
37685.9,29424.6
37679.7,29429.2
37673,29433.2
37666,29436.5
37658.8,29439.1
37651.3,29441
37643.6,29442.1
37635.9,29442.5
37124.1,29442.5
37116.4,29442.1
37108.7,29441
37101.2,29439.1
37094,29436.5
37087,29433.2
37080.3,29429.2
37074.1,29424.6
37068.4,29419.5
37063.2,29413.7
37058.6,29407.5
37054.7,29400.9
37051.3,29393.9
37048.7,29386.6
37046.9,29379.1
37045.7,29371.5
37045.4,29363.8
37045.4,28773.2
37045.7,28765.5
37046.9,28757.9
37048.7,28750.4
37051.3,28743.1
37054.7,28736.1
37058.6,28729.5
37063.2,28723.3
37068.4,28717.6
37074.1,28712.4
37080.3,28707.8
37087,28703.8
37094,28700.5
37101.2,28697.9
37108.7,28696
37116.4,28694.9
37124.1,28694.5
37635.9,28694.5
Z" /> 
<path style="fill:#000000; fill-opacity:1.0; 
stroke:#000000; stroke-width:0; stroke-opacity:1; 
stroke-linecap:round; stroke-linejoin:round;fill-rule:evenodd;"
d="M 37643.6,29757.9
37651.3,29759
37658.8,29760.9
37666,29763.5
37673,29766.8
37679.7,29770.8
37685.9,29775.4
37691.6,29780.5
37696.8,29786.3
37701.4,29792.5
37705.3,29799.1
37708.7,29806.1
37711.3,29813.4
37713.1,29820.9
37714.3,29828.5
37714.6,29836.2
37714.6,30426.8
37714.3,30434.5
37713.1,30442.1
37711.3,30449.6
37708.7,30456.9
37705.3,30463.9
37701.4,30470.5
37696.8,30476.7
37691.6,30482.4
37685.9,30487.6
37679.7,30492.2
37673,30496.2
37666,30499.5
37658.8,30502.1
37651.3,30504
37643.6,30505.1
37635.9,30505.5
37124.1,30505.5
37116.4,30505.1
37108.7,30504
37101.2,30502.1
37094,30499.5
37087,30496.2
37080.3,30492.2
37074.1,30487.6
37068.4,30482.4
37063.2,30476.7
37058.6,30470.5
37054.7,30463.9
37051.3,30456.9
37048.7,30449.6
37046.9,30442.1
37045.7,30434.5
37045.4,30426.8
37045.4,29836.2
37045.7,29828.5
37046.9,29820.9
37048.7,29813.4
37051.3,29806.1
37054.7,29799.1
37058.6,29792.5
37063.2,29786.3
37068.4,29780.5
37074.1,29775.4
37080.3,29770.8
37087,29766.8
37094,29763.5
37101.2,29760.9
37108.7,29759
37116.4,29757.9
37124.1,29757.5
37635.9,29757.5
Z" /> 
</g>
<g >
</g>
<g style="fill:#000000; fill-opacity:1.0; 
stroke:#000000; stroke-width:0; stroke-opacity:1; 
stroke-linecap:round; stroke-linejoin:round;">
<path style="fill:#000000; fill-opacity:1.0; 
stroke:#000000; stroke-width:0; stroke-opacity:1; 
stroke-linecap:round; stroke-linejoin:round;fill-rule:evenodd;"
d="M 50113.6,29707.9
50121.3,29709
50128.8,29710.9
50136,29713.5
50143,29716.8
50149.7,29720.8
50155.9,29725.4
50161.6,29730.5
50166.8,29736.3
50171.4,29742.5
50175.3,29749.1
50178.7,29756.1
50181.3,29763.4
50183.1,29770.9
50184.3,29778.5
50184.6,29786.2
50184.6,30376.8
50184.3,30384.5
50183.1,30392.1
50181.3,30399.6
50178.7,30406.9
50175.3,30413.9
50171.4,30420.5
50166.8,30426.7
50161.6,30432.4
50155.9,30437.6
50149.7,30442.2
50143,30446.2
50136,30449.5
50128.8,30452.1
50121.3,30454
50113.6,30455.1
50105.9,30455.5
49594.1,30455.5
49586.4,30455.1
49578.7,30454
49571.2,30452.1
49564,30449.5
49557,30446.2
49550.3,30442.2
49544.1,30437.6
49538.4,30432.4
49533.2,30426.7
49528.6,30420.5
49524.7,30413.9
49521.3,30406.9
49518.7,30399.6
49516.9,30392.1
49515.7,30384.5
49515.4,30376.8
49515.4,29786.2
49515.7,29778.5
49516.9,29770.9
49518.7,29763.4
49521.3,29756.1
49524.7,29749.1
49528.6,29742.5
49533.2,29736.3
49538.4,29730.5
49544.1,29725.4
49550.3,29720.8
49557,29716.8
49564,29713.5
49571.2,29710.9
49578.7,29709
49586.4,29707.9
49594.1,29707.5
50105.9,29707.5
Z" /> 
<path style="fill:#000000; fill-opacity:1.0; 
stroke:#000000; stroke-width:0; stroke-opacity:1; 
stroke-linecap:round; stroke-linejoin:round;fill-rule:evenodd;"
d="M 50113.6,28644.9
50121.3,28646
50128.8,28647.9
50136,28650.5
50143,28653.8
50149.7,28657.8
50155.9,28662.4
50161.6,28667.6
50166.8,28673.3
50171.4,28679.5
50175.3,28686.1
50178.7,28693.1
50181.3,28700.4
50183.1,28707.9
50184.3,28715.5
50184.6,28723.2
50184.6,29313.8
50184.3,29321.5
50183.1,29329.1
50181.3,29336.6
50178.7,29343.9
50175.3,29350.9
50171.4,29357.5
50166.8,29363.7
50161.6,29369.5
50155.9,29374.6
50149.7,29379.2
50143,29383.2
50136,29386.5
50128.8,29389.1
50121.3,29391
50113.6,29392.1
50105.9,29392.5
49594.1,29392.5
49586.4,29392.1
49578.7,29391
49571.2,29389.1
49564,29386.5
49557,29383.2
49550.3,29379.2
49544.1,29374.6
49538.4,29369.5
49533.2,29363.7
49528.6,29357.5
49524.7,29350.9
49521.3,29343.9
49518.7,29336.6
49516.9,29329.1
49515.7,29321.5
49515.4,29313.8
49515.4,28723.2
49515.7,28715.5
49516.9,28707.9
49518.7,28700.4
49521.3,28693.1
49524.7,28686.1
49528.6,28679.5
49533.2,28673.3
49538.4,28667.6
49544.1,28662.4
49550.3,28657.8
49557,28653.8
49564,28650.5
49571.2,28647.9
49578.7,28646
49586.4,28644.9
49594.1,28644.5
50105.9,28644.5
Z" /> 
</g>
<g >
</g>
<g style="fill:#000000; fill-opacity:1.0; 
stroke:#000000; stroke-width:0; stroke-opacity:1; 
stroke-linecap:round; stroke-linejoin:round;">
<path style="fill:#000000; fill-opacity:1.0; 
stroke:#000000; stroke-width:0; stroke-opacity:1; 
stroke-linecap:round; stroke-linejoin:round;fill-rule:evenodd;"
d="M 37643.6,35874.9
37651.3,35876
37658.8,35877.9
37666,35880.5
37673,35883.8
37679.7,35887.8
37685.9,35892.4
37691.6,35897.6
37696.8,35903.3
37701.4,35909.5
37705.3,35916.1
37708.7,35923.1
37711.3,35930.4
37713.1,35937.9
37714.3,35945.5
37714.6,35953.2
37714.6,36543.8
37714.3,36551.5
37713.1,36559.1
37711.3,36566.6
37708.7,36573.9
37705.3,36580.9
37701.4,36587.5
37696.8,36593.7
37691.6,36599.5
37685.9,36604.6
37679.7,36609.2
37673,36613.2
37666,36616.5
37658.8,36619.1
37651.3,36621
37643.6,36622.1
37635.9,36622.5
37124.1,36622.5
37116.4,36622.1
37108.7,36621
37101.2,36619.1
37094,36616.5
37087,36613.2
37080.3,36609.2
37074.1,36604.6
37068.4,36599.5
37063.2,36593.7
37058.6,36587.5
37054.7,36580.9
37051.3,36573.9
37048.7,36566.6
37046.9,36559.1
37045.7,36551.5
37045.4,36543.8
37045.4,35953.2
37045.7,35945.5
37046.9,35937.9
37048.7,35930.4
37051.3,35923.1
37054.7,35916.1
37058.6,35909.5
37063.2,35903.3
37068.4,35897.6
37074.1,35892.4
37080.3,35887.8
37087,35883.8
37094,35880.5
37101.2,35877.9
37108.7,35876
37116.4,35874.9
37124.1,35874.5
37635.9,35874.5
Z" /> 
<path style="fill:#000000; fill-opacity:1.0; 
stroke:#000000; stroke-width:0; stroke-opacity:1; 
stroke-linecap:round; stroke-linejoin:round;fill-rule:evenodd;"
d="M 37643.6,36937.9
37651.3,36939
37658.8,36940.9
37666,36943.5
37673,36946.8
37679.7,36950.8
37685.9,36955.4
37691.6,36960.5
37696.8,36966.3
37701.4,36972.5
37705.3,36979.1
37708.7,36986.1
37711.3,36993.4
37713.1,37000.9
37714.3,37008.5
37714.6,37016.2
37714.6,37606.8
37714.3,37614.5
37713.1,37622.1
37711.3,37629.6
37708.7,37636.9
37705.3,37643.9
37701.4,37650.5
37696.8,37656.7
37691.6,37662.4
37685.9,37667.6
37679.7,37672.2
37673,37676.2
37666,37679.5
37658.8,37682.1
37651.3,37684
37643.6,37685.1
37635.9,37685.5
37124.1,37685.5
37116.4,37685.1
37108.7,37684
37101.2,37682.1
37094,37679.5
37087,37676.2
37080.3,37672.2
37074.1,37667.6
37068.4,37662.4
37063.2,37656.7
37058.6,37650.5
37054.7,37643.9
37051.3,37636.9
37048.7,37629.6
37046.9,37622.1
37045.7,37614.5
37045.4,37606.8
37045.4,37016.2
37045.7,37008.5
37046.9,37000.9
37048.7,36993.4
37051.3,36986.1
37054.7,36979.1
37058.6,36972.5
37063.2,36966.3
37068.4,36960.5
37074.1,36955.4
37080.3,36950.8
37087,36946.8
37094,36943.5
37101.2,36940.9
37108.7,36939
37116.4,36937.9
37124.1,36937.5
37635.9,36937.5
Z" /> 
</g>
<g >
</g>
<g style="fill:#000000; fill-opacity:1.0; 
stroke:#000000; stroke-width:0; stroke-opacity:1; 
stroke-linecap:round; stroke-linejoin:round;">
<path style="fill:#000000; fill-opacity:1.0; 
stroke:#000000; stroke-width:0; stroke-opacity:1; 
stroke-linecap:round; stroke-linejoin:round;fill-rule:evenodd;"
d="M 37681.5,34575.7
37689.1,34576.9
37696.6,34578.7
37703.9,34581.3
37710.9,34584.7
37717.5,34588.6
37723.7,34593.2
37729.5,34598.4
37734.6,34604.1
37739.2,34610.3
37743.2,34617
37746.5,34624
37749.1,34631.2
37751,34638.7
37752.1,34646.4
37752.5,34654.1
37752.5,35165.9
37752.1,35173.6
37751,35181.3
37749.1,35188.8
37746.5,35196
37743.2,35203
37739.2,35209.7
37734.6,35215.9
37729.5,35221.6
37723.7,35226.8
37717.5,35231.4
37710.9,35235.3
37703.9,35238.7
37696.6,35241.3
37689.1,35243.1
37681.5,35244.3
37673.8,35244.6
37083.2,35244.6
37075.5,35244.3
37067.9,35243.1
37060.4,35241.3
37053.1,35238.7
37046.1,35235.3
37039.5,35231.4
37033.3,35226.8
37027.6,35221.6
37022.4,35215.9
37017.8,35209.7
37013.8,35203
37010.5,35196
37007.9,35188.8
37006,35181.3
37004.9,35173.6
37004.5,35165.9
37004.5,34654.1
37004.9,34646.4
37006,34638.7
37007.9,34631.2
37010.5,34624
37013.8,34617
37017.8,34610.3
37022.4,34604.1
37027.6,34598.4
37033.3,34593.2
37039.5,34588.6
37046.1,34584.7
37053.1,34581.3
37060.4,34578.7
37067.9,34576.9
37075.5,34575.7
37083.2,34575.4
37673.8,34575.4
Z" /> 
<path style="fill:#000000; fill-opacity:1.0; 
stroke:#000000; stroke-width:0; stroke-opacity:1; 
stroke-linecap:round; stroke-linejoin:round;fill-rule:evenodd;"
d="M 38744.5,34575.7
38752.1,34576.9
38759.6,34578.7
38766.9,34581.3
38773.9,34584.7
38780.5,34588.6
38786.7,34593.2
38792.4,34598.4
38797.6,34604.1
38802.2,34610.3
38806.2,34617
38809.5,34624
38812.1,34631.2
38814,34638.7
38815.1,34646.4
38815.5,34654.1
38815.5,35165.9
38815.1,35173.6
38814,35181.3
38812.1,35188.8
38809.5,35196
38806.2,35203
38802.2,35209.7
38797.6,35215.9
38792.4,35221.6
38786.7,35226.8
38780.5,35231.4
38773.9,35235.3
38766.9,35238.7
38759.6,35241.3
38752.1,35243.1
38744.5,35244.3
38736.8,35244.6
38146.2,35244.6
38138.5,35244.3
38130.9,35243.1
38123.4,35241.3
38116.1,35238.7
38109.1,35235.3
38102.5,35231.4
38096.3,35226.8
38090.5,35221.6
38085.4,35215.9
38080.8,35209.7
38076.8,35203
38073.5,35196
38070.9,35188.8
38069,35181.3
38067.9,35173.6
38067.5,35165.9
38067.5,34654.1
38067.9,34646.4
38069,34638.7
38070.9,34631.2
38073.5,34624
38076.8,34617
38080.8,34610.3
38085.4,34604.1
38090.5,34598.4
38096.3,34593.2
38102.5,34588.6
38109.1,34584.7
38116.1,34581.3
38123.4,34578.7
38130.9,34576.9
38138.5,34575.7
38146.2,34575.4
38736.8,34575.4
Z" /> 
</g>
<g >
</g>
<g style="fill:#000000; fill-opacity:1.0; 
stroke:#000000; stroke-width:0; stroke-opacity:1; 
stroke-linecap:round; stroke-linejoin:round;">
<path style="fill:#000000; fill-opacity:1.0; 
stroke:#000000; stroke-width:0; stroke-opacity:1; 
stroke-linecap:round; stroke-linejoin:round;fill-rule:evenodd;"
d="M 37643.6,32184.9
37651.3,32186
37658.8,32187.9
37666,32190.5
37673,32193.8
37679.7,32197.8
37685.9,32202.4
37691.6,32207.6
37696.8,32213.3
37701.4,32219.5
37705.3,32226.1
37708.7,32233.1
37711.3,32240.4
37713.1,32247.9
37714.3,32255.5
37714.6,32263.2
37714.6,32853.8
37714.3,32861.5
37713.1,32869.1
37711.3,32876.6
37708.7,32883.9
37705.3,32890.9
37701.4,32897.5
37696.8,32903.7
37691.6,32909.5
37685.9,32914.6
37679.7,32919.2
37673,32923.2
37666,32926.5
37658.8,32929.1
37651.3,32931
37643.6,32932.1
37635.9,32932.5
37124.1,32932.5
37116.4,32932.1
37108.7,32931
37101.2,32929.1
37094,32926.5
37087,32923.2
37080.3,32919.2
37074.1,32914.6
37068.4,32909.5
37063.2,32903.7
37058.6,32897.5
37054.7,32890.9
37051.3,32883.9
37048.7,32876.6
37046.9,32869.1
37045.7,32861.5
37045.4,32853.8
37045.4,32263.2
37045.7,32255.5
37046.9,32247.9
37048.7,32240.4
37051.3,32233.1
37054.7,32226.1
37058.6,32219.5
37063.2,32213.3
37068.4,32207.6
37074.1,32202.4
37080.3,32197.8
37087,32193.8
37094,32190.5
37101.2,32187.9
37108.7,32186
37116.4,32184.9
37124.1,32184.5
37635.9,32184.5
Z" /> 
<path style="fill:#000000; fill-opacity:1.0; 
stroke:#000000; stroke-width:0; stroke-opacity:1; 
stroke-linecap:round; stroke-linejoin:round;fill-rule:evenodd;"
d="M 37643.6,33247.9
37651.3,33249
37658.8,33250.9
37666,33253.5
37673,33256.8
37679.7,33260.8
37685.9,33265.4
37691.6,33270.5
37696.8,33276.3
37701.4,33282.5
37705.3,33289.1
37708.7,33296.1
37711.3,33303.4
37713.1,33310.9
37714.3,33318.5
37714.6,33326.2
37714.6,33916.8
37714.3,33924.5
37713.1,33932.1
37711.3,33939.6
37708.7,33946.9
37705.3,33953.9
37701.4,33960.5
37696.8,33966.7
37691.6,33972.4
37685.9,33977.6
37679.7,33982.2
37673,33986.2
37666,33989.5
37658.8,33992.1
37651.3,33994
37643.6,33995.1
37635.9,33995.5
37124.1,33995.5
37116.4,33995.1
37108.7,33994
37101.2,33992.1
37094,33989.5
37087,33986.2
37080.3,33982.2
37074.1,33977.6
37068.4,33972.4
37063.2,33966.7
37058.6,33960.5
37054.7,33953.9
37051.3,33946.9
37048.7,33939.6
37046.9,33932.1
37045.7,33924.5
37045.4,33916.8
37045.4,33326.2
37045.7,33318.5
37046.9,33310.9
37048.7,33303.4
37051.3,33296.1
37054.7,33289.1
37058.6,33282.5
37063.2,33276.3
37068.4,33270.5
37074.1,33265.4
37080.3,33260.8
37087,33256.8
37094,33253.5
37101.2,33250.9
37108.7,33249
37116.4,33247.9
37124.1,33247.5
37635.9,33247.5
Z" /> 
</g>
<g >
</g>
<g style="fill:#000000; fill-opacity:1.0; 
stroke:#000000; stroke-width:0; stroke-opacity:1; 
stroke-linecap:round; stroke-linejoin:round;">
<path style="fill:#000000; fill-opacity:1.0; 
stroke:#000000; stroke-width:0; stroke-opacity:1; 
stroke-linecap:round; stroke-linejoin:round;fill-rule:evenodd;"
d="M 37870.3,44604.2
37878,44605.4
37885.5,44607.2
37892.7,44609.9
37899.7,44613.2
37906.3,44617.1
37912.6,44621.7
37918.3,44626.9
37923.5,44632.6
37928.1,44638.9
37932,44645.5
37935.3,44652.5
37937.9,44659.7
37939.8,44667.2
37941,44674.9
37941.3,44682.6
37941.3,45076.3
37941,45084
37939.8,45091.7
37937.9,45099.2
37935.3,45106.4
37932,45113.4
37928.1,45120
37923.5,45126.3
37918.3,45132
37912.6,45137.2
37906.3,45141.8
37899.7,45145.7
37892.7,45149
37885.5,45151.6
37878,45153.5
37870.3,45154.7
37862.6,45155
36878.3,45155
36870.6,45154.7
36863,45153.5
36855.5,45151.6
36848.2,45149
36841.2,45145.7
36834.6,45141.8
36828.4,45137.2
36822.7,45132
36817.5,45126.3
36812.9,45120
36808.9,45113.4
36805.6,45106.4
36803,45099.2
36801.1,45091.7
36800,45084
36799.6,45076.3
36799.6,44682.6
36800,44674.9
36801.1,44667.2
36803,44659.7
36805.6,44652.5
36808.9,44645.5
36812.9,44638.9
36817.5,44632.6
36822.7,44626.9
36828.4,44621.7
36834.6,44617.1
36841.2,44613.2
36848.2,44609.9
36855.5,44607.2
36863,44605.4
36870.6,44604.2
36878.3,44603.9
37862.6,44603.9
Z" /> 
<path style="fill:#000000; fill-opacity:1.0; 
stroke:#000000; stroke-width:0; stroke-opacity:1; 
stroke-linecap:round; stroke-linejoin:round;fill-rule:evenodd;"
d="M 37870.3,45194.8
37878,45195.9
37885.5,45197.8
37892.7,45200.4
37899.7,45203.7
37906.3,45207.7
37912.6,45212.3
37918.3,45217.5
37923.5,45223.2
37928.1,45229.4
37932,45236
37935.3,45243
37937.9,45250.3
37939.8,45257.8
37941,45265.4
37941.3,45273.1
37941.3,45666.9
37941,45674.6
37939.8,45682.2
37937.9,45689.7
37935.3,45697
37932,45704
37928.1,45710.6
37923.5,45716.8
37918.3,45722.5
37912.6,45727.7
37906.3,45732.3
37899.7,45736.3
37892.7,45739.6
37885.5,45742.2
37878,45744.1
37870.3,45745.2
37862.6,45745.6
36878.3,45745.6
36870.6,45745.2
36863,45744.1
36855.5,45742.2
36848.2,45739.6
36841.2,45736.3
36834.6,45732.3
36828.4,45727.7
36822.7,45722.5
36817.5,45716.8
36812.9,45710.6
36808.9,45704
36805.6,45697
36803,45689.7
36801.1,45682.2
36800,45674.6
36799.6,45666.9
36799.6,45273.1
36800,45265.4
36801.1,45257.8
36803,45250.3
36805.6,45243
36808.9,45236
36812.9,45229.4
36817.5,45223.2
36822.7,45217.5
36828.4,45212.3
36834.6,45207.7
36841.2,45203.7
36848.2,45200.4
36855.5,45197.8
36863,45195.9
36870.6,45194.8
36878.3,45194.4
37862.6,45194.4
Z" /> 
<path style="fill:#000000; fill-opacity:1.0; 
stroke:#000000; stroke-width:0; stroke-opacity:1; 
stroke-linecap:round; stroke-linejoin:round;fill-rule:evenodd;"
d="M 37870.3,45785.3
37878,45786.5
37885.5,45788.4
37892.7,45791
37899.7,45794.3
37906.3,45798.2
37912.6,45802.8
37918.3,45808
37923.5,45813.7
37928.1,45820
37932,45826.6
37935.3,45833.6
37937.9,45840.8
37939.8,45848.3
37941,45856
37941.3,45863.7
37941.3,46257.4
37941,46265.1
37939.8,46272.8
37937.9,46280.3
37935.3,46287.5
37932,46294.5
37928.1,46301.1
37923.5,46307.4
37918.3,46313.1
37912.6,46318.3
37906.3,46322.9
37899.7,46326.8
37892.7,46330.1
37885.5,46332.8
37878,46334.6
37870.3,46335.8
37862.6,46336.1
36878.3,46336.1
36870.6,46335.8
36863,46334.6
36855.5,46332.8
36848.2,46330.1
36841.2,46326.8
36834.6,46322.9
36828.4,46318.3
36822.7,46313.1
36817.5,46307.4
36812.9,46301.1
36808.9,46294.5
36805.6,46287.5
36803,46280.3
36801.1,46272.8
36800,46265.1
36799.6,46257.4
36799.6,45863.7
36800,45856
36801.1,45848.3
36803,45840.8
36805.6,45833.6
36808.9,45826.6
36812.9,45820
36817.5,45813.7
36822.7,45808
36828.4,45802.8
36834.6,45798.2
36841.2,45794.3
36848.2,45791
36855.5,45788.4
36863,45786.5
36870.6,45785.3
36878.3,45785
37862.6,45785
Z" /> 
<path style="fill:#000000; fill-opacity:1.0; 
stroke:#000000; stroke-width:0; stroke-opacity:1; 
stroke-linecap:round; stroke-linejoin:round;fill-rule:evenodd;"
d="M 39724.6,44997.9
39732.3,44999.1
39739.8,45000.9
39747.1,45003.6
39754,45006.9
39760.7,45010.8
39766.9,45015.4
39772.6,45020.6
39777.8,45026.3
39782.4,45032.6
39786.4,45039.2
39789.7,45046.2
39792.3,45053.4
39794.2,45060.9
39795.3,45068.6
39795.7,45076.3
39795.7,45863.7
39795.3,45871.4
39794.2,45879.1
39792.3,45886.6
39789.7,45893.8
39786.4,45900.8
39782.4,45907.4
39777.8,45913.7
39772.6,45919.4
39766.9,45924.6
39760.7,45929.2
39754,45933.1
39747.1,45936.4
39739.8,45939.1
39732.3,45940.9
39724.6,45942.1
39716.9,45942.4
38142.1,45942.4
38134.4,45942.1
38126.8,45940.9
38119.3,45939.1
38112,45936.4
38105,45933.1
38098.4,45929.2
38092.2,45924.6
38086.4,45919.4
38081.3,45913.7
38076.7,45907.4
38072.7,45900.8
38069.4,45893.8
38066.8,45886.6
38064.9,45879.1
38063.8,45871.4
38063.4,45863.7
38063.4,45076.3
38063.8,45068.6
38064.9,45060.9
38066.8,45053.4
38069.4,45046.2
38072.7,45039.2
38076.7,45032.6
38081.3,45026.3
38086.4,45020.6
38092.2,45015.4
38098.4,45010.8
38105,45006.9
38112,45003.6
38119.3,45000.9
38126.8,44999.1
38134.4,44997.9
38142.1,44997.6
39716.9,44997.6
Z" /> 
<path style="fill:#000000; fill-opacity:1.0; 
stroke:#000000; stroke-width:0; stroke-opacity:1; 
stroke-linecap:round; stroke-linejoin:round;fill-rule:evenodd;"
d="M 38230.7,46010.8
37778,45709
37778,45231
38230.7,44929.2
Z" /> 
</g>
<g >
</g>
<g style="fill:#000000; fill-opacity:1.0; 
stroke:#000000; stroke-width:0; stroke-opacity:1; 
stroke-linecap:round; stroke-linejoin:round;">
<path style="fill:#000000; fill-opacity:1.0; 
stroke:#000000; stroke-width:0; stroke-opacity:1; 
stroke-linecap:round; stroke-linejoin:round;fill-rule:evenodd;"
d="M 50082.4,27277
50090,27278.1
50097.5,27280
50104.8,27282.6
50111.8,27285.9
50118.4,27289.9
50124.6,27294.5
50130.3,27299.7
50135.5,27305.4
50140.1,27311.6
50144.1,27318.2
50147.4,27325.2
50150,27332.5
50151.9,27340
50153,27347.6
50153.4,27355.4
50153.4,28024.6
50153,28032.4
50151.9,28040
50150,28047.5
50147.4,28054.8
50144.1,28061.8
50140.1,28068.4
50135.5,28074.6
50130.3,28080.3
50124.6,28085.5
50118.4,28090.1
50111.8,28094.1
50104.8,28097.4
50097.5,28100
50090,28101.9
50082.4,28103
50074.6,28103.4
49405.4,28103.4
49397.6,28103
49390,28101.9
49382.5,28100
49375.2,28097.4
49368.2,28094.1
49361.6,28090.1
49355.4,28085.5
49349.7,28080.3
49344.5,28074.6
49339.9,28068.4
49335.9,28061.8
49332.6,28054.8
49330,28047.5
49328.1,28040
49327,28032.4
49326.6,28024.6
49326.6,27355.4
49327,27347.6
49328.1,27340
49330,27332.5
49332.6,27325.2
49335.9,27318.2
49339.9,27311.6
49344.5,27305.4
49349.7,27299.7
49355.4,27294.5
49361.6,27289.9
49368.2,27285.9
49375.2,27282.6
49382.5,27280
49390,27278.1
49397.6,27277
49405.4,27276.6
50074.6,27276.6
Z" /> 
<circle cx="48740" cy="27690" r="413.386" /> 
</g>
<g >
</g>
<g style="fill:#000000; fill-opacity:1.0; 
stroke:#000000; stroke-width:0; stroke-opacity:1; 
stroke-linecap:round; stroke-linejoin:round;">
<path style="fill:#000000; fill-opacity:1.0; 
stroke:#000000; stroke-width:0; stroke-opacity:1; 
stroke-linecap:round; stroke-linejoin:round;fill-rule:evenodd;"
d="M 43087.7,56221.6
43095.4,56222.8
43102.9,56224.7
43110.1,56227.3
43117.1,56230.6
43123.7,56234.5
43130,56239.1
43135.7,56244.3
43140.9,56250
43145.5,56256.3
43149.4,56262.9
43152.7,56269.9
43155.3,56277.1
43157.2,56284.6
43158.4,56292.3
43158.7,56300
43158.7,56850
43158.4,56857.7
43157.2,56865.4
43155.3,56872.9
43152.7,56880.1
43149.4,56887.1
43145.5,56893.7
43140.9,56900
43135.7,56905.7
43130,56910.9
43123.7,56915.5
43117.1,56919.4
43110.1,56922.7
43102.9,56925.3
43095.4,56927.2
43087.7,56928.4
43080,56928.7
42480,56928.7
42472.3,56928.4
42464.6,56927.2
42457.1,56925.3
42449.9,56922.7
42442.9,56919.4
42436.3,56915.5
42430,56910.9
42424.3,56905.7
42419.1,56900
42414.5,56893.7
42410.6,56887.1
42407.3,56880.1
42404.7,56872.9
42402.8,56865.4
42401.6,56857.7
42401.3,56850
42401.3,56300
42401.6,56292.3
42402.8,56284.6
42404.7,56277.1
42407.3,56269.9
42410.6,56262.9
42414.5,56256.3
42419.1,56250
42424.3,56244.3
42430,56239.1
42436.3,56234.5
42442.9,56230.6
42449.9,56227.3
42457.1,56224.7
42464.6,56222.8
42472.3,56221.6
42480,56221.3
43080,56221.3
Z" /> 
<path style="fill:#000000; fill-opacity:1.0; 
stroke:#000000; stroke-width:0; stroke-opacity:1; 
stroke-linecap:round; stroke-linejoin:round;fill-rule:evenodd;"
d="M 43087.7,52071.6
43095.4,52072.8
43102.9,52074.7
43110.1,52077.3
43117.1,52080.6
43123.7,52084.5
43130,52089.1
43135.7,52094.3
43140.9,52100
43145.5,52106.3
43149.4,52112.9
43152.7,52119.9
43155.3,52127.1
43157.2,52134.6
43158.4,52142.3
43158.7,52150
43158.7,52700
43158.4,52707.7
43157.2,52715.4
43155.3,52722.9
43152.7,52730.1
43149.4,52737.1
43145.5,52743.7
43140.9,52750
43135.7,52755.7
43130,52760.9
43123.7,52765.5
43117.1,52769.4
43110.1,52772.7
43102.9,52775.3
43095.4,52777.2
43087.7,52778.4
43080,52778.7
42480,52778.7
42472.3,52778.4
42464.6,52777.2
42457.1,52775.3
42449.9,52772.7
42442.9,52769.4
42436.3,52765.5
42430,52760.9
42424.3,52755.7
42419.1,52750
42414.5,52743.7
42410.6,52737.1
42407.3,52730.1
42404.7,52722.9
42402.8,52715.4
42401.6,52707.7
42401.3,52700
42401.3,52150
42401.6,52142.3
42402.8,52134.6
42404.7,52127.1
42407.3,52119.9
42410.6,52112.9
42414.5,52106.3
42419.1,52100
42424.3,52094.3
42430,52089.1
42436.3,52084.5
42442.9,52080.6
42449.9,52077.3
42457.1,52074.7
42464.6,52072.8
42472.3,52071.6
42480,52071.3
43080,52071.3
Z" /> 
<path style="fill:#000000; fill-opacity:1.0; 
stroke:#000000; stroke-width:0; stroke-opacity:1; 
stroke-linecap:round; stroke-linejoin:round;fill-rule:evenodd;"
d="M 45087.7,56221.6
45095.4,56222.8
45102.9,56224.7
45110.1,56227.3
45117.1,56230.6
45123.7,56234.5
45130,56239.1
45135.7,56244.3
45140.9,56250
45145.5,56256.3
45149.4,56262.9
45152.7,56269.9
45155.3,56277.1
45157.2,56284.6
45158.4,56292.3
45158.7,56300
45158.7,56850
45158.4,56857.7
45157.2,56865.4
45155.3,56872.9
45152.7,56880.1
45149.4,56887.1
45145.5,56893.7
45140.9,56900
45135.7,56905.7
45130,56910.9
45123.7,56915.5
45117.1,56919.4
45110.1,56922.7
45102.9,56925.3
45095.4,56927.2
45087.7,56928.4
45080,56928.7
44480,56928.7
44472.3,56928.4
44464.6,56927.2
44457.1,56925.3
44449.9,56922.7
44442.9,56919.4
44436.3,56915.5
44430,56910.9
44424.3,56905.7
44419.1,56900
44414.5,56893.7
44410.6,56887.1
44407.3,56880.1
44404.7,56872.9
44402.8,56865.4
44401.6,56857.7
44401.3,56850
44401.3,56300
44401.6,56292.3
44402.8,56284.6
44404.7,56277.1
44407.3,56269.9
44410.6,56262.9
44414.5,56256.3
44419.1,56250
44424.3,56244.3
44430,56239.1
44436.3,56234.5
44442.9,56230.6
44449.9,56227.3
44457.1,56224.7
44464.6,56222.8
44472.3,56221.6
44480,56221.3
45080,56221.3
Z" /> 
<path style="fill:#000000; fill-opacity:1.0; 
stroke:#000000; stroke-width:0; stroke-opacity:1; 
stroke-linecap:round; stroke-linejoin:round;fill-rule:evenodd;"
d="M 45087.7,52071.6
45095.4,52072.8
45102.9,52074.7
45110.1,52077.3
45117.1,52080.6
45123.7,52084.5
45130,52089.1
45135.7,52094.3
45140.9,52100
45145.5,52106.3
45149.4,52112.9
45152.7,52119.9
45155.3,52127.1
45157.2,52134.6
45158.4,52142.3
45158.7,52150
45158.7,52700
45158.4,52707.7
45157.2,52715.4
45155.3,52722.9
45152.7,52730.1
45149.4,52737.1
45145.5,52743.7
45140.9,52750
45135.7,52755.7
45130,52760.9
45123.7,52765.5
45117.1,52769.4
45110.1,52772.7
45102.9,52775.3
45095.4,52777.2
45087.7,52778.4
45080,52778.7
44480,52778.7
44472.3,52778.4
44464.6,52777.2
44457.1,52775.3
44449.9,52772.7
44442.9,52769.4
44436.3,52765.5
44430,52760.9
44424.3,52755.7
44419.1,52750
44414.5,52743.7
44410.6,52737.1
44407.3,52730.1
44404.7,52722.9
44402.8,52715.4
44401.6,52707.7
44401.3,52700
44401.3,52150
44401.6,52142.3
44402.8,52134.6
44404.7,52127.1
44407.3,52119.9
44410.6,52112.9
44414.5,52106.3
44419.1,52100
44424.3,52094.3
44430,52089.1
44436.3,52084.5
44442.9,52080.6
44449.9,52077.3
44457.1,52074.7
44464.6,52072.8
44472.3,52071.6
44480,52071.3
45080,52071.3
Z" /> 
<path style="fill:#000000; fill-opacity:1.0; 
stroke:#000000; stroke-width:0; stroke-opacity:1; 
stroke-linecap:round; stroke-linejoin:round;fill-rule:evenodd;"
d="M 47087.7,56221.6
47095.4,56222.8
47102.9,56224.7
47110.1,56227.3
47117.1,56230.6
47123.7,56234.5
47130,56239.1
47135.7,56244.3
47140.9,56250
47145.5,56256.3
47149.4,56262.9
47152.7,56269.9
47155.3,56277.1
47157.2,56284.6
47158.4,56292.3
47158.7,56300
47158.7,56850
47158.4,56857.7
47157.2,56865.4
47155.3,56872.9
47152.7,56880.1
47149.4,56887.1
47145.5,56893.7
47140.9,56900
47135.7,56905.7
47130,56910.9
47123.7,56915.5
47117.1,56919.4
47110.1,56922.7
47102.9,56925.3
47095.4,56927.2
47087.7,56928.4
47080,56928.7
46480,56928.7
46472.3,56928.4
46464.6,56927.2
46457.1,56925.3
46449.9,56922.7
46442.9,56919.4
46436.3,56915.5
46430,56910.9
46424.3,56905.7
46419.1,56900
46414.5,56893.7
46410.6,56887.1
46407.3,56880.1
46404.7,56872.9
46402.8,56865.4
46401.6,56857.7
46401.3,56850
46401.3,56300
46401.6,56292.3
46402.8,56284.6
46404.7,56277.1
46407.3,56269.9
46410.6,56262.9
46414.5,56256.3
46419.1,56250
46424.3,56244.3
46430,56239.1
46436.3,56234.5
46442.9,56230.6
46449.9,56227.3
46457.1,56224.7
46464.6,56222.8
46472.3,56221.6
46480,56221.3
47080,56221.3
Z" /> 
<path style="fill:#000000; fill-opacity:1.0; 
stroke:#000000; stroke-width:0; stroke-opacity:1; 
stroke-linecap:round; stroke-linejoin:round;fill-rule:evenodd;"
d="M 47087.7,52071.6
47095.4,52072.8
47102.9,52074.7
47110.1,52077.3
47117.1,52080.6
47123.7,52084.5
47130,52089.1
47135.7,52094.3
47140.9,52100
47145.5,52106.3
47149.4,52112.9
47152.7,52119.9
47155.3,52127.1
47157.2,52134.6
47158.4,52142.3
47158.7,52150
47158.7,52700
47158.4,52707.7
47157.2,52715.4
47155.3,52722.9
47152.7,52730.1
47149.4,52737.1
47145.5,52743.7
47140.9,52750
47135.7,52755.7
47130,52760.9
47123.7,52765.5
47117.1,52769.4
47110.1,52772.7
47102.9,52775.3
47095.4,52777.2
47087.7,52778.4
47080,52778.7
46480,52778.7
46472.3,52778.4
46464.6,52777.2
46457.1,52775.3
46449.9,52772.7
46442.9,52769.4
46436.3,52765.5
46430,52760.9
46424.3,52755.7
46419.1,52750
46414.5,52743.7
46410.6,52737.1
46407.3,52730.1
46404.7,52722.9
46402.8,52715.4
46401.6,52707.7
46401.3,52700
46401.3,52150
46401.6,52142.3
46402.8,52134.6
46404.7,52127.1
46407.3,52119.9
46410.6,52112.9
46414.5,52106.3
46419.1,52100
46424.3,52094.3
46430,52089.1
46436.3,52084.5
46442.9,52080.6
46449.9,52077.3
46457.1,52074.7
46464.6,52072.8
46472.3,52071.6
46480,52071.3
47080,52071.3
Z" /> 
<path style="fill:#000000; fill-opacity:1.0; 
stroke:#000000; stroke-width:0; stroke-opacity:1; 
stroke-linecap:round; stroke-linejoin:round;fill-rule:evenodd;"
d="M 49087.7,56221.6
49095.4,56222.8
49102.9,56224.7
49110.1,56227.3
49117.1,56230.6
49123.7,56234.5
49130,56239.1
49135.7,56244.3
49140.9,56250
49145.5,56256.3
49149.4,56262.9
49152.7,56269.9
49155.3,56277.1
49157.2,56284.6
49158.4,56292.3
49158.7,56300
49158.7,56850
49158.4,56857.7
49157.2,56865.4
49155.3,56872.9
49152.7,56880.1
49149.4,56887.1
49145.5,56893.7
49140.9,56900
49135.7,56905.7
49130,56910.9
49123.7,56915.5
49117.1,56919.4
49110.1,56922.7
49102.9,56925.3
49095.4,56927.2
49087.7,56928.4
49080,56928.7
48480,56928.7
48472.3,56928.4
48464.6,56927.2
48457.1,56925.3
48449.9,56922.7
48442.9,56919.4
48436.3,56915.5
48430,56910.9
48424.3,56905.7
48419.1,56900
48414.5,56893.7
48410.6,56887.1
48407.3,56880.1
48404.7,56872.9
48402.8,56865.4
48401.6,56857.7
48401.3,56850
48401.3,56300
48401.6,56292.3
48402.8,56284.6
48404.7,56277.1
48407.3,56269.9
48410.6,56262.9
48414.5,56256.3
48419.1,56250
48424.3,56244.3
48430,56239.1
48436.3,56234.5
48442.9,56230.6
48449.9,56227.3
48457.1,56224.7
48464.6,56222.8
48472.3,56221.6
48480,56221.3
49080,56221.3
Z" /> 
<path style="fill:#000000; fill-opacity:1.0; 
stroke:#000000; stroke-width:0; stroke-opacity:1; 
stroke-linecap:round; stroke-linejoin:round;fill-rule:evenodd;"
d="M 49087.7,52071.6
49095.4,52072.8
49102.9,52074.7
49110.1,52077.3
49117.1,52080.6
49123.7,52084.5
49130,52089.1
49135.7,52094.3
49140.9,52100
49145.5,52106.3
49149.4,52112.9
49152.7,52119.9
49155.3,52127.1
49157.2,52134.6
49158.4,52142.3
49158.7,52150
49158.7,52700
49158.4,52707.7
49157.2,52715.4
49155.3,52722.9
49152.7,52730.1
49149.4,52737.1
49145.5,52743.7
49140.9,52750
49135.7,52755.7
49130,52760.9
49123.7,52765.5
49117.1,52769.4
49110.1,52772.7
49102.9,52775.3
49095.4,52777.2
49087.7,52778.4
49080,52778.7
48480,52778.7
48472.3,52778.4
48464.6,52777.2
48457.1,52775.3
48449.9,52772.7
48442.9,52769.4
48436.3,52765.5
48430,52760.9
48424.3,52755.7
48419.1,52750
48414.5,52743.7
48410.6,52737.1
48407.3,52730.1
48404.7,52722.9
48402.8,52715.4
48401.6,52707.7
48401.3,52700
48401.3,52150
48401.6,52142.3
48402.8,52134.6
48404.7,52127.1
48407.3,52119.9
48410.6,52112.9
48414.5,52106.3
48419.1,52100
48424.3,52094.3
48430,52089.1
48436.3,52084.5
48442.9,52080.6
48449.9,52077.3
48457.1,52074.7
48464.6,52072.8
48472.3,52071.6
48480,52071.3
49080,52071.3
Z" /> 
</g>
<g >
</g>
<g style="fill:#000000; fill-opacity:1.0; 
stroke:#000000; stroke-width:0; stroke-opacity:1; 
stroke-linecap:round; stroke-linejoin:round;">
<path style="fill:#000000; fill-opacity:1.0; 
stroke:#000000; stroke-width:0; stroke-opacity:1; 
stroke-linecap:round; stroke-linejoin:round;fill-rule:evenodd;"
d="M 51751.6,35605
51759.2,35606.2
51766.7,35608
51774,35610.6
51781,35613.9
51787.6,35617.9
51793.8,35622.5
51799.5,35627.7
51804.7,35633.4
51809.3,35639.6
51813.3,35646.3
51816.6,35653.3
51819.2,35660.5
51821.1,35668
51822.2,35675.7
51822.6,35683.4
51822.6,36549.5
51822.2,36557.2
51821.1,36564.9
51819.2,36572.4
51816.6,36579.7
51813.3,36586.6
51809.3,36593.3
51804.7,36599.5
51799.5,36605.2
51793.8,36610.4
51787.6,36615
51781,36619
51774,36622.3
51766.7,36624.9
51759.2,36626.8
51751.6,36627.9
51743.9,36628.3
51271.4,36628.3
51263.7,36627.9
51256.1,36626.8
51248.6,36624.9
51241.3,36622.3
51234.3,36619
51227.7,36615
51221.5,36610.4
51215.7,36605.2
51210.6,36599.5
51205.9,36593.3
51202,36586.6
51198.7,36579.7
51196.1,36572.4
51194.2,36564.9
51193.1,36557.2
51192.7,36549.5
51192.7,35683.4
51193.1,35675.7
51194.2,35668
51196.1,35660.5
51198.7,35653.3
51202,35646.3
51205.9,35639.6
51210.6,35633.4
51215.7,35627.7
51221.5,35622.5
51227.7,35617.9
51234.3,35613.9
51241.3,35610.6
51248.6,35608
51256.1,35606.2
51263.7,35605
51271.4,35604.6
51743.9,35604.6
Z" /> 
<path style="fill:#000000; fill-opacity:1.0; 
stroke:#000000; stroke-width:0; stroke-opacity:1; 
stroke-linecap:round; stroke-linejoin:round;fill-rule:evenodd;"
d="M 50853.9,35605
50861.6,35606.2
50869.1,35608
50876.4,35610.6
50883.3,35613.9
50890,35617.9
50896.2,35622.5
50901.9,35627.7
50907.1,35633.4
50911.7,35639.6
50915.7,35646.3
50919,35653.3
50921.6,35660.5
50923.4,35668
50924.6,35675.7
50925,35683.4
50925,36549.5
50924.6,36557.2
50923.4,36564.9
50921.6,36572.4
50919,36579.7
50915.7,36586.6
50911.7,36593.3
50907.1,36599.5
50901.9,36605.2
50896.2,36610.4
50890,36615
50883.3,36619
50876.4,36622.3
50869.1,36624.9
50861.6,36626.8
50853.9,36627.9
50846.2,36628.3
50373.8,36628.3
50366.1,36627.9
50358.4,36626.8
50350.9,36624.9
50343.6,36622.3
50336.7,36619
50330,36615
50323.8,36610.4
50318.1,36605.2
50312.9,36599.5
50308.3,36593.3
50304.3,36586.6
50301,36579.7
50298.4,36572.4
50296.6,36564.9
50295.4,36557.2
50295,36549.5
50295,35683.4
50295.4,35675.7
50296.6,35668
50298.4,35660.5
50301,35653.3
50304.3,35646.3
50308.3,35639.6
50312.9,35633.4
50318.1,35627.7
50323.8,35622.5
50330,35617.9
50336.7,35613.9
50343.6,35610.6
50350.9,35608
50358.4,35606.2
50366.1,35605
50373.8,35604.6
50846.2,35604.6
Z" /> 
<path style="fill:#000000; fill-opacity:1.0; 
stroke:#000000; stroke-width:0; stroke-opacity:1; 
stroke-linecap:round; stroke-linejoin:round;fill-rule:evenodd;"
d="M 49956.3,35605
49963.9,35606.2
49971.4,35608
49978.7,35610.6
49985.7,35613.9
49992.3,35617.9
49998.5,35622.5
50004.3,35627.7
50009.4,35633.4
50014.1,35639.6
50018,35646.3
50021.3,35653.3
50023.9,35660.5
50025.8,35668
50026.9,35675.7
50027.3,35683.4
50027.3,36549.5
50026.9,36557.2
50025.8,36564.9
50023.9,36572.4
50021.3,36579.7
50018,36586.6
50014.1,36593.3
50009.4,36599.5
50004.3,36605.2
49998.5,36610.4
49992.3,36615
49985.7,36619
49978.7,36622.3
49971.4,36624.9
49963.9,36626.8
49956.3,36627.9
49948.6,36628.3
49476.1,36628.3
49468.4,36627.9
49460.8,36626.8
49453.3,36624.9
49446,36622.3
49439,36619
49432.4,36615
49426.2,36610.4
49420.5,36605.2
49415.3,36599.5
49410.7,36593.3
49406.7,36586.6
49403.4,36579.7
49400.8,36572.4
49398.9,36564.9
49397.8,36557.2
49397.4,36549.5
49397.4,35683.4
49397.8,35675.7
49398.9,35668
49400.8,35660.5
49403.4,35653.3
49406.7,35646.3
49410.7,35639.6
49415.3,35633.4
49420.5,35627.7
49426.2,35622.5
49432.4,35617.9
49439,35613.9
49446,35610.6
49453.3,35608
49460.8,35606.2
49468.4,35605
49476.1,35604.6
49948.6,35604.6
Z" /> 
<path style="fill:#000000; fill-opacity:1.0; 
stroke:#000000; stroke-width:0; stroke-opacity:1; 
stroke-linecap:round; stroke-linejoin:round;fill-rule:evenodd;"
d="M 51759.4,37258.6
51767.1,37259.7
51774.6,37261.6
51781.9,37264.2
51788.8,37267.5
51795.5,37271.5
51801.7,37276.1
51807.4,37281.3
51812.6,37287
51817.2,37293.2
51821.2,37299.8
51824.5,37306.8
51827.1,37314.1
51829,37321.6
51830.1,37329.2
51830.5,37336.9
51830.5,39856.6
51830.1,39864.3
51829,39872
51827.1,39879.5
51824.5,39886.7
51821.2,39893.7
51817.2,39900.4
51812.6,39906.6
51807.4,39912.3
51801.7,39917.5
51795.5,39922.1
51788.8,39926.1
51781.9,39929.4
51774.6,39932
51767.1,39933.8
51759.4,39935
51751.7,39935.4
49468.3,39935.4
49460.6,39935
49452.9,39933.8
49445.4,39932
49438.1,39929.4
49431.2,39926.1
49424.5,39922.1
49418.3,39917.5
49412.6,39912.3
49407.4,39906.6
49402.8,39900.4
49398.8,39893.7
49395.5,39886.7
49392.9,39879.5
49391,39872
49389.9,39864.3
49389.5,39856.6
49389.5,37336.9
49389.9,37329.2
49391,37321.6
49392.9,37314.1
49395.5,37306.8
49398.8,37299.8
49402.8,37293.2
49407.4,37287
49412.6,37281.3
49418.3,37276.1
49424.5,37271.5
49431.2,37267.5
49438.1,37264.2
49445.4,37261.6
49452.9,37259.7
49460.6,37258.6
49468.3,37258.2
51751.7,37258.2
Z" /> 
</g>
<g >
</g>
<g >
</g>
<g >
</g>
</g> 
</svg>
