G04 #@! TF.FileFunction,Copper,L2,Bot,Signal*
%FSLAX46Y46*%
G04 Gerber Fmt 4.6, Leading zero omitted, Abs format (unit mm)*
G04 Created by KiCad (PCBNEW 4.0.7-e2-6376~61~ubuntu18.04.1) date Fri Sep  6 21:57:16 2019*
%MOMM*%
%LPD*%
G01*
G04 APERTURE LIST*
%ADD10C,0.100000*%
%ADD11C,3.000000*%
%ADD12R,5.080000X2.420000*%
%ADD13C,0.970000*%
%ADD14R,0.890000X0.460000*%
%ADD15R,1.700000X1.700000*%
%ADD16O,1.700000X1.700000*%
%ADD17C,1.016000*%
%ADD18C,0.400000*%
%ADD19C,0.800000*%
%ADD20C,1.057580*%
%ADD21C,0.254000*%
G04 APERTURE END LIST*
D10*
X77030356Y-63317600D02*
X77030356Y-146750000D01*
X77004956Y-63292211D02*
G75*
G02X80004956Y-60292211I3000000J0D01*
G01*
X140030356Y-60317611D02*
X80030356Y-60317611D01*
X140030356Y-60292211D02*
G75*
G02X143030356Y-63292211I0J-3000000D01*
G01*
X143030356Y-63317600D02*
X143030356Y-146750000D01*
X80030356Y-149829611D02*
G75*
G02X77030356Y-146829611I0J3000000D01*
G01*
X80000000Y-149829611D02*
X140000000Y-149829611D01*
X143055751Y-146860247D02*
G75*
G02X140055756Y-149855011I-2999995J5236D01*
G01*
D11*
X139014000Y-113310000D03*
X139014000Y-113310000D03*
X139039400Y-64313400D03*
X81024000Y-64323400D03*
X81633600Y-114386800D03*
X81633600Y-114386800D03*
X81633600Y-114386800D03*
X81633600Y-114386800D03*
D12*
X139388000Y-131888000D03*
X139388000Y-123128000D03*
D13*
X135948000Y-131888000D03*
X135948000Y-123128000D03*
D14*
X136398000Y-131888000D03*
X136398000Y-123128000D03*
D15*
X139954000Y-81153000D03*
D16*
X139954000Y-78613000D03*
X139954000Y-76073000D03*
X139954000Y-73533000D03*
D15*
X85979000Y-65532000D03*
D16*
X85979000Y-62992000D03*
X88519000Y-65532000D03*
X88519000Y-62992000D03*
X91059000Y-65532000D03*
X91059000Y-62992000D03*
X93599000Y-65532000D03*
X93599000Y-62992000D03*
X96139000Y-65532000D03*
X96139000Y-62992000D03*
X98679000Y-65532000D03*
X98679000Y-62992000D03*
X101219000Y-65532000D03*
X101219000Y-62992000D03*
X103759000Y-65532000D03*
X103759000Y-62992000D03*
X106299000Y-65532000D03*
X106299000Y-62992000D03*
X108839000Y-65532000D03*
X108839000Y-62992000D03*
X111379000Y-65532000D03*
X111379000Y-62992000D03*
X113919000Y-65532000D03*
X113919000Y-62992000D03*
X116459000Y-65532000D03*
X116459000Y-62992000D03*
X118999000Y-65532000D03*
X118999000Y-62992000D03*
X121539000Y-65532000D03*
X121539000Y-62992000D03*
X124079000Y-65532000D03*
X124079000Y-62992000D03*
X126619000Y-65532000D03*
X126619000Y-62992000D03*
X129159000Y-65532000D03*
X129159000Y-62992000D03*
X131699000Y-65532000D03*
X131699000Y-62992000D03*
X134239000Y-65532000D03*
X134239000Y-62992000D03*
D15*
X126339600Y-70332600D03*
D16*
X123799600Y-70332600D03*
D17*
X123139200Y-144780000D03*
X124663200Y-144780000D03*
X119583200Y-144780000D03*
X118059200Y-144780000D03*
X118059200Y-132080000D03*
X119583200Y-132080000D03*
X114503200Y-132080000D03*
X112979200Y-132080000D03*
X109423200Y-132080000D03*
X107899200Y-132080000D03*
X112979200Y-144780000D03*
X114503200Y-144780000D03*
X116281200Y-139065000D03*
X116281200Y-137795000D03*
X118821200Y-137795000D03*
X118821200Y-139065000D03*
X121361200Y-139065000D03*
X121361200Y-137795000D03*
X123901200Y-137795000D03*
X123901200Y-139065000D03*
X113741200Y-137795000D03*
X113741200Y-139065000D03*
X111201200Y-139065000D03*
X111201200Y-137795000D03*
X108661200Y-137795000D03*
X108661200Y-139065000D03*
D18*
X120472200Y-71526400D03*
X132664200Y-73660000D03*
X136347200Y-73482200D03*
X129311400Y-87680800D03*
X129184400Y-83210400D03*
X129184400Y-78841600D03*
X134950200Y-97739200D03*
X123596400Y-97840800D03*
X128524000Y-103149400D03*
X123444000Y-147751800D03*
X114452400Y-147802600D03*
X80187800Y-141706600D03*
X79806800Y-132943600D03*
X79857600Y-121818400D03*
X79578200Y-106070400D03*
X79400400Y-94335600D03*
X79349600Y-82092800D03*
X78968600Y-67995800D03*
X105562400Y-67716400D03*
X137134600Y-81153000D03*
X121488200Y-76327000D03*
X120472200Y-67640200D03*
X141935200Y-77216000D03*
X139192000Y-70789800D03*
X128524000Y-95834200D03*
X128549400Y-98035800D03*
X123774200Y-78460600D03*
X123718000Y-83642200D03*
X134670800Y-95554800D03*
X134721600Y-83693000D03*
X131622800Y-143764000D03*
X131622800Y-138303000D03*
X131622800Y-132461000D03*
X118414800Y-126111000D03*
X124129800Y-122428000D03*
X132257800Y-122809000D03*
X100253800Y-143510000D03*
X100380800Y-138176000D03*
X100380800Y-126746000D03*
X89331800Y-141478000D03*
X89331800Y-132588000D03*
X89204800Y-123571000D03*
X89458800Y-72186800D03*
X89458800Y-79730600D03*
X89687400Y-88595200D03*
X89611200Y-96494600D03*
X89128600Y-108864400D03*
X89103200Y-115671600D03*
X110794800Y-125628400D03*
X107061000Y-125476000D03*
X101752400Y-115544600D03*
X99999800Y-117297200D03*
X99974400Y-113741200D03*
X100253800Y-115544600D03*
X99974400Y-96113600D03*
X116459000Y-67564000D03*
X99974400Y-69646800D03*
X99949000Y-79705200D03*
X99974400Y-88722200D03*
X99847400Y-104216200D03*
X98881000Y-115493800D03*
D19*
X137134600Y-81153000D02*
X137134600Y-81127600D01*
X120472200Y-67640200D02*
X120472200Y-67614800D01*
X128524000Y-98018600D02*
X128532200Y-98018600D01*
X128532200Y-98018600D02*
X128549400Y-98035800D01*
X123718000Y-83642200D02*
X123723400Y-83642200D01*
X134721600Y-83693000D02*
X134670800Y-83693000D01*
X98881000Y-115493800D02*
X98856800Y-115493800D01*
D20*
X88519000Y-62992000D02*
X88519000Y-62966600D01*
X88519000Y-62966600D02*
X90373200Y-61112400D01*
X123799600Y-68783200D02*
X123799600Y-70332600D01*
X124815600Y-67767200D02*
X123799600Y-68783200D01*
X135051800Y-67767200D02*
X124815600Y-67767200D01*
X136423400Y-66395600D02*
X135051800Y-67767200D01*
X136423400Y-62509400D02*
X136423400Y-66395600D01*
X135026400Y-61112400D02*
X136423400Y-62509400D01*
X90373200Y-61112400D02*
X124231400Y-61112400D01*
X124231400Y-61112400D02*
X135026400Y-61112400D01*
D21*
G36*
X80030356Y-61002611D02*
X88837141Y-61002611D01*
X88322823Y-61516929D01*
X87950715Y-61590946D01*
X87468946Y-61912853D01*
X87249000Y-62242026D01*
X87029054Y-61912853D01*
X86547285Y-61590946D01*
X85979000Y-61477907D01*
X85410715Y-61590946D01*
X84928946Y-61912853D01*
X84607039Y-62394622D01*
X84494000Y-62962907D01*
X84494000Y-63021093D01*
X84607039Y-63589378D01*
X84928946Y-64071147D01*
X84930179Y-64071971D01*
X84893683Y-64078838D01*
X84677559Y-64217910D01*
X84532569Y-64430110D01*
X84481560Y-64682000D01*
X84481560Y-66382000D01*
X84525838Y-66617317D01*
X84664910Y-66833441D01*
X84877110Y-66978431D01*
X85129000Y-67029440D01*
X86829000Y-67029440D01*
X87064317Y-66985162D01*
X87280441Y-66846090D01*
X87425431Y-66633890D01*
X87439086Y-66566459D01*
X87468946Y-66611147D01*
X87950715Y-66933054D01*
X88519000Y-67046093D01*
X89087285Y-66933054D01*
X89569054Y-66611147D01*
X89789000Y-66281974D01*
X90008946Y-66611147D01*
X90490715Y-66933054D01*
X91059000Y-67046093D01*
X91627285Y-66933054D01*
X92109054Y-66611147D01*
X92329000Y-66281974D01*
X92548946Y-66611147D01*
X93030715Y-66933054D01*
X93599000Y-67046093D01*
X94167285Y-66933054D01*
X94649054Y-66611147D01*
X94876702Y-66270447D01*
X94943817Y-66413358D01*
X95372076Y-66803645D01*
X95782110Y-66973476D01*
X96012000Y-66852155D01*
X96012000Y-65659000D01*
X95992000Y-65659000D01*
X95992000Y-65405000D01*
X96012000Y-65405000D01*
X96012000Y-65385000D01*
X96266000Y-65385000D01*
X96266000Y-65405000D01*
X96286000Y-65405000D01*
X96286000Y-65659000D01*
X96266000Y-65659000D01*
X96266000Y-66852155D01*
X96495890Y-66973476D01*
X96905924Y-66803645D01*
X97334183Y-66413358D01*
X97401298Y-66270447D01*
X97628946Y-66611147D01*
X98110715Y-66933054D01*
X98679000Y-67046093D01*
X99247285Y-66933054D01*
X99729054Y-66611147D01*
X99949000Y-66281974D01*
X100168946Y-66611147D01*
X100650715Y-66933054D01*
X101219000Y-67046093D01*
X101787285Y-66933054D01*
X102269054Y-66611147D01*
X102489000Y-66281974D01*
X102708946Y-66611147D01*
X103190715Y-66933054D01*
X103759000Y-67046093D01*
X104327285Y-66933054D01*
X104809054Y-66611147D01*
X105029000Y-66281974D01*
X105248946Y-66611147D01*
X105730715Y-66933054D01*
X106299000Y-67046093D01*
X106867285Y-66933054D01*
X107349054Y-66611147D01*
X107569000Y-66281974D01*
X107788946Y-66611147D01*
X108270715Y-66933054D01*
X108839000Y-67046093D01*
X109407285Y-66933054D01*
X109889054Y-66611147D01*
X110109000Y-66281974D01*
X110328946Y-66611147D01*
X110810715Y-66933054D01*
X111379000Y-67046093D01*
X111947285Y-66933054D01*
X112429054Y-66611147D01*
X112649000Y-66281974D01*
X112868946Y-66611147D01*
X113350715Y-66933054D01*
X113919000Y-67046093D01*
X114487285Y-66933054D01*
X114969054Y-66611147D01*
X115196702Y-66270447D01*
X115263817Y-66413358D01*
X115692076Y-66803645D01*
X116102110Y-66973476D01*
X116332000Y-66852155D01*
X116332000Y-65659000D01*
X116312000Y-65659000D01*
X116312000Y-65405000D01*
X116332000Y-65405000D01*
X116332000Y-65385000D01*
X116586000Y-65385000D01*
X116586000Y-65405000D01*
X116606000Y-65405000D01*
X116606000Y-65659000D01*
X116586000Y-65659000D01*
X116586000Y-66852155D01*
X116815890Y-66973476D01*
X117225924Y-66803645D01*
X117654183Y-66413358D01*
X117721298Y-66270447D01*
X117948946Y-66611147D01*
X118430715Y-66933054D01*
X118999000Y-67046093D01*
X119567285Y-66933054D01*
X120049054Y-66611147D01*
X120269000Y-66281974D01*
X120488946Y-66611147D01*
X120970715Y-66933054D01*
X121539000Y-67046093D01*
X122107285Y-66933054D01*
X122589054Y-66611147D01*
X122809000Y-66281974D01*
X123028946Y-66611147D01*
X123510715Y-66933054D01*
X123922074Y-67014878D01*
X122976676Y-67960276D01*
X122724398Y-68337837D01*
X122635810Y-68783200D01*
X122635810Y-69423671D01*
X122427639Y-69735222D01*
X122314600Y-70303507D01*
X122314600Y-70361693D01*
X122427639Y-70929978D01*
X122749546Y-71411747D01*
X123231315Y-71733654D01*
X123799600Y-71846693D01*
X124367885Y-71733654D01*
X124849654Y-71411747D01*
X124877450Y-71370148D01*
X124886438Y-71417917D01*
X125025510Y-71634041D01*
X125237710Y-71779031D01*
X125489600Y-71830040D01*
X127189600Y-71830040D01*
X127424917Y-71785762D01*
X127641041Y-71646690D01*
X127786031Y-71434490D01*
X127837040Y-71182600D01*
X127837040Y-69482600D01*
X127792762Y-69247283D01*
X127653690Y-69031159D01*
X127507088Y-68930990D01*
X135051800Y-68930990D01*
X135497163Y-68842402D01*
X135874724Y-68590124D01*
X137246324Y-67218524D01*
X137327675Y-67096774D01*
X138394694Y-67539839D01*
X139678474Y-67540959D01*
X140864961Y-67050713D01*
X141773523Y-66143736D01*
X142265839Y-64958106D01*
X142266959Y-63674326D01*
X141776713Y-62487839D01*
X140869736Y-61579277D01*
X139684106Y-61086961D01*
X138400326Y-61085841D01*
X137213839Y-61576087D01*
X137174853Y-61615005D01*
X136562459Y-61002611D01*
X140030356Y-61002611D01*
X140060470Y-60996621D01*
X140911133Y-61165828D01*
X141657819Y-61664748D01*
X142156739Y-62411436D01*
X142345356Y-63359678D01*
X142345356Y-121437331D01*
X142287698Y-121379673D01*
X142054309Y-121283000D01*
X139673750Y-121283000D01*
X139515000Y-121441750D01*
X139515000Y-123001000D01*
X139535000Y-123001000D01*
X139535000Y-123255000D01*
X139515000Y-123255000D01*
X139515000Y-124814250D01*
X139673750Y-124973000D01*
X142054309Y-124973000D01*
X142287698Y-124876327D01*
X142345356Y-124818669D01*
X142345356Y-130197331D01*
X142287698Y-130139673D01*
X142054309Y-130043000D01*
X139673750Y-130043000D01*
X139515000Y-130201750D01*
X139515000Y-131761000D01*
X139535000Y-131761000D01*
X139535000Y-132015000D01*
X139515000Y-132015000D01*
X139515000Y-133574250D01*
X139673750Y-133733000D01*
X142054309Y-133733000D01*
X142287698Y-133636327D01*
X142345356Y-133578669D01*
X142345356Y-146750000D01*
X142362210Y-146834728D01*
X142180597Y-147739498D01*
X141680376Y-148485311D01*
X140932561Y-148983100D01*
X140058302Y-149156208D01*
X140000000Y-149144611D01*
X80097823Y-149144611D01*
X79149581Y-148955994D01*
X78402893Y-148457074D01*
X77903973Y-147710388D01*
X77714148Y-146756072D01*
X77715356Y-146750000D01*
X77715356Y-131746564D01*
X134814851Y-131746564D01*
X134846982Y-132190968D01*
X134955232Y-132452308D01*
X135168800Y-132487595D01*
X135345557Y-132310838D01*
X135414673Y-132477699D01*
X135476290Y-132539315D01*
X135348405Y-132667200D01*
X135383692Y-132880768D01*
X135806564Y-133021149D01*
X136213000Y-132991763D01*
X136213000Y-133224310D01*
X136309673Y-133457699D01*
X136488302Y-133636327D01*
X136721691Y-133733000D01*
X139102250Y-133733000D01*
X139261000Y-133574250D01*
X139261000Y-132015000D01*
X139241000Y-132015000D01*
X139241000Y-131761000D01*
X139261000Y-131761000D01*
X139261000Y-130201750D01*
X139102250Y-130043000D01*
X136721691Y-130043000D01*
X136488302Y-130139673D01*
X136309673Y-130318301D01*
X136213000Y-130551690D01*
X136213000Y-130795871D01*
X136089436Y-130754851D01*
X135645032Y-130786982D01*
X135383692Y-130895232D01*
X135348405Y-131108800D01*
X135476290Y-131236685D01*
X135414673Y-131298301D01*
X135345557Y-131465162D01*
X135168800Y-131288405D01*
X134955232Y-131323692D01*
X134814851Y-131746564D01*
X77715356Y-131746564D01*
X77715356Y-122986564D01*
X134814851Y-122986564D01*
X134846982Y-123430968D01*
X134955232Y-123692308D01*
X135168800Y-123727595D01*
X135345557Y-123550838D01*
X135414673Y-123717699D01*
X135476290Y-123779315D01*
X135348405Y-123907200D01*
X135383692Y-124120768D01*
X135806564Y-124261149D01*
X136213000Y-124231763D01*
X136213000Y-124464310D01*
X136309673Y-124697699D01*
X136488302Y-124876327D01*
X136721691Y-124973000D01*
X139102250Y-124973000D01*
X139261000Y-124814250D01*
X139261000Y-123255000D01*
X139241000Y-123255000D01*
X139241000Y-123001000D01*
X139261000Y-123001000D01*
X139261000Y-121441750D01*
X139102250Y-121283000D01*
X136721691Y-121283000D01*
X136488302Y-121379673D01*
X136309673Y-121558301D01*
X136213000Y-121791690D01*
X136213000Y-122035871D01*
X136089436Y-121994851D01*
X135645032Y-122026982D01*
X135383692Y-122135232D01*
X135348405Y-122348800D01*
X135476290Y-122476685D01*
X135414673Y-122538301D01*
X135345557Y-122705162D01*
X135168800Y-122528405D01*
X134955232Y-122563692D01*
X134814851Y-122986564D01*
X77715356Y-122986564D01*
X77715356Y-115025874D01*
X78406041Y-115025874D01*
X78896287Y-116212361D01*
X79803264Y-117120923D01*
X80988894Y-117613239D01*
X82272674Y-117614359D01*
X83459161Y-117124113D01*
X84367723Y-116217136D01*
X84860039Y-115031506D01*
X84860983Y-113949074D01*
X135786441Y-113949074D01*
X136276687Y-115135561D01*
X137183664Y-116044123D01*
X138369294Y-116536439D01*
X139653074Y-116537559D01*
X140839561Y-116047313D01*
X141748123Y-115140336D01*
X142240439Y-113954706D01*
X142241559Y-112670926D01*
X141751313Y-111484439D01*
X140844336Y-110575877D01*
X139658706Y-110083561D01*
X138374926Y-110082441D01*
X137188439Y-110572687D01*
X136279877Y-111479664D01*
X135787561Y-112665294D01*
X135786441Y-113949074D01*
X84860983Y-113949074D01*
X84861159Y-113747726D01*
X84370913Y-112561239D01*
X83463936Y-111652677D01*
X82278306Y-111160361D01*
X80994526Y-111159241D01*
X79808039Y-111649487D01*
X78899477Y-112556464D01*
X78407161Y-113742094D01*
X78406041Y-115025874D01*
X77715356Y-115025874D01*
X77715356Y-81438750D01*
X138469000Y-81438750D01*
X138469000Y-82129310D01*
X138565673Y-82362699D01*
X138744302Y-82541327D01*
X138977691Y-82638000D01*
X139668250Y-82638000D01*
X139827000Y-82479250D01*
X139827000Y-81280000D01*
X140081000Y-81280000D01*
X140081000Y-82479250D01*
X140239750Y-82638000D01*
X140930309Y-82638000D01*
X141163698Y-82541327D01*
X141342327Y-82362699D01*
X141439000Y-82129310D01*
X141439000Y-81438750D01*
X141280250Y-81280000D01*
X140081000Y-81280000D01*
X139827000Y-81280000D01*
X138627750Y-81280000D01*
X138469000Y-81438750D01*
X77715356Y-81438750D01*
X77715356Y-76073000D01*
X138439907Y-76073000D01*
X138552946Y-76641285D01*
X138874853Y-77123054D01*
X139204026Y-77343000D01*
X138874853Y-77562946D01*
X138552946Y-78044715D01*
X138439907Y-78613000D01*
X138552946Y-79181285D01*
X138874853Y-79663054D01*
X138918777Y-79692403D01*
X138744302Y-79764673D01*
X138565673Y-79943301D01*
X138469000Y-80176690D01*
X138469000Y-80867250D01*
X138627750Y-81026000D01*
X139827000Y-81026000D01*
X139827000Y-81006000D01*
X140081000Y-81006000D01*
X140081000Y-81026000D01*
X141280250Y-81026000D01*
X141439000Y-80867250D01*
X141439000Y-80176690D01*
X141342327Y-79943301D01*
X141163698Y-79764673D01*
X140989223Y-79692403D01*
X141033147Y-79663054D01*
X141355054Y-79181285D01*
X141468093Y-78613000D01*
X141355054Y-78044715D01*
X141033147Y-77562946D01*
X140703974Y-77343000D01*
X141033147Y-77123054D01*
X141355054Y-76641285D01*
X141468093Y-76073000D01*
X141355054Y-75504715D01*
X141033147Y-75022946D01*
X140692447Y-74795298D01*
X140835358Y-74728183D01*
X141225645Y-74299924D01*
X141395476Y-73889890D01*
X141274155Y-73660000D01*
X140081000Y-73660000D01*
X140081000Y-73680000D01*
X139827000Y-73680000D01*
X139827000Y-73660000D01*
X138633845Y-73660000D01*
X138512524Y-73889890D01*
X138682355Y-74299924D01*
X139072642Y-74728183D01*
X139215553Y-74795298D01*
X138874853Y-75022946D01*
X138552946Y-75504715D01*
X138439907Y-76073000D01*
X77715356Y-76073000D01*
X77715356Y-73176110D01*
X138512524Y-73176110D01*
X138633845Y-73406000D01*
X139827000Y-73406000D01*
X139827000Y-72212181D01*
X140081000Y-72212181D01*
X140081000Y-73406000D01*
X141274155Y-73406000D01*
X141395476Y-73176110D01*
X141225645Y-72766076D01*
X140835358Y-72337817D01*
X140310892Y-72091514D01*
X140081000Y-72212181D01*
X139827000Y-72212181D01*
X139597108Y-72091514D01*
X139072642Y-72337817D01*
X138682355Y-72766076D01*
X138512524Y-73176110D01*
X77715356Y-73176110D01*
X77715356Y-64962474D01*
X77796441Y-64962474D01*
X78286687Y-66148961D01*
X79193664Y-67057523D01*
X80379294Y-67549839D01*
X81663074Y-67550959D01*
X82849561Y-67060713D01*
X83758123Y-66153736D01*
X84250439Y-64968106D01*
X84251559Y-63684326D01*
X83761313Y-62497839D01*
X82854336Y-61589277D01*
X81668706Y-61096961D01*
X80384926Y-61095841D01*
X79198439Y-61586087D01*
X78289877Y-62493064D01*
X77797561Y-63678694D01*
X77796441Y-64962474D01*
X77715356Y-64962474D01*
X77715356Y-63317600D01*
X77706841Y-63274792D01*
X77878573Y-62411434D01*
X78377493Y-61664748D01*
X79124181Y-61165828D01*
X79987542Y-60994095D01*
X80030356Y-61002611D01*
X80030356Y-61002611D01*
G37*
X80030356Y-61002611D02*
X88837141Y-61002611D01*
X88322823Y-61516929D01*
X87950715Y-61590946D01*
X87468946Y-61912853D01*
X87249000Y-62242026D01*
X87029054Y-61912853D01*
X86547285Y-61590946D01*
X85979000Y-61477907D01*
X85410715Y-61590946D01*
X84928946Y-61912853D01*
X84607039Y-62394622D01*
X84494000Y-62962907D01*
X84494000Y-63021093D01*
X84607039Y-63589378D01*
X84928946Y-64071147D01*
X84930179Y-64071971D01*
X84893683Y-64078838D01*
X84677559Y-64217910D01*
X84532569Y-64430110D01*
X84481560Y-64682000D01*
X84481560Y-66382000D01*
X84525838Y-66617317D01*
X84664910Y-66833441D01*
X84877110Y-66978431D01*
X85129000Y-67029440D01*
X86829000Y-67029440D01*
X87064317Y-66985162D01*
X87280441Y-66846090D01*
X87425431Y-66633890D01*
X87439086Y-66566459D01*
X87468946Y-66611147D01*
X87950715Y-66933054D01*
X88519000Y-67046093D01*
X89087285Y-66933054D01*
X89569054Y-66611147D01*
X89789000Y-66281974D01*
X90008946Y-66611147D01*
X90490715Y-66933054D01*
X91059000Y-67046093D01*
X91627285Y-66933054D01*
X92109054Y-66611147D01*
X92329000Y-66281974D01*
X92548946Y-66611147D01*
X93030715Y-66933054D01*
X93599000Y-67046093D01*
X94167285Y-66933054D01*
X94649054Y-66611147D01*
X94876702Y-66270447D01*
X94943817Y-66413358D01*
X95372076Y-66803645D01*
X95782110Y-66973476D01*
X96012000Y-66852155D01*
X96012000Y-65659000D01*
X95992000Y-65659000D01*
X95992000Y-65405000D01*
X96012000Y-65405000D01*
X96012000Y-65385000D01*
X96266000Y-65385000D01*
X96266000Y-65405000D01*
X96286000Y-65405000D01*
X96286000Y-65659000D01*
X96266000Y-65659000D01*
X96266000Y-66852155D01*
X96495890Y-66973476D01*
X96905924Y-66803645D01*
X97334183Y-66413358D01*
X97401298Y-66270447D01*
X97628946Y-66611147D01*
X98110715Y-66933054D01*
X98679000Y-67046093D01*
X99247285Y-66933054D01*
X99729054Y-66611147D01*
X99949000Y-66281974D01*
X100168946Y-66611147D01*
X100650715Y-66933054D01*
X101219000Y-67046093D01*
X101787285Y-66933054D01*
X102269054Y-66611147D01*
X102489000Y-66281974D01*
X102708946Y-66611147D01*
X103190715Y-66933054D01*
X103759000Y-67046093D01*
X104327285Y-66933054D01*
X104809054Y-66611147D01*
X105029000Y-66281974D01*
X105248946Y-66611147D01*
X105730715Y-66933054D01*
X106299000Y-67046093D01*
X106867285Y-66933054D01*
X107349054Y-66611147D01*
X107569000Y-66281974D01*
X107788946Y-66611147D01*
X108270715Y-66933054D01*
X108839000Y-67046093D01*
X109407285Y-66933054D01*
X109889054Y-66611147D01*
X110109000Y-66281974D01*
X110328946Y-66611147D01*
X110810715Y-66933054D01*
X111379000Y-67046093D01*
X111947285Y-66933054D01*
X112429054Y-66611147D01*
X112649000Y-66281974D01*
X112868946Y-66611147D01*
X113350715Y-66933054D01*
X113919000Y-67046093D01*
X114487285Y-66933054D01*
X114969054Y-66611147D01*
X115196702Y-66270447D01*
X115263817Y-66413358D01*
X115692076Y-66803645D01*
X116102110Y-66973476D01*
X116332000Y-66852155D01*
X116332000Y-65659000D01*
X116312000Y-65659000D01*
X116312000Y-65405000D01*
X116332000Y-65405000D01*
X116332000Y-65385000D01*
X116586000Y-65385000D01*
X116586000Y-65405000D01*
X116606000Y-65405000D01*
X116606000Y-65659000D01*
X116586000Y-65659000D01*
X116586000Y-66852155D01*
X116815890Y-66973476D01*
X117225924Y-66803645D01*
X117654183Y-66413358D01*
X117721298Y-66270447D01*
X117948946Y-66611147D01*
X118430715Y-66933054D01*
X118999000Y-67046093D01*
X119567285Y-66933054D01*
X120049054Y-66611147D01*
X120269000Y-66281974D01*
X120488946Y-66611147D01*
X120970715Y-66933054D01*
X121539000Y-67046093D01*
X122107285Y-66933054D01*
X122589054Y-66611147D01*
X122809000Y-66281974D01*
X123028946Y-66611147D01*
X123510715Y-66933054D01*
X123922074Y-67014878D01*
X122976676Y-67960276D01*
X122724398Y-68337837D01*
X122635810Y-68783200D01*
X122635810Y-69423671D01*
X122427639Y-69735222D01*
X122314600Y-70303507D01*
X122314600Y-70361693D01*
X122427639Y-70929978D01*
X122749546Y-71411747D01*
X123231315Y-71733654D01*
X123799600Y-71846693D01*
X124367885Y-71733654D01*
X124849654Y-71411747D01*
X124877450Y-71370148D01*
X124886438Y-71417917D01*
X125025510Y-71634041D01*
X125237710Y-71779031D01*
X125489600Y-71830040D01*
X127189600Y-71830040D01*
X127424917Y-71785762D01*
X127641041Y-71646690D01*
X127786031Y-71434490D01*
X127837040Y-71182600D01*
X127837040Y-69482600D01*
X127792762Y-69247283D01*
X127653690Y-69031159D01*
X127507088Y-68930990D01*
X135051800Y-68930990D01*
X135497163Y-68842402D01*
X135874724Y-68590124D01*
X137246324Y-67218524D01*
X137327675Y-67096774D01*
X138394694Y-67539839D01*
X139678474Y-67540959D01*
X140864961Y-67050713D01*
X141773523Y-66143736D01*
X142265839Y-64958106D01*
X142266959Y-63674326D01*
X141776713Y-62487839D01*
X140869736Y-61579277D01*
X139684106Y-61086961D01*
X138400326Y-61085841D01*
X137213839Y-61576087D01*
X137174853Y-61615005D01*
X136562459Y-61002611D01*
X140030356Y-61002611D01*
X140060470Y-60996621D01*
X140911133Y-61165828D01*
X141657819Y-61664748D01*
X142156739Y-62411436D01*
X142345356Y-63359678D01*
X142345356Y-121437331D01*
X142287698Y-121379673D01*
X142054309Y-121283000D01*
X139673750Y-121283000D01*
X139515000Y-121441750D01*
X139515000Y-123001000D01*
X139535000Y-123001000D01*
X139535000Y-123255000D01*
X139515000Y-123255000D01*
X139515000Y-124814250D01*
X139673750Y-124973000D01*
X142054309Y-124973000D01*
X142287698Y-124876327D01*
X142345356Y-124818669D01*
X142345356Y-130197331D01*
X142287698Y-130139673D01*
X142054309Y-130043000D01*
X139673750Y-130043000D01*
X139515000Y-130201750D01*
X139515000Y-131761000D01*
X139535000Y-131761000D01*
X139535000Y-132015000D01*
X139515000Y-132015000D01*
X139515000Y-133574250D01*
X139673750Y-133733000D01*
X142054309Y-133733000D01*
X142287698Y-133636327D01*
X142345356Y-133578669D01*
X142345356Y-146750000D01*
X142362210Y-146834728D01*
X142180597Y-147739498D01*
X141680376Y-148485311D01*
X140932561Y-148983100D01*
X140058302Y-149156208D01*
X140000000Y-149144611D01*
X80097823Y-149144611D01*
X79149581Y-148955994D01*
X78402893Y-148457074D01*
X77903973Y-147710388D01*
X77714148Y-146756072D01*
X77715356Y-146750000D01*
X77715356Y-131746564D01*
X134814851Y-131746564D01*
X134846982Y-132190968D01*
X134955232Y-132452308D01*
X135168800Y-132487595D01*
X135345557Y-132310838D01*
X135414673Y-132477699D01*
X135476290Y-132539315D01*
X135348405Y-132667200D01*
X135383692Y-132880768D01*
X135806564Y-133021149D01*
X136213000Y-132991763D01*
X136213000Y-133224310D01*
X136309673Y-133457699D01*
X136488302Y-133636327D01*
X136721691Y-133733000D01*
X139102250Y-133733000D01*
X139261000Y-133574250D01*
X139261000Y-132015000D01*
X139241000Y-132015000D01*
X139241000Y-131761000D01*
X139261000Y-131761000D01*
X139261000Y-130201750D01*
X139102250Y-130043000D01*
X136721691Y-130043000D01*
X136488302Y-130139673D01*
X136309673Y-130318301D01*
X136213000Y-130551690D01*
X136213000Y-130795871D01*
X136089436Y-130754851D01*
X135645032Y-130786982D01*
X135383692Y-130895232D01*
X135348405Y-131108800D01*
X135476290Y-131236685D01*
X135414673Y-131298301D01*
X135345557Y-131465162D01*
X135168800Y-131288405D01*
X134955232Y-131323692D01*
X134814851Y-131746564D01*
X77715356Y-131746564D01*
X77715356Y-122986564D01*
X134814851Y-122986564D01*
X134846982Y-123430968D01*
X134955232Y-123692308D01*
X135168800Y-123727595D01*
X135345557Y-123550838D01*
X135414673Y-123717699D01*
X135476290Y-123779315D01*
X135348405Y-123907200D01*
X135383692Y-124120768D01*
X135806564Y-124261149D01*
X136213000Y-124231763D01*
X136213000Y-124464310D01*
X136309673Y-124697699D01*
X136488302Y-124876327D01*
X136721691Y-124973000D01*
X139102250Y-124973000D01*
X139261000Y-124814250D01*
X139261000Y-123255000D01*
X139241000Y-123255000D01*
X139241000Y-123001000D01*
X139261000Y-123001000D01*
X139261000Y-121441750D01*
X139102250Y-121283000D01*
X136721691Y-121283000D01*
X136488302Y-121379673D01*
X136309673Y-121558301D01*
X136213000Y-121791690D01*
X136213000Y-122035871D01*
X136089436Y-121994851D01*
X135645032Y-122026982D01*
X135383692Y-122135232D01*
X135348405Y-122348800D01*
X135476290Y-122476685D01*
X135414673Y-122538301D01*
X135345557Y-122705162D01*
X135168800Y-122528405D01*
X134955232Y-122563692D01*
X134814851Y-122986564D01*
X77715356Y-122986564D01*
X77715356Y-115025874D01*
X78406041Y-115025874D01*
X78896287Y-116212361D01*
X79803264Y-117120923D01*
X80988894Y-117613239D01*
X82272674Y-117614359D01*
X83459161Y-117124113D01*
X84367723Y-116217136D01*
X84860039Y-115031506D01*
X84860983Y-113949074D01*
X135786441Y-113949074D01*
X136276687Y-115135561D01*
X137183664Y-116044123D01*
X138369294Y-116536439D01*
X139653074Y-116537559D01*
X140839561Y-116047313D01*
X141748123Y-115140336D01*
X142240439Y-113954706D01*
X142241559Y-112670926D01*
X141751313Y-111484439D01*
X140844336Y-110575877D01*
X139658706Y-110083561D01*
X138374926Y-110082441D01*
X137188439Y-110572687D01*
X136279877Y-111479664D01*
X135787561Y-112665294D01*
X135786441Y-113949074D01*
X84860983Y-113949074D01*
X84861159Y-113747726D01*
X84370913Y-112561239D01*
X83463936Y-111652677D01*
X82278306Y-111160361D01*
X80994526Y-111159241D01*
X79808039Y-111649487D01*
X78899477Y-112556464D01*
X78407161Y-113742094D01*
X78406041Y-115025874D01*
X77715356Y-115025874D01*
X77715356Y-81438750D01*
X138469000Y-81438750D01*
X138469000Y-82129310D01*
X138565673Y-82362699D01*
X138744302Y-82541327D01*
X138977691Y-82638000D01*
X139668250Y-82638000D01*
X139827000Y-82479250D01*
X139827000Y-81280000D01*
X140081000Y-81280000D01*
X140081000Y-82479250D01*
X140239750Y-82638000D01*
X140930309Y-82638000D01*
X141163698Y-82541327D01*
X141342327Y-82362699D01*
X141439000Y-82129310D01*
X141439000Y-81438750D01*
X141280250Y-81280000D01*
X140081000Y-81280000D01*
X139827000Y-81280000D01*
X138627750Y-81280000D01*
X138469000Y-81438750D01*
X77715356Y-81438750D01*
X77715356Y-76073000D01*
X138439907Y-76073000D01*
X138552946Y-76641285D01*
X138874853Y-77123054D01*
X139204026Y-77343000D01*
X138874853Y-77562946D01*
X138552946Y-78044715D01*
X138439907Y-78613000D01*
X138552946Y-79181285D01*
X138874853Y-79663054D01*
X138918777Y-79692403D01*
X138744302Y-79764673D01*
X138565673Y-79943301D01*
X138469000Y-80176690D01*
X138469000Y-80867250D01*
X138627750Y-81026000D01*
X139827000Y-81026000D01*
X139827000Y-81006000D01*
X140081000Y-81006000D01*
X140081000Y-81026000D01*
X141280250Y-81026000D01*
X141439000Y-80867250D01*
X141439000Y-80176690D01*
X141342327Y-79943301D01*
X141163698Y-79764673D01*
X140989223Y-79692403D01*
X141033147Y-79663054D01*
X141355054Y-79181285D01*
X141468093Y-78613000D01*
X141355054Y-78044715D01*
X141033147Y-77562946D01*
X140703974Y-77343000D01*
X141033147Y-77123054D01*
X141355054Y-76641285D01*
X141468093Y-76073000D01*
X141355054Y-75504715D01*
X141033147Y-75022946D01*
X140692447Y-74795298D01*
X140835358Y-74728183D01*
X141225645Y-74299924D01*
X141395476Y-73889890D01*
X141274155Y-73660000D01*
X140081000Y-73660000D01*
X140081000Y-73680000D01*
X139827000Y-73680000D01*
X139827000Y-73660000D01*
X138633845Y-73660000D01*
X138512524Y-73889890D01*
X138682355Y-74299924D01*
X139072642Y-74728183D01*
X139215553Y-74795298D01*
X138874853Y-75022946D01*
X138552946Y-75504715D01*
X138439907Y-76073000D01*
X77715356Y-76073000D01*
X77715356Y-73176110D01*
X138512524Y-73176110D01*
X138633845Y-73406000D01*
X139827000Y-73406000D01*
X139827000Y-72212181D01*
X140081000Y-72212181D01*
X140081000Y-73406000D01*
X141274155Y-73406000D01*
X141395476Y-73176110D01*
X141225645Y-72766076D01*
X140835358Y-72337817D01*
X140310892Y-72091514D01*
X140081000Y-72212181D01*
X139827000Y-72212181D01*
X139597108Y-72091514D01*
X139072642Y-72337817D01*
X138682355Y-72766076D01*
X138512524Y-73176110D01*
X77715356Y-73176110D01*
X77715356Y-64962474D01*
X77796441Y-64962474D01*
X78286687Y-66148961D01*
X79193664Y-67057523D01*
X80379294Y-67549839D01*
X81663074Y-67550959D01*
X82849561Y-67060713D01*
X83758123Y-66153736D01*
X84250439Y-64968106D01*
X84251559Y-63684326D01*
X83761313Y-62497839D01*
X82854336Y-61589277D01*
X81668706Y-61096961D01*
X80384926Y-61095841D01*
X79198439Y-61586087D01*
X78289877Y-62493064D01*
X77797561Y-63678694D01*
X77796441Y-64962474D01*
X77715356Y-64962474D01*
X77715356Y-63317600D01*
X77706841Y-63274792D01*
X77878573Y-62411434D01*
X78377493Y-61664748D01*
X79124181Y-61165828D01*
X79987542Y-60994095D01*
X80030356Y-61002611D01*
G36*
X134366000Y-65405000D02*
X134386000Y-65405000D01*
X134386000Y-65659000D01*
X134366000Y-65659000D01*
X134366000Y-65679000D01*
X134112000Y-65679000D01*
X134112000Y-65659000D01*
X134092000Y-65659000D01*
X134092000Y-65405000D01*
X134112000Y-65405000D01*
X134112000Y-65385000D01*
X134366000Y-65385000D01*
X134366000Y-65405000D01*
X134366000Y-65405000D01*
G37*
X134366000Y-65405000D02*
X134386000Y-65405000D01*
X134386000Y-65659000D01*
X134366000Y-65659000D01*
X134366000Y-65679000D01*
X134112000Y-65679000D01*
X134112000Y-65659000D01*
X134092000Y-65659000D01*
X134092000Y-65405000D01*
X134112000Y-65405000D01*
X134112000Y-65385000D01*
X134366000Y-65385000D01*
X134366000Y-65405000D01*
G36*
X91186000Y-62865000D02*
X91206000Y-62865000D01*
X91206000Y-63119000D01*
X91186000Y-63119000D01*
X91186000Y-63139000D01*
X90932000Y-63139000D01*
X90932000Y-63119000D01*
X90912000Y-63119000D01*
X90912000Y-62865000D01*
X90932000Y-62865000D01*
X90932000Y-62845000D01*
X91186000Y-62845000D01*
X91186000Y-62865000D01*
X91186000Y-62865000D01*
G37*
X91186000Y-62865000D02*
X91206000Y-62865000D01*
X91206000Y-63119000D01*
X91186000Y-63119000D01*
X91186000Y-63139000D01*
X90932000Y-63139000D01*
X90932000Y-63119000D01*
X90912000Y-63119000D01*
X90912000Y-62865000D01*
X90932000Y-62865000D01*
X90932000Y-62845000D01*
X91186000Y-62845000D01*
X91186000Y-62865000D01*
G36*
X126746000Y-62865000D02*
X126766000Y-62865000D01*
X126766000Y-63119000D01*
X126746000Y-63119000D01*
X126746000Y-63139000D01*
X126492000Y-63139000D01*
X126492000Y-63119000D01*
X126472000Y-63119000D01*
X126472000Y-62865000D01*
X126492000Y-62865000D01*
X126492000Y-62845000D01*
X126746000Y-62845000D01*
X126746000Y-62865000D01*
X126746000Y-62865000D01*
G37*
X126746000Y-62865000D02*
X126766000Y-62865000D01*
X126766000Y-63119000D01*
X126746000Y-63119000D01*
X126746000Y-63139000D01*
X126492000Y-63139000D01*
X126492000Y-63119000D01*
X126472000Y-63119000D01*
X126472000Y-62865000D01*
X126492000Y-62865000D01*
X126492000Y-62845000D01*
X126746000Y-62845000D01*
X126746000Y-62865000D01*
G36*
X121666000Y-62865000D02*
X121686000Y-62865000D01*
X121686000Y-63119000D01*
X121666000Y-63119000D01*
X121666000Y-63139000D01*
X121412000Y-63139000D01*
X121412000Y-63119000D01*
X121392000Y-63119000D01*
X121392000Y-62865000D01*
X121412000Y-62865000D01*
X121412000Y-62845000D01*
X121666000Y-62845000D01*
X121666000Y-62865000D01*
X121666000Y-62865000D01*
G37*
X121666000Y-62865000D02*
X121686000Y-62865000D01*
X121686000Y-63119000D01*
X121666000Y-63119000D01*
X121666000Y-63139000D01*
X121412000Y-63139000D01*
X121412000Y-63119000D01*
X121392000Y-63119000D01*
X121392000Y-62865000D01*
X121412000Y-62865000D01*
X121412000Y-62845000D01*
X121666000Y-62845000D01*
X121666000Y-62865000D01*
G36*
X108966000Y-62865000D02*
X108986000Y-62865000D01*
X108986000Y-63119000D01*
X108966000Y-63119000D01*
X108966000Y-63139000D01*
X108712000Y-63139000D01*
X108712000Y-63119000D01*
X108692000Y-63119000D01*
X108692000Y-62865000D01*
X108712000Y-62865000D01*
X108712000Y-62845000D01*
X108966000Y-62845000D01*
X108966000Y-62865000D01*
X108966000Y-62865000D01*
G37*
X108966000Y-62865000D02*
X108986000Y-62865000D01*
X108986000Y-63119000D01*
X108966000Y-63119000D01*
X108966000Y-63139000D01*
X108712000Y-63139000D01*
X108712000Y-63119000D01*
X108692000Y-63119000D01*
X108692000Y-62865000D01*
X108712000Y-62865000D01*
X108712000Y-62845000D01*
X108966000Y-62845000D01*
X108966000Y-62865000D01*
G36*
X101346000Y-62865000D02*
X101366000Y-62865000D01*
X101366000Y-63119000D01*
X101346000Y-63119000D01*
X101346000Y-63139000D01*
X101092000Y-63139000D01*
X101092000Y-63119000D01*
X101072000Y-63119000D01*
X101072000Y-62865000D01*
X101092000Y-62865000D01*
X101092000Y-62845000D01*
X101346000Y-62845000D01*
X101346000Y-62865000D01*
X101346000Y-62865000D01*
G37*
X101346000Y-62865000D02*
X101366000Y-62865000D01*
X101366000Y-63119000D01*
X101346000Y-63119000D01*
X101346000Y-63139000D01*
X101092000Y-63139000D01*
X101092000Y-63119000D01*
X101072000Y-63119000D01*
X101072000Y-62865000D01*
X101092000Y-62865000D01*
X101092000Y-62845000D01*
X101346000Y-62845000D01*
X101346000Y-62865000D01*
M02*
