G04 #@! TF.FileFunction,Paste,Top*
%FSLAX46Y46*%
G04 Gerber Fmt 4.6, Leading zero omitted, Abs format (unit mm)*
G04 Created by KiCad (PCBNEW 4.0.7-e2-6376~61~ubuntu18.04.1) date Fri Sep  6 21:57:16 2019*
%MOMM*%
%LPD*%
G01*
G04 APERTURE LIST*
%ADD10C,0.100000*%
%ADD11R,1.250000X1.500000*%
%ADD12R,1.500000X1.250000*%
%ADD13R,1.300000X1.500000*%
%ADD14R,5.080000X2.290000*%
%ADD15R,5.080000X2.420000*%
%ADD16R,1.500000X1.300000*%
%ADD17R,2.500000X1.000000*%
%ADD18R,4.000000X2.000000*%
%ADD19R,1.524000X1.397000*%
%ADD20R,1.200000X2.200000*%
%ADD21R,2.750000X3.050000*%
G04 APERTURE END LIST*
D10*
X77030356Y-63317600D02*
X77030356Y-146750000D01*
X77004956Y-63292211D02*
G75*
G02X80004956Y-60292211I3000000J0D01*
G01*
X140030356Y-60317611D02*
X80030356Y-60317611D01*
X140030356Y-60292211D02*
G75*
G02X143030356Y-63292211I0J-3000000D01*
G01*
X143030356Y-63317600D02*
X143030356Y-146750000D01*
X80030356Y-149829611D02*
G75*
G02X77030356Y-146829611I0J3000000D01*
G01*
X80000000Y-149829611D02*
X140000000Y-149829611D01*
X143055751Y-146860247D02*
G75*
G02X140055756Y-149855011I-2999995J5236D01*
G01*
D11*
X107061000Y-123576400D03*
X107061000Y-121076400D03*
X110744000Y-123576400D03*
X110744000Y-121076400D03*
D12*
X126243400Y-86410800D03*
X123743400Y-86410800D03*
D11*
X94945200Y-100767200D03*
X94945200Y-98267200D03*
X94945200Y-138435400D03*
X94945200Y-135935400D03*
D12*
X97439800Y-104013000D03*
X94939800Y-104013000D03*
X97439800Y-131851400D03*
X94939800Y-131851400D03*
X97414400Y-79578200D03*
X94914400Y-79578200D03*
D11*
X134721600Y-78658400D03*
X134721600Y-81158400D03*
X94945200Y-70871400D03*
X94945200Y-68371400D03*
D13*
X123444000Y-76407000D03*
X123444000Y-73707000D03*
D14*
X139388000Y-127508000D03*
D15*
X139388000Y-131888000D03*
X139388000Y-123128000D03*
D16*
X97641400Y-121081800D03*
X94941400Y-121081800D03*
D13*
X94945200Y-110163600D03*
X94945200Y-107463600D03*
X94945200Y-127867400D03*
X94945200Y-125167400D03*
X94945200Y-73834000D03*
X94945200Y-76534000D03*
X126619000Y-76407000D03*
X126619000Y-73707000D03*
X94945200Y-92071200D03*
X94945200Y-94771200D03*
D16*
X94941400Y-88671400D03*
X97641400Y-88671400D03*
D13*
X94945200Y-82698600D03*
X94945200Y-85398600D03*
D17*
X94921000Y-113993800D03*
X94921000Y-115493800D03*
X94921000Y-116993800D03*
D18*
X98881000Y-115493800D03*
D10*
G36*
X96906000Y-116493800D02*
X96156000Y-115993800D01*
X96156000Y-114993800D01*
X96906000Y-114493800D01*
X96906000Y-116493800D01*
X96906000Y-116493800D01*
G37*
D19*
X108661200Y-143700500D03*
X108661200Y-133159500D03*
X113741200Y-143700500D03*
X113741200Y-133159500D03*
X118821200Y-143700500D03*
X118821200Y-133159500D03*
X123901200Y-143700500D03*
X123901200Y-133159500D03*
D20*
X130829400Y-91735800D03*
X128549400Y-91735800D03*
X126269400Y-91735800D03*
D21*
X127024400Y-99710800D03*
X130074400Y-96360800D03*
X130074400Y-99710800D03*
X127024400Y-96360800D03*
M02*
