G04 #@! TF.FileFunction,Legend,Bot*
%FSLAX46Y46*%
G04 Gerber Fmt 4.6, Leading zero omitted, Abs format (unit mm)*
G04 Created by KiCad (PCBNEW 4.0.7-e2-6376~61~ubuntu18.04.1) date Fri Sep  6 21:57:16 2019*
%MOMM*%
%LPD*%
G01*
G04 APERTURE LIST*
%ADD10C,0.100000*%
%ADD11C,0.120000*%
%ADD12C,0.150000*%
G04 APERTURE END LIST*
D10*
X77030356Y-63317600D02*
X77030356Y-146750000D01*
X77004956Y-63292211D02*
G75*
G02X80004956Y-60292211I3000000J0D01*
G01*
X140030356Y-60317611D02*
X80030356Y-60317611D01*
X140030356Y-60292211D02*
G75*
G02X143030356Y-63292211I0J-3000000D01*
G01*
X143030356Y-63317600D02*
X143030356Y-146750000D01*
X80030356Y-149829611D02*
G75*
G02X77030356Y-146829611I0J3000000D01*
G01*
X80000000Y-149829611D02*
X140000000Y-149829611D01*
X143055751Y-146860247D02*
G75*
G02X140055756Y-149855011I-2999995J5236D01*
G01*
D11*
X87249000Y-66862000D02*
X135569000Y-66862000D01*
X135569000Y-66862000D02*
X135569000Y-61662000D01*
X135569000Y-61662000D02*
X84649000Y-61662000D01*
X84649000Y-61662000D02*
X84649000Y-64262000D01*
X84649000Y-64262000D02*
X87249000Y-64262000D01*
X87249000Y-64262000D02*
X87249000Y-66862000D01*
X85979000Y-66862000D02*
X84649000Y-66862000D01*
X84649000Y-66862000D02*
X84649000Y-65592000D01*
D12*
X81181533Y-59269381D02*
X81181533Y-59983667D01*
X81229153Y-60126524D01*
X81324391Y-60221762D01*
X81467248Y-60269381D01*
X81562486Y-60269381D01*
X80800581Y-59269381D02*
X80181533Y-59269381D01*
X80514867Y-59650333D01*
X80372009Y-59650333D01*
X80276771Y-59697952D01*
X80229152Y-59745571D01*
X80181533Y-59840810D01*
X80181533Y-60078905D01*
X80229152Y-60174143D01*
X80276771Y-60221762D01*
X80372009Y-60269381D01*
X80657724Y-60269381D01*
X80752962Y-60221762D01*
X80800581Y-60174143D01*
M02*
