M48
;DRILL file {KiCad 4.0.7-e2-6376~61~ubuntu18.04.1} date Fri Sep  6 21:57:47 2019
;FORMAT={-:-/ absolute / inch / decimal}
FMAT,2
INCH,TZ
T1C0.008
T2C0.018
T3C0.020
T4C0.039
%
G90
G05
M72
T1
X3.109Y-2.677
X3.124Y-3.232
X3.126Y-3.714
X3.133Y-4.176
X3.142Y-5.234
X3.144Y-4.796
X3.157Y-5.579
X3.508Y-4.554
X3.509Y-4.286
X3.512Y-4.865
X3.517Y-5.22
X3.517Y-5.57
X3.522Y-2.842
X3.522Y-3.139
X3.528Y-3.799
X3.531Y-3.488
X3.893Y-4.547
X3.931Y-4.103
X3.935Y-3.138
X3.936Y-2.742
X3.936Y-3.493
X3.936Y-3.784
X3.936Y-4.478
X3.937Y-4.618
X3.947Y-4.549
X3.947Y-5.65
X3.952Y-4.99
X3.952Y-5.44
X4.006Y-4.549
X4.156Y-2.666
X4.215Y-4.94
X4.362Y-4.946
X4.506Y-5.819
X4.585Y-2.66
X4.662Y-4.965
X4.743Y-2.663
X4.743Y-2.816
X4.783Y-3.005
X4.86Y-5.817
X4.866Y-3.852
X4.8708Y-3.293
X4.873Y-3.089
X4.887Y-4.82
X5.06Y-3.773
X5.06Y-4.061
X5.061Y-3.8597
X5.086Y-3.104
X5.086Y-3.276
X5.091Y-3.452
X5.182Y-5.215
X5.182Y-5.445
X5.182Y-5.66
X5.207Y-4.835
X5.223Y-2.9
X5.302Y-3.762
X5.304Y-3.295
X5.313Y-3.848
X5.368Y-2.893
X5.399Y-3.195
X5.48Y-2.787
X5.588Y-3.04
T2
X5.3523Y-4.8476
X5.3523Y-5.1924
T3
X4.248Y-5.2
X4.278Y-5.425
X4.278Y-5.475
X4.308Y-5.2
X4.378Y-5.425
X4.378Y-5.475
X4.448Y-5.2
X4.448Y-5.7
X4.478Y-5.425
X4.478Y-5.475
X4.508Y-5.2
X4.508Y-5.7
X4.578Y-5.425
X4.578Y-5.475
X4.648Y-5.2
X4.648Y-5.7
X4.678Y-5.425
X4.678Y-5.475
X4.708Y-5.2
X4.708Y-5.7
X4.778Y-5.425
X4.778Y-5.475
X4.848Y-5.7
X4.878Y-5.425
X4.878Y-5.475
X4.908Y-5.7
T4
X3.385Y-2.48
X3.385Y-2.58
X3.485Y-2.48
X3.485Y-2.58
X3.585Y-2.48
X3.585Y-2.58
X3.685Y-2.48
X3.685Y-2.58
X3.785Y-2.48
X3.785Y-2.58
X3.885Y-2.48
X3.885Y-2.58
X3.985Y-2.48
X3.985Y-2.58
X4.085Y-2.48
X4.085Y-2.58
X4.185Y-2.48
X4.185Y-2.58
X4.285Y-2.48
X4.285Y-2.58
X4.385Y-2.48
X4.385Y-2.58
X4.485Y-2.48
X4.485Y-2.58
X4.585Y-2.48
X4.585Y-2.58
X4.685Y-2.48
X4.685Y-2.58
X4.785Y-2.48
X4.785Y-2.58
X4.874Y-2.769
X4.885Y-2.48
X4.885Y-2.58
X4.974Y-2.769
X4.985Y-2.48
X4.985Y-2.58
X5.085Y-2.48
X5.085Y-2.58
X5.185Y-2.48
X5.185Y-2.58
X5.285Y-2.48
X5.285Y-2.58
X5.51Y-2.895
X5.51Y-2.995
X5.51Y-3.095
X5.51Y-3.195
T0
M30
