G04 #@! TF.FileFunction,Legend,Top*
%FSLAX46Y46*%
G04 Gerber Fmt 4.6, Leading zero omitted, Abs format (unit mm)*
G04 Created by KiCad (PCBNEW 4.0.7-e2-6376~61~ubuntu18.04.1) date Fri Sep  6 21:57:16 2019*
%MOMM*%
%LPD*%
G01*
G04 APERTURE LIST*
%ADD10C,0.100000*%
%ADD11C,0.300000*%
%ADD12C,0.120000*%
%ADD13C,0.150000*%
G04 APERTURE END LIST*
D10*
D11*
X80384144Y-144493143D02*
X80598430Y-144564571D01*
X80955573Y-144564571D01*
X81098430Y-144493143D01*
X81169859Y-144421714D01*
X81241287Y-144278857D01*
X81241287Y-144136000D01*
X81169859Y-143993143D01*
X81098430Y-143921714D01*
X80955573Y-143850286D01*
X80669859Y-143778857D01*
X80527001Y-143707429D01*
X80455573Y-143636000D01*
X80384144Y-143493143D01*
X80384144Y-143350286D01*
X80455573Y-143207429D01*
X80527001Y-143136000D01*
X80669859Y-143064571D01*
X81027001Y-143064571D01*
X81241287Y-143136000D01*
X81884144Y-144564571D02*
X81884144Y-143064571D01*
X82241287Y-143064571D01*
X82455572Y-143136000D01*
X82598430Y-143278857D01*
X82669858Y-143421714D01*
X82741287Y-143707429D01*
X82741287Y-143921714D01*
X82669858Y-144207429D01*
X82598430Y-144350286D01*
X82455572Y-144493143D01*
X82241287Y-144564571D01*
X81884144Y-144564571D01*
X84241287Y-144564571D02*
X83741287Y-143850286D01*
X83384144Y-144564571D02*
X83384144Y-143064571D01*
X83955572Y-143064571D01*
X84098430Y-143136000D01*
X84169858Y-143207429D01*
X84241287Y-143350286D01*
X84241287Y-143564571D01*
X84169858Y-143707429D01*
X84098430Y-143778857D01*
X83955572Y-143850286D01*
X83384144Y-143850286D01*
X85955572Y-143207429D02*
X86027001Y-143136000D01*
X86169858Y-143064571D01*
X86527001Y-143064571D01*
X86669858Y-143136000D01*
X86741287Y-143207429D01*
X86812715Y-143350286D01*
X86812715Y-143493143D01*
X86741287Y-143707429D01*
X85884144Y-144564571D01*
X86812715Y-144564571D01*
X87455572Y-144564571D02*
X87455572Y-143064571D01*
X87955572Y-144136000D01*
X88455572Y-143064571D01*
X88455572Y-144564571D01*
X91027001Y-143064571D02*
X90312715Y-143064571D01*
X90241286Y-143778857D01*
X90312715Y-143707429D01*
X90455572Y-143636000D01*
X90812715Y-143636000D01*
X90955572Y-143707429D01*
X91027001Y-143778857D01*
X91098429Y-143921714D01*
X91098429Y-144278857D01*
X91027001Y-144421714D01*
X90955572Y-144493143D01*
X90812715Y-144564571D01*
X90455572Y-144564571D01*
X90312715Y-144493143D01*
X90241286Y-144421714D01*
X92027000Y-143064571D02*
X92169857Y-143064571D01*
X92312714Y-143136000D01*
X92384143Y-143207429D01*
X92455572Y-143350286D01*
X92527000Y-143636000D01*
X92527000Y-143993143D01*
X92455572Y-144278857D01*
X92384143Y-144421714D01*
X92312714Y-144493143D01*
X92169857Y-144564571D01*
X92027000Y-144564571D01*
X91884143Y-144493143D01*
X91812714Y-144421714D01*
X91741286Y-144278857D01*
X91669857Y-143993143D01*
X91669857Y-143636000D01*
X91741286Y-143350286D01*
X91812714Y-143207429D01*
X91884143Y-143136000D01*
X92027000Y-143064571D01*
X93455571Y-143064571D02*
X93598428Y-143064571D01*
X93741285Y-143136000D01*
X93812714Y-143207429D01*
X93884143Y-143350286D01*
X93955571Y-143636000D01*
X93955571Y-143993143D01*
X93884143Y-144278857D01*
X93812714Y-144421714D01*
X93741285Y-144493143D01*
X93598428Y-144564571D01*
X93455571Y-144564571D01*
X93312714Y-144493143D01*
X93241285Y-144421714D01*
X93169857Y-144278857D01*
X93098428Y-143993143D01*
X93098428Y-143636000D01*
X93169857Y-143350286D01*
X93241285Y-143207429D01*
X93312714Y-143136000D01*
X93455571Y-143064571D01*
X94598428Y-144564571D02*
X94598428Y-143564571D01*
X94598428Y-143707429D02*
X94669856Y-143636000D01*
X94812714Y-143564571D01*
X95026999Y-143564571D01*
X95169856Y-143636000D01*
X95241285Y-143778857D01*
X95241285Y-144564571D01*
X95241285Y-143778857D02*
X95312714Y-143636000D01*
X95455571Y-143564571D01*
X95669856Y-143564571D01*
X95812714Y-143636000D01*
X95884142Y-143778857D01*
X95884142Y-144564571D01*
X96455571Y-143064571D02*
X96812714Y-144564571D01*
X97098428Y-143493143D01*
X97384142Y-144564571D01*
X97741285Y-143064571D01*
X84027001Y-147114571D02*
X83169858Y-147114571D01*
X83598430Y-147114571D02*
X83598430Y-145614571D01*
X83455573Y-145828857D01*
X83312715Y-145971714D01*
X83169858Y-146043143D01*
X85312715Y-146114571D02*
X85312715Y-147114571D01*
X84955572Y-145543143D02*
X84598429Y-146614571D01*
X85527001Y-146614571D01*
X86812715Y-145614571D02*
X86098429Y-145614571D01*
X86027000Y-146328857D01*
X86098429Y-146257429D01*
X86241286Y-146186000D01*
X86598429Y-146186000D01*
X86741286Y-146257429D01*
X86812715Y-146328857D01*
X86884143Y-146471714D01*
X86884143Y-146828857D01*
X86812715Y-146971714D01*
X86741286Y-147043143D01*
X86598429Y-147114571D01*
X86241286Y-147114571D01*
X86098429Y-147043143D01*
X86027000Y-146971714D01*
X87527000Y-147114571D02*
X87527000Y-145614571D01*
X88027000Y-146686000D01*
X88527000Y-145614571D01*
X88527000Y-147114571D01*
X89241286Y-147114571D02*
X89241286Y-145614571D01*
X89884143Y-147114571D02*
X89884143Y-146328857D01*
X89812714Y-146186000D01*
X89669857Y-146114571D01*
X89455572Y-146114571D01*
X89312714Y-146186000D01*
X89241286Y-146257429D01*
X90455572Y-146114571D02*
X91241286Y-146114571D01*
X90455572Y-147114571D01*
X91241286Y-147114571D01*
X92741286Y-145614571D02*
X93598429Y-145614571D01*
X93169858Y-147114571D02*
X93169858Y-145614571D01*
X93955572Y-145614571D02*
X94955572Y-147114571D01*
X94955572Y-145614571D02*
X93955572Y-147114571D01*
X134118743Y-135409629D02*
X134190172Y-135338200D01*
X134333029Y-135266771D01*
X134690172Y-135266771D01*
X134833029Y-135338200D01*
X134904458Y-135409629D01*
X134975886Y-135552486D01*
X134975886Y-135695343D01*
X134904458Y-135909629D01*
X134047315Y-136766771D01*
X134975886Y-136766771D01*
X135618743Y-136766771D02*
X135618743Y-135266771D01*
X136118743Y-136338200D01*
X136618743Y-135266771D01*
X136618743Y-136766771D01*
X138261600Y-135266771D02*
X139118743Y-135266771D01*
X138690172Y-136766771D02*
X138690172Y-135266771D01*
X139475886Y-135266771D02*
X140475886Y-136766771D01*
X140475886Y-135266771D02*
X139475886Y-136766771D01*
X134404458Y-137816771D02*
X133690172Y-137816771D01*
X133618743Y-138531057D01*
X133690172Y-138459629D01*
X133833029Y-138388200D01*
X134190172Y-138388200D01*
X134333029Y-138459629D01*
X134404458Y-138531057D01*
X134475886Y-138673914D01*
X134475886Y-139031057D01*
X134404458Y-139173914D01*
X134333029Y-139245343D01*
X134190172Y-139316771D01*
X133833029Y-139316771D01*
X133690172Y-139245343D01*
X133618743Y-139173914D01*
X135404457Y-137816771D02*
X135547314Y-137816771D01*
X135690171Y-137888200D01*
X135761600Y-137959629D01*
X135833029Y-138102486D01*
X135904457Y-138388200D01*
X135904457Y-138745343D01*
X135833029Y-139031057D01*
X135761600Y-139173914D01*
X135690171Y-139245343D01*
X135547314Y-139316771D01*
X135404457Y-139316771D01*
X135261600Y-139245343D01*
X135190171Y-139173914D01*
X135118743Y-139031057D01*
X135047314Y-138745343D01*
X135047314Y-138388200D01*
X135118743Y-138102486D01*
X135190171Y-137959629D01*
X135261600Y-137888200D01*
X135404457Y-137816771D01*
X136833028Y-137816771D02*
X136975885Y-137816771D01*
X137118742Y-137888200D01*
X137190171Y-137959629D01*
X137261600Y-138102486D01*
X137333028Y-138388200D01*
X137333028Y-138745343D01*
X137261600Y-139031057D01*
X137190171Y-139173914D01*
X137118742Y-139245343D01*
X136975885Y-139316771D01*
X136833028Y-139316771D01*
X136690171Y-139245343D01*
X136618742Y-139173914D01*
X136547314Y-139031057D01*
X136475885Y-138745343D01*
X136475885Y-138388200D01*
X136547314Y-138102486D01*
X136618742Y-137959629D01*
X136690171Y-137888200D01*
X136833028Y-137816771D01*
X137975885Y-139316771D02*
X137975885Y-138316771D01*
X137975885Y-138459629D02*
X138047313Y-138388200D01*
X138190171Y-138316771D01*
X138404456Y-138316771D01*
X138547313Y-138388200D01*
X138618742Y-138531057D01*
X138618742Y-139316771D01*
X138618742Y-138531057D02*
X138690171Y-138388200D01*
X138833028Y-138316771D01*
X139047313Y-138316771D01*
X139190171Y-138388200D01*
X139261599Y-138531057D01*
X139261599Y-139316771D01*
X139833028Y-138316771D02*
X140118742Y-139316771D01*
X140404456Y-138602486D01*
X140690171Y-139316771D01*
X140975885Y-138316771D01*
X86789343Y-86216142D02*
X86860771Y-86001856D01*
X86860771Y-85644713D01*
X86789343Y-85501856D01*
X86717914Y-85430427D01*
X86575057Y-85358999D01*
X86432200Y-85358999D01*
X86289343Y-85430427D01*
X86217914Y-85501856D01*
X86146486Y-85644713D01*
X86075057Y-85930427D01*
X86003629Y-86073285D01*
X85932200Y-86144713D01*
X85789343Y-86216142D01*
X85646486Y-86216142D01*
X85503629Y-86144713D01*
X85432200Y-86073285D01*
X85360771Y-85930427D01*
X85360771Y-85573285D01*
X85432200Y-85358999D01*
X86860771Y-84716142D02*
X85360771Y-84716142D01*
X86860771Y-83858999D01*
X85360771Y-83858999D01*
X86717914Y-83144713D02*
X86789343Y-83073285D01*
X86860771Y-83144713D01*
X86789343Y-83216142D01*
X86717914Y-83144713D01*
X86860771Y-83144713D01*
X87003629Y-81644713D02*
X87003629Y-80501856D01*
X87003629Y-80501856D02*
X87003629Y-79358999D01*
X87003629Y-79358999D02*
X87003629Y-78216142D01*
X87003629Y-78216142D02*
X87003629Y-77073285D01*
X87003629Y-77073285D02*
X87003629Y-75930428D01*
X87003629Y-75930428D02*
X87003629Y-74787571D01*
X87003629Y-74787571D02*
X87003629Y-73644714D01*
X87003629Y-73644714D02*
X87003629Y-72501857D01*
X87003629Y-72501857D02*
X87003629Y-71359000D01*
X87003629Y-71359000D02*
X87003629Y-70216143D01*
X82034771Y-85490428D02*
X81320486Y-85990428D01*
X82034771Y-86347571D02*
X80534771Y-86347571D01*
X80534771Y-85776143D01*
X80606200Y-85633285D01*
X80677629Y-85561857D01*
X80820486Y-85490428D01*
X81034771Y-85490428D01*
X81177629Y-85561857D01*
X81249057Y-85633285D01*
X81320486Y-85776143D01*
X81320486Y-86347571D01*
X81963343Y-84276143D02*
X82034771Y-84419000D01*
X82034771Y-84704714D01*
X81963343Y-84847571D01*
X81820486Y-84919000D01*
X81249057Y-84919000D01*
X81106200Y-84847571D01*
X81034771Y-84704714D01*
X81034771Y-84419000D01*
X81106200Y-84276143D01*
X81249057Y-84204714D01*
X81391914Y-84204714D01*
X81534771Y-84919000D01*
X81034771Y-83776143D02*
X81034771Y-83204714D01*
X82034771Y-83561857D02*
X80749057Y-83561857D01*
X80606200Y-83490429D01*
X80534771Y-83347571D01*
X80534771Y-83204714D01*
X81891914Y-82704714D02*
X81963343Y-82633286D01*
X82034771Y-82704714D01*
X81963343Y-82776143D01*
X81891914Y-82704714D01*
X82034771Y-82704714D01*
X82034771Y-80061857D02*
X82034771Y-80919000D01*
X82034771Y-80490428D02*
X80534771Y-80490428D01*
X80749057Y-80633285D01*
X80891914Y-80776143D01*
X80963343Y-80919000D01*
X81891914Y-79419000D02*
X81963343Y-79347572D01*
X82034771Y-79419000D01*
X81963343Y-79490429D01*
X81891914Y-79419000D01*
X82034771Y-79419000D01*
X80534771Y-78847571D02*
X80534771Y-77919000D01*
X81106200Y-78419000D01*
X81106200Y-78204714D01*
X81177629Y-78061857D01*
X81249057Y-77990428D01*
X81391914Y-77919000D01*
X81749057Y-77919000D01*
X81891914Y-77990428D01*
X81963343Y-78061857D01*
X82034771Y-78204714D01*
X82034771Y-78633286D01*
X81963343Y-78776143D01*
X81891914Y-78847571D01*
X112228143Y-118662571D02*
X109228143Y-118662571D01*
X112228143Y-117376857D02*
X110656714Y-117376857D01*
X110371000Y-117519714D01*
X110228143Y-117805428D01*
X110228143Y-118234000D01*
X110371000Y-118519714D01*
X110513857Y-118662571D01*
X110228143Y-116376857D02*
X110228143Y-115234000D01*
X109228143Y-115948285D02*
X111799571Y-115948285D01*
X112085286Y-115805428D01*
X112228143Y-115519714D01*
X112228143Y-115234000D01*
X110228143Y-114662571D02*
X110228143Y-113519714D01*
X109228143Y-114233999D02*
X111799571Y-114233999D01*
X112085286Y-114091142D01*
X112228143Y-113805428D01*
X112228143Y-113519714D01*
X110228143Y-112519713D02*
X113228143Y-112519713D01*
X110371000Y-112519713D02*
X110228143Y-112233999D01*
X110228143Y-111662570D01*
X110371000Y-111376856D01*
X110513857Y-111233999D01*
X110799571Y-111091142D01*
X111656714Y-111091142D01*
X111942429Y-111233999D01*
X112085286Y-111376856D01*
X112228143Y-111662570D01*
X112228143Y-112233999D01*
X112085286Y-112519713D01*
X111942429Y-109805427D02*
X112085286Y-109662570D01*
X112228143Y-109805427D01*
X112085286Y-109948284D01*
X111942429Y-109805427D01*
X112228143Y-109805427D01*
X110371000Y-109805427D02*
X110513857Y-109662570D01*
X110656714Y-109805427D01*
X110513857Y-109948284D01*
X110371000Y-109805427D01*
X110656714Y-109805427D01*
X109085286Y-106233999D02*
X112942429Y-108805428D01*
X109085286Y-103091142D02*
X112942429Y-105662571D01*
X110228143Y-102376857D02*
X112228143Y-101805428D01*
X110799571Y-101233999D01*
X112228143Y-100662571D01*
X110228143Y-100091142D01*
X110228143Y-99234000D02*
X112228143Y-98662571D01*
X110799571Y-98091142D01*
X112228143Y-97519714D01*
X110228143Y-96948285D01*
X110228143Y-96091143D02*
X112228143Y-95519714D01*
X110799571Y-94948285D01*
X112228143Y-94376857D01*
X110228143Y-93805428D01*
X111942429Y-92662571D02*
X112085286Y-92519714D01*
X112228143Y-92662571D01*
X112085286Y-92805428D01*
X111942429Y-92662571D01*
X112228143Y-92662571D01*
X110228143Y-89948286D02*
X112656714Y-89948286D01*
X112942429Y-90091143D01*
X113085286Y-90234000D01*
X113228143Y-90519715D01*
X113228143Y-90948286D01*
X113085286Y-91234000D01*
X112085286Y-89948286D02*
X112228143Y-90234000D01*
X112228143Y-90805429D01*
X112085286Y-91091143D01*
X111942429Y-91234000D01*
X111656714Y-91376857D01*
X110799571Y-91376857D01*
X110513857Y-91234000D01*
X110371000Y-91091143D01*
X110228143Y-90805429D01*
X110228143Y-90234000D01*
X110371000Y-89948286D01*
X112228143Y-88519714D02*
X110228143Y-88519714D01*
X109228143Y-88519714D02*
X109371000Y-88662571D01*
X109513857Y-88519714D01*
X109371000Y-88376857D01*
X109228143Y-88519714D01*
X109513857Y-88519714D01*
X110228143Y-85805429D02*
X112656714Y-85805429D01*
X112942429Y-85948286D01*
X113085286Y-86091143D01*
X113228143Y-86376858D01*
X113228143Y-86805429D01*
X113085286Y-87091143D01*
X112085286Y-85805429D02*
X112228143Y-86091143D01*
X112228143Y-86662572D01*
X112085286Y-86948286D01*
X111942429Y-87091143D01*
X111656714Y-87234000D01*
X110799571Y-87234000D01*
X110513857Y-87091143D01*
X110371000Y-86948286D01*
X110228143Y-86662572D01*
X110228143Y-86091143D01*
X110371000Y-85805429D01*
X112228143Y-83091143D02*
X110656714Y-83091143D01*
X110371000Y-83234000D01*
X110228143Y-83519714D01*
X110228143Y-84091143D01*
X110371000Y-84376857D01*
X112085286Y-83091143D02*
X112228143Y-83376857D01*
X112228143Y-84091143D01*
X112085286Y-84376857D01*
X111799571Y-84519714D01*
X111513857Y-84519714D01*
X111228143Y-84376857D01*
X111085286Y-84091143D01*
X111085286Y-83376857D01*
X110942429Y-83091143D01*
X111942429Y-81662571D02*
X112085286Y-81519714D01*
X112228143Y-81662571D01*
X112085286Y-81805428D01*
X111942429Y-81662571D01*
X112228143Y-81662571D01*
X112085286Y-78948286D02*
X112228143Y-79234000D01*
X112228143Y-79805429D01*
X112085286Y-80091143D01*
X111942429Y-80234000D01*
X111656714Y-80376857D01*
X110799571Y-80376857D01*
X110513857Y-80234000D01*
X110371000Y-80091143D01*
X110228143Y-79805429D01*
X110228143Y-79234000D01*
X110371000Y-78948286D01*
X112228143Y-77234000D02*
X112085286Y-77519714D01*
X111942429Y-77662571D01*
X111656714Y-77805428D01*
X110799571Y-77805428D01*
X110513857Y-77662571D01*
X110371000Y-77519714D01*
X110228143Y-77234000D01*
X110228143Y-76805428D01*
X110371000Y-76519714D01*
X110513857Y-76376857D01*
X110799571Y-76234000D01*
X111656714Y-76234000D01*
X111942429Y-76376857D01*
X112085286Y-76519714D01*
X112228143Y-76805428D01*
X112228143Y-77234000D01*
X111942429Y-74948285D02*
X112085286Y-74805428D01*
X112228143Y-74948285D01*
X112085286Y-75091142D01*
X111942429Y-74948285D01*
X112228143Y-74948285D01*
X110228143Y-73805429D02*
X110228143Y-72234000D01*
X112228143Y-73805429D01*
X112228143Y-72234000D01*
X112228143Y-69805429D02*
X110656714Y-69805429D01*
X110371000Y-69948286D01*
X110228143Y-70234000D01*
X110228143Y-70805429D01*
X110371000Y-71091143D01*
X112085286Y-69805429D02*
X112228143Y-70091143D01*
X112228143Y-70805429D01*
X112085286Y-71091143D01*
X111799571Y-71234000D01*
X111513857Y-71234000D01*
X111228143Y-71091143D01*
X111085286Y-70805429D01*
X111085286Y-70091143D01*
X110942429Y-69805429D01*
D10*
X77030356Y-63317600D02*
X77030356Y-146750000D01*
X77004956Y-63292211D02*
G75*
G02X80004956Y-60292211I3000000J0D01*
G01*
X140030356Y-60317611D02*
X80030356Y-60317611D01*
X140030356Y-60292211D02*
G75*
G02X143030356Y-63292211I0J-3000000D01*
G01*
X143030356Y-63317600D02*
X143030356Y-146750000D01*
X80030356Y-149829611D02*
G75*
G02X77030356Y-146829611I0J3000000D01*
G01*
X80000000Y-149829611D02*
X140000000Y-149829611D01*
X143055751Y-146860247D02*
G75*
G02X140055756Y-149855011I-2999995J5236D01*
G01*
D12*
X106211000Y-121826400D02*
X106211000Y-122826400D01*
X107911000Y-122826400D02*
X107911000Y-121826400D01*
X109894000Y-121826400D02*
X109894000Y-122826400D01*
X111594000Y-122826400D02*
X111594000Y-121826400D01*
X124493400Y-87260800D02*
X125493400Y-87260800D01*
X125493400Y-85560800D02*
X124493400Y-85560800D01*
X94095200Y-99017200D02*
X94095200Y-100017200D01*
X95795200Y-100017200D02*
X95795200Y-99017200D01*
X94095200Y-136685400D02*
X94095200Y-137685400D01*
X95795200Y-137685400D02*
X95795200Y-136685400D01*
X95689800Y-104863000D02*
X96689800Y-104863000D01*
X96689800Y-103163000D02*
X95689800Y-103163000D01*
X95689800Y-132701400D02*
X96689800Y-132701400D01*
X96689800Y-131001400D02*
X95689800Y-131001400D01*
X95664400Y-80428200D02*
X96664400Y-80428200D01*
X96664400Y-78728200D02*
X95664400Y-78728200D01*
X135571600Y-80408400D02*
X135571600Y-79408400D01*
X133871600Y-79408400D02*
X133871600Y-80408400D01*
X94095200Y-69121400D02*
X94095200Y-70121400D01*
X95795200Y-70121400D02*
X95795200Y-69121400D01*
X124194000Y-74057000D02*
X124194000Y-77257000D01*
X122694000Y-77257000D02*
X122694000Y-74057000D01*
X122694000Y-77257000D02*
X124194000Y-77257000D01*
X141284000Y-79883000D02*
X141284000Y-72203000D01*
X141284000Y-72203000D02*
X138624000Y-72203000D01*
X138624000Y-72203000D02*
X138624000Y-79883000D01*
X138624000Y-79883000D02*
X141284000Y-79883000D01*
X141284000Y-81153000D02*
X141284000Y-82483000D01*
X141284000Y-82483000D02*
X139954000Y-82483000D01*
X95691400Y-120201800D02*
X96891400Y-120201800D01*
X96891400Y-121961800D02*
X95691400Y-121961800D01*
X95825200Y-108213600D02*
X95825200Y-109413600D01*
X94065200Y-109413600D02*
X94065200Y-108213600D01*
X95825200Y-125917400D02*
X95825200Y-127117400D01*
X94065200Y-127117400D02*
X94065200Y-125917400D01*
X94065200Y-75784000D02*
X94065200Y-74584000D01*
X95825200Y-74584000D02*
X95825200Y-75784000D01*
X127499000Y-74457000D02*
X127499000Y-75657000D01*
X125739000Y-75657000D02*
X125739000Y-74457000D01*
X94065200Y-94021200D02*
X94065200Y-92821200D01*
X95825200Y-92821200D02*
X95825200Y-94021200D01*
X96891400Y-89551400D02*
X95691400Y-89551400D01*
X95691400Y-87791400D02*
X96891400Y-87791400D01*
X94065200Y-84648600D02*
X94065200Y-83448600D01*
X95825200Y-83448600D02*
X95825200Y-84648600D01*
X98681000Y-116693800D02*
X98681000Y-117893800D01*
X98681000Y-117893800D02*
X95981000Y-117893800D01*
X94681000Y-113093800D02*
X98681000Y-113093800D01*
X98681000Y-113093800D02*
X98681000Y-114293800D01*
X122469600Y-69002600D02*
X122469600Y-71662600D01*
X125069600Y-69002600D02*
X122469600Y-69002600D01*
X125069600Y-71662600D02*
X122469600Y-71662600D01*
X125069600Y-69002600D02*
X125069600Y-71662600D01*
X126339600Y-69002600D02*
X127669600Y-69002600D01*
X127669600Y-69002600D02*
X127669600Y-70332600D01*
X106629200Y-132842000D02*
X106629200Y-144272000D01*
X106629200Y-144272000D02*
X107645200Y-144272000D01*
X125933200Y-132842000D02*
X125933200Y-144018000D01*
X107645200Y-144272000D02*
X107645200Y-144780000D01*
X131999400Y-94965800D02*
X131999400Y-93465800D01*
X131999400Y-93465800D02*
X131729400Y-93465800D01*
X131729400Y-93465800D02*
X131729400Y-90635800D01*
X125099400Y-94965800D02*
X125099400Y-93465800D01*
X125099400Y-93465800D02*
X125369400Y-93465800D01*
X125369400Y-93465800D02*
X125369400Y-92365800D01*
D13*
X138312095Y-113852381D02*
X138312095Y-112852381D01*
X138312095Y-113328571D02*
X138883524Y-113328571D01*
X138883524Y-113852381D02*
X138883524Y-112852381D01*
X139264476Y-112852381D02*
X139883524Y-112852381D01*
X139550190Y-113233333D01*
X139693048Y-113233333D01*
X139788286Y-113280952D01*
X139835905Y-113328571D01*
X139883524Y-113423810D01*
X139883524Y-113661905D01*
X139835905Y-113757143D01*
X139788286Y-113804762D01*
X139693048Y-113852381D01*
X139407333Y-113852381D01*
X139312095Y-113804762D01*
X139264476Y-113757143D01*
X138312095Y-113852381D02*
X138312095Y-112852381D01*
X138312095Y-113328571D02*
X138883524Y-113328571D01*
X138883524Y-113852381D02*
X138883524Y-112852381D01*
X139788286Y-113185714D02*
X139788286Y-113852381D01*
X139550190Y-112804762D02*
X139312095Y-113519048D01*
X139931143Y-113519048D01*
X138337495Y-64855781D02*
X138337495Y-63855781D01*
X138337495Y-64331971D02*
X138908924Y-64331971D01*
X138908924Y-64855781D02*
X138908924Y-63855781D01*
X139337495Y-63951019D02*
X139385114Y-63903400D01*
X139480352Y-63855781D01*
X139718448Y-63855781D01*
X139813686Y-63903400D01*
X139861305Y-63951019D01*
X139908924Y-64046257D01*
X139908924Y-64141495D01*
X139861305Y-64284352D01*
X139289876Y-64855781D01*
X139908924Y-64855781D01*
X80322095Y-64865781D02*
X80322095Y-63865781D01*
X80322095Y-64341971D02*
X80893524Y-64341971D01*
X80893524Y-64865781D02*
X80893524Y-63865781D01*
X81893524Y-64865781D02*
X81322095Y-64865781D01*
X81607809Y-64865781D02*
X81607809Y-63865781D01*
X81512571Y-64008638D01*
X81417333Y-64103876D01*
X81322095Y-64151495D01*
X80931695Y-114929181D02*
X80931695Y-113929181D01*
X80931695Y-114405371D02*
X81503124Y-114405371D01*
X81503124Y-114929181D02*
X81503124Y-113929181D01*
X81884076Y-113929181D02*
X82503124Y-113929181D01*
X82169790Y-114310133D01*
X82312648Y-114310133D01*
X82407886Y-114357752D01*
X82455505Y-114405371D01*
X82503124Y-114500610D01*
X82503124Y-114738705D01*
X82455505Y-114833943D01*
X82407886Y-114881562D01*
X82312648Y-114929181D01*
X82026933Y-114929181D01*
X81931695Y-114881562D01*
X81884076Y-114833943D01*
X80931695Y-114929181D02*
X80931695Y-113929181D01*
X80931695Y-114405371D02*
X81503124Y-114405371D01*
X81503124Y-114929181D02*
X81503124Y-113929181D01*
X81884076Y-113929181D02*
X82503124Y-113929181D01*
X82169790Y-114310133D01*
X82312648Y-114310133D01*
X82407886Y-114357752D01*
X82455505Y-114405371D01*
X82503124Y-114500610D01*
X82503124Y-114738705D01*
X82455505Y-114833943D01*
X82407886Y-114881562D01*
X82312648Y-114929181D01*
X82026933Y-114929181D01*
X81931695Y-114881562D01*
X81884076Y-114833943D01*
X80931695Y-114929181D02*
X80931695Y-113929181D01*
X80931695Y-114405371D02*
X81503124Y-114405371D01*
X81503124Y-114929181D02*
X81503124Y-113929181D01*
X81884076Y-113929181D02*
X82503124Y-113929181D01*
X82169790Y-114310133D01*
X82312648Y-114310133D01*
X82407886Y-114357752D01*
X82455505Y-114405371D01*
X82503124Y-114500610D01*
X82503124Y-114738705D01*
X82455505Y-114833943D01*
X82407886Y-114881562D01*
X82312648Y-114929181D01*
X82026933Y-114929181D01*
X81931695Y-114881562D01*
X81884076Y-114833943D01*
X80931695Y-114929181D02*
X80931695Y-113929181D01*
X80931695Y-114405371D02*
X81503124Y-114405371D01*
X81503124Y-114929181D02*
X81503124Y-113929181D01*
X81884076Y-113929181D02*
X82503124Y-113929181D01*
X82169790Y-114310133D01*
X82312648Y-114310133D01*
X82407886Y-114357752D01*
X82455505Y-114405371D01*
X82503124Y-114500610D01*
X82503124Y-114738705D01*
X82455505Y-114833943D01*
X82407886Y-114881562D01*
X82312648Y-114929181D01*
X82026933Y-114929181D01*
X81931695Y-114881562D01*
X81884076Y-114833943D01*
X105668143Y-122493066D02*
X105715762Y-122540685D01*
X105763381Y-122683542D01*
X105763381Y-122778780D01*
X105715762Y-122921638D01*
X105620524Y-123016876D01*
X105525286Y-123064495D01*
X105334810Y-123112114D01*
X105191952Y-123112114D01*
X105001476Y-123064495D01*
X104906238Y-123016876D01*
X104811000Y-122921638D01*
X104763381Y-122778780D01*
X104763381Y-122683542D01*
X104811000Y-122540685D01*
X104858619Y-122493066D01*
X105763381Y-121540685D02*
X105763381Y-122112114D01*
X105763381Y-121826400D02*
X104763381Y-121826400D01*
X104906238Y-121921638D01*
X105001476Y-122016876D01*
X105049095Y-122112114D01*
X109351143Y-122493066D02*
X109398762Y-122540685D01*
X109446381Y-122683542D01*
X109446381Y-122778780D01*
X109398762Y-122921638D01*
X109303524Y-123016876D01*
X109208286Y-123064495D01*
X109017810Y-123112114D01*
X108874952Y-123112114D01*
X108684476Y-123064495D01*
X108589238Y-123016876D01*
X108494000Y-122921638D01*
X108446381Y-122778780D01*
X108446381Y-122683542D01*
X108494000Y-122540685D01*
X108541619Y-122493066D01*
X108541619Y-122112114D02*
X108494000Y-122064495D01*
X108446381Y-121969257D01*
X108446381Y-121731161D01*
X108494000Y-121635923D01*
X108541619Y-121588304D01*
X108636857Y-121540685D01*
X108732095Y-121540685D01*
X108874952Y-121588304D01*
X109446381Y-122159733D01*
X109446381Y-121540685D01*
X124826734Y-88517943D02*
X124779115Y-88565562D01*
X124636258Y-88613181D01*
X124541020Y-88613181D01*
X124398162Y-88565562D01*
X124302924Y-88470324D01*
X124255305Y-88375086D01*
X124207686Y-88184610D01*
X124207686Y-88041752D01*
X124255305Y-87851276D01*
X124302924Y-87756038D01*
X124398162Y-87660800D01*
X124541020Y-87613181D01*
X124636258Y-87613181D01*
X124779115Y-87660800D01*
X124826734Y-87708419D01*
X125160067Y-87613181D02*
X125779115Y-87613181D01*
X125445781Y-87994133D01*
X125588639Y-87994133D01*
X125683877Y-88041752D01*
X125731496Y-88089371D01*
X125779115Y-88184610D01*
X125779115Y-88422705D01*
X125731496Y-88517943D01*
X125683877Y-88565562D01*
X125588639Y-88613181D01*
X125302924Y-88613181D01*
X125207686Y-88565562D01*
X125160067Y-88517943D01*
X93552343Y-99683866D02*
X93599962Y-99731485D01*
X93647581Y-99874342D01*
X93647581Y-99969580D01*
X93599962Y-100112438D01*
X93504724Y-100207676D01*
X93409486Y-100255295D01*
X93219010Y-100302914D01*
X93076152Y-100302914D01*
X92885676Y-100255295D01*
X92790438Y-100207676D01*
X92695200Y-100112438D01*
X92647581Y-99969580D01*
X92647581Y-99874342D01*
X92695200Y-99731485D01*
X92742819Y-99683866D01*
X92980914Y-98826723D02*
X93647581Y-98826723D01*
X92599962Y-99064819D02*
X93314248Y-99302914D01*
X93314248Y-98683866D01*
X93552343Y-137352066D02*
X93599962Y-137399685D01*
X93647581Y-137542542D01*
X93647581Y-137637780D01*
X93599962Y-137780638D01*
X93504724Y-137875876D01*
X93409486Y-137923495D01*
X93219010Y-137971114D01*
X93076152Y-137971114D01*
X92885676Y-137923495D01*
X92790438Y-137875876D01*
X92695200Y-137780638D01*
X92647581Y-137637780D01*
X92647581Y-137542542D01*
X92695200Y-137399685D01*
X92742819Y-137352066D01*
X92647581Y-136447304D02*
X92647581Y-136923495D01*
X93123771Y-136971114D01*
X93076152Y-136923495D01*
X93028533Y-136828257D01*
X93028533Y-136590161D01*
X93076152Y-136494923D01*
X93123771Y-136447304D01*
X93219010Y-136399685D01*
X93457105Y-136399685D01*
X93552343Y-136447304D01*
X93599962Y-136494923D01*
X93647581Y-136590161D01*
X93647581Y-136828257D01*
X93599962Y-136923495D01*
X93552343Y-136971114D01*
X96023134Y-106120143D02*
X95975515Y-106167762D01*
X95832658Y-106215381D01*
X95737420Y-106215381D01*
X95594562Y-106167762D01*
X95499324Y-106072524D01*
X95451705Y-105977286D01*
X95404086Y-105786810D01*
X95404086Y-105643952D01*
X95451705Y-105453476D01*
X95499324Y-105358238D01*
X95594562Y-105263000D01*
X95737420Y-105215381D01*
X95832658Y-105215381D01*
X95975515Y-105263000D01*
X96023134Y-105310619D01*
X96880277Y-105215381D02*
X96689800Y-105215381D01*
X96594562Y-105263000D01*
X96546943Y-105310619D01*
X96451705Y-105453476D01*
X96404086Y-105643952D01*
X96404086Y-106024905D01*
X96451705Y-106120143D01*
X96499324Y-106167762D01*
X96594562Y-106215381D01*
X96785039Y-106215381D01*
X96880277Y-106167762D01*
X96927896Y-106120143D01*
X96975515Y-106024905D01*
X96975515Y-105786810D01*
X96927896Y-105691571D01*
X96880277Y-105643952D01*
X96785039Y-105596333D01*
X96594562Y-105596333D01*
X96499324Y-105643952D01*
X96451705Y-105691571D01*
X96404086Y-105786810D01*
X96023134Y-133958543D02*
X95975515Y-134006162D01*
X95832658Y-134053781D01*
X95737420Y-134053781D01*
X95594562Y-134006162D01*
X95499324Y-133910924D01*
X95451705Y-133815686D01*
X95404086Y-133625210D01*
X95404086Y-133482352D01*
X95451705Y-133291876D01*
X95499324Y-133196638D01*
X95594562Y-133101400D01*
X95737420Y-133053781D01*
X95832658Y-133053781D01*
X95975515Y-133101400D01*
X96023134Y-133149019D01*
X96356467Y-133053781D02*
X97023134Y-133053781D01*
X96594562Y-134053781D01*
X95997734Y-81685343D02*
X95950115Y-81732962D01*
X95807258Y-81780581D01*
X95712020Y-81780581D01*
X95569162Y-81732962D01*
X95473924Y-81637724D01*
X95426305Y-81542486D01*
X95378686Y-81352010D01*
X95378686Y-81209152D01*
X95426305Y-81018676D01*
X95473924Y-80923438D01*
X95569162Y-80828200D01*
X95712020Y-80780581D01*
X95807258Y-80780581D01*
X95950115Y-80828200D01*
X95997734Y-80875819D01*
X96569162Y-81209152D02*
X96473924Y-81161533D01*
X96426305Y-81113914D01*
X96378686Y-81018676D01*
X96378686Y-80971057D01*
X96426305Y-80875819D01*
X96473924Y-80828200D01*
X96569162Y-80780581D01*
X96759639Y-80780581D01*
X96854877Y-80828200D01*
X96902496Y-80875819D01*
X96950115Y-80971057D01*
X96950115Y-81018676D01*
X96902496Y-81113914D01*
X96854877Y-81161533D01*
X96759639Y-81209152D01*
X96569162Y-81209152D01*
X96473924Y-81256771D01*
X96426305Y-81304390D01*
X96378686Y-81399629D01*
X96378686Y-81590105D01*
X96426305Y-81685343D01*
X96473924Y-81732962D01*
X96569162Y-81780581D01*
X96759639Y-81780581D01*
X96854877Y-81732962D01*
X96902496Y-81685343D01*
X96950115Y-81590105D01*
X96950115Y-81399629D01*
X96902496Y-81304390D01*
X96854877Y-81256771D01*
X96759639Y-81209152D01*
X136828743Y-80075066D02*
X136876362Y-80122685D01*
X136923981Y-80265542D01*
X136923981Y-80360780D01*
X136876362Y-80503638D01*
X136781124Y-80598876D01*
X136685886Y-80646495D01*
X136495410Y-80694114D01*
X136352552Y-80694114D01*
X136162076Y-80646495D01*
X136066838Y-80598876D01*
X135971600Y-80503638D01*
X135923981Y-80360780D01*
X135923981Y-80265542D01*
X135971600Y-80122685D01*
X136019219Y-80075066D01*
X136923981Y-79598876D02*
X136923981Y-79408400D01*
X136876362Y-79313161D01*
X136828743Y-79265542D01*
X136685886Y-79170304D01*
X136495410Y-79122685D01*
X136114457Y-79122685D01*
X136019219Y-79170304D01*
X135971600Y-79217923D01*
X135923981Y-79313161D01*
X135923981Y-79503638D01*
X135971600Y-79598876D01*
X136019219Y-79646495D01*
X136114457Y-79694114D01*
X136352552Y-79694114D01*
X136447790Y-79646495D01*
X136495410Y-79598876D01*
X136543029Y-79503638D01*
X136543029Y-79313161D01*
X136495410Y-79217923D01*
X136447790Y-79170304D01*
X136352552Y-79122685D01*
X93552343Y-70264257D02*
X93599962Y-70311876D01*
X93647581Y-70454733D01*
X93647581Y-70549971D01*
X93599962Y-70692829D01*
X93504724Y-70788067D01*
X93409486Y-70835686D01*
X93219010Y-70883305D01*
X93076152Y-70883305D01*
X92885676Y-70835686D01*
X92790438Y-70788067D01*
X92695200Y-70692829D01*
X92647581Y-70549971D01*
X92647581Y-70454733D01*
X92695200Y-70311876D01*
X92742819Y-70264257D01*
X93647581Y-69311876D02*
X93647581Y-69883305D01*
X93647581Y-69597591D02*
X92647581Y-69597591D01*
X92790438Y-69692829D01*
X92885676Y-69788067D01*
X92933295Y-69883305D01*
X92647581Y-68692829D02*
X92647581Y-68597590D01*
X92695200Y-68502352D01*
X92742819Y-68454733D01*
X92838057Y-68407114D01*
X93028533Y-68359495D01*
X93266629Y-68359495D01*
X93457105Y-68407114D01*
X93552343Y-68454733D01*
X93599962Y-68502352D01*
X93647581Y-68597590D01*
X93647581Y-68692829D01*
X93599962Y-68788067D01*
X93552343Y-68835686D01*
X93457105Y-68883305D01*
X93266629Y-68930924D01*
X93028533Y-68930924D01*
X92838057Y-68883305D01*
X92742819Y-68835686D01*
X92695200Y-68788067D01*
X92647581Y-68692829D01*
X122196381Y-75795095D02*
X121196381Y-75795095D01*
X121196381Y-75557000D01*
X121244000Y-75414142D01*
X121339238Y-75318904D01*
X121434476Y-75271285D01*
X121624952Y-75223666D01*
X121767810Y-75223666D01*
X121958286Y-75271285D01*
X122053524Y-75318904D01*
X122148762Y-75414142D01*
X122196381Y-75557000D01*
X122196381Y-75795095D01*
X122196381Y-74271285D02*
X122196381Y-74842714D01*
X122196381Y-74557000D02*
X121196381Y-74557000D01*
X121339238Y-74652238D01*
X121434476Y-74747476D01*
X121482095Y-74842714D01*
X139054667Y-119850381D02*
X139054667Y-120564667D01*
X139007047Y-120707524D01*
X138911809Y-120802762D01*
X138768952Y-120850381D01*
X138673714Y-120850381D01*
X140054667Y-120850381D02*
X139483238Y-120850381D01*
X139768952Y-120850381D02*
X139768952Y-119850381D01*
X139673714Y-119993238D01*
X139578476Y-120088476D01*
X139483238Y-120136095D01*
X139620667Y-82935381D02*
X139620667Y-83649667D01*
X139573047Y-83792524D01*
X139477809Y-83887762D01*
X139334952Y-83935381D01*
X139239714Y-83935381D01*
X140049238Y-83030619D02*
X140096857Y-82983000D01*
X140192095Y-82935381D01*
X140430191Y-82935381D01*
X140525429Y-82983000D01*
X140573048Y-83030619D01*
X140620667Y-83125857D01*
X140620667Y-83221095D01*
X140573048Y-83363952D01*
X140001619Y-83935381D01*
X140620667Y-83935381D01*
X96124734Y-123234181D02*
X95648543Y-123234181D01*
X95648543Y-122234181D01*
X96981877Y-123234181D02*
X96410448Y-123234181D01*
X96696162Y-123234181D02*
X96696162Y-122234181D01*
X96600924Y-122377038D01*
X96505686Y-122472276D01*
X96410448Y-122519895D01*
X93697581Y-108980266D02*
X93697581Y-109456457D01*
X92697581Y-109456457D01*
X92792819Y-108694552D02*
X92745200Y-108646933D01*
X92697581Y-108551695D01*
X92697581Y-108313599D01*
X92745200Y-108218361D01*
X92792819Y-108170742D01*
X92888057Y-108123123D01*
X92983295Y-108123123D01*
X93126152Y-108170742D01*
X93697581Y-108742171D01*
X93697581Y-108123123D01*
X93697581Y-126684066D02*
X93697581Y-127160257D01*
X92697581Y-127160257D01*
X92697581Y-126445971D02*
X92697581Y-125826923D01*
X93078533Y-126160257D01*
X93078533Y-126017399D01*
X93126152Y-125922161D01*
X93173771Y-125874542D01*
X93269010Y-125826923D01*
X93507105Y-125826923D01*
X93602343Y-125874542D01*
X93649962Y-125922161D01*
X93697581Y-126017399D01*
X93697581Y-126303114D01*
X93649962Y-126398352D01*
X93602343Y-126445971D01*
X97097581Y-75350666D02*
X97097581Y-75826857D01*
X96097581Y-75826857D01*
X96430914Y-74588761D02*
X97097581Y-74588761D01*
X96049962Y-74826857D02*
X96764248Y-75064952D01*
X96764248Y-74445904D01*
X125371381Y-75223666D02*
X124895190Y-75557000D01*
X125371381Y-75795095D02*
X124371381Y-75795095D01*
X124371381Y-75414142D01*
X124419000Y-75318904D01*
X124466619Y-75271285D01*
X124561857Y-75223666D01*
X124704714Y-75223666D01*
X124799952Y-75271285D01*
X124847571Y-75318904D01*
X124895190Y-75414142D01*
X124895190Y-75795095D01*
X125371381Y-74271285D02*
X125371381Y-74842714D01*
X125371381Y-74557000D02*
X124371381Y-74557000D01*
X124514238Y-74652238D01*
X124609476Y-74747476D01*
X124657095Y-74842714D01*
X97097581Y-93587866D02*
X96621390Y-93921200D01*
X97097581Y-94159295D02*
X96097581Y-94159295D01*
X96097581Y-93778342D01*
X96145200Y-93683104D01*
X96192819Y-93635485D01*
X96288057Y-93587866D01*
X96430914Y-93587866D01*
X96526152Y-93635485D01*
X96573771Y-93683104D01*
X96621390Y-93778342D01*
X96621390Y-94159295D01*
X96192819Y-93206914D02*
X96145200Y-93159295D01*
X96097581Y-93064057D01*
X96097581Y-92825961D01*
X96145200Y-92730723D01*
X96192819Y-92683104D01*
X96288057Y-92635485D01*
X96383295Y-92635485D01*
X96526152Y-92683104D01*
X97097581Y-93254533D01*
X97097581Y-92635485D01*
X96124734Y-87423781D02*
X95791400Y-86947590D01*
X95553305Y-87423781D02*
X95553305Y-86423781D01*
X95934258Y-86423781D01*
X96029496Y-86471400D01*
X96077115Y-86519019D01*
X96124734Y-86614257D01*
X96124734Y-86757114D01*
X96077115Y-86852352D01*
X96029496Y-86899971D01*
X95934258Y-86947590D01*
X95553305Y-86947590D01*
X96458067Y-86423781D02*
X97077115Y-86423781D01*
X96743781Y-86804733D01*
X96886639Y-86804733D01*
X96981877Y-86852352D01*
X97029496Y-86899971D01*
X97077115Y-86995210D01*
X97077115Y-87233305D01*
X97029496Y-87328543D01*
X96981877Y-87376162D01*
X96886639Y-87423781D01*
X96600924Y-87423781D01*
X96505686Y-87376162D01*
X96458067Y-87328543D01*
X97097581Y-84215266D02*
X96621390Y-84548600D01*
X97097581Y-84786695D02*
X96097581Y-84786695D01*
X96097581Y-84405742D01*
X96145200Y-84310504D01*
X96192819Y-84262885D01*
X96288057Y-84215266D01*
X96430914Y-84215266D01*
X96526152Y-84262885D01*
X96573771Y-84310504D01*
X96621390Y-84405742D01*
X96621390Y-84786695D01*
X96430914Y-83358123D02*
X97097581Y-83358123D01*
X96049962Y-83596219D02*
X96764248Y-83834314D01*
X96764248Y-83215266D01*
X96589095Y-111646181D02*
X96589095Y-112455705D01*
X96636714Y-112550943D01*
X96684333Y-112598562D01*
X96779571Y-112646181D01*
X96970048Y-112646181D01*
X97065286Y-112598562D01*
X97112905Y-112550943D01*
X97160524Y-112455705D01*
X97160524Y-111646181D01*
X98160524Y-112646181D02*
X97589095Y-112646181D01*
X97874809Y-112646181D02*
X97874809Y-111646181D01*
X97779571Y-111789038D01*
X97684333Y-111884276D01*
X97589095Y-111931895D01*
X128121981Y-70665933D02*
X128836267Y-70665933D01*
X128979124Y-70713553D01*
X129074362Y-70808791D01*
X129121981Y-70951648D01*
X129121981Y-71046886D01*
X128455314Y-69761171D02*
X129121981Y-69761171D01*
X128074362Y-69999267D02*
X128788648Y-70237362D01*
X128788648Y-69618314D01*
X113284095Y-128230381D02*
X113284095Y-129039905D01*
X113331714Y-129135143D01*
X113379333Y-129182762D01*
X113474571Y-129230381D01*
X113665048Y-129230381D01*
X113760286Y-129182762D01*
X113807905Y-129135143D01*
X113855524Y-129039905D01*
X113855524Y-128230381D01*
X114284095Y-128325619D02*
X114331714Y-128278000D01*
X114426952Y-128230381D01*
X114665048Y-128230381D01*
X114760286Y-128278000D01*
X114807905Y-128325619D01*
X114855524Y-128420857D01*
X114855524Y-128516095D01*
X114807905Y-128658952D01*
X114236476Y-129230381D01*
X114855524Y-129230381D01*
X132501781Y-96697705D02*
X133311305Y-96697705D01*
X133406543Y-96650086D01*
X133454162Y-96602467D01*
X133501781Y-96507229D01*
X133501781Y-96316752D01*
X133454162Y-96221514D01*
X133406543Y-96173895D01*
X133311305Y-96126276D01*
X132501781Y-96126276D01*
X132501781Y-95745324D02*
X132501781Y-95126276D01*
X132882733Y-95459610D01*
X132882733Y-95316752D01*
X132930352Y-95221514D01*
X132977971Y-95173895D01*
X133073210Y-95126276D01*
X133311305Y-95126276D01*
X133406543Y-95173895D01*
X133454162Y-95221514D01*
X133501781Y-95316752D01*
X133501781Y-95602467D01*
X133454162Y-95697705D01*
X133406543Y-95745324D01*
M02*
